<svg xmlns="http://www.w3.org/2000/svg" width="150" height="37" viewBox="0 0 150 37">
    <path fill="#3D94D6" fill-rule="evenodd" d="M14 3.251C8.645 3.651 4.362 8.264 4.039 14H1C1.33 6.474 6.973.41 14 0v3.251zM25.961 14C25.638 8.264 21.354 3.65 16 3.251V0c7.027.41 12.67 6.474 13 14h-3.039zM13.717 30.492l-.003.005L11.697 33c-2.429-3.004-6.077-7.452-7.367-9.202-2.062-2.796-3.164-5.275-3.33-8.246h3.156c.165 2.251 1.026 4.126 2.67 6.34.876 1.18 2.912 3.67 4.869 6.102 0 0 6.988-8.584 7.84-9.767.852-1.184 1.243-2.03 1.309-3.275.004-.095.008-.192.008-.292 0-3.051-2.502-5.533-5.576-5.533-3.071 0-5.573 2.482-5.573 5.533 0 .1.003.197.007.292.11 2.076 1.215 3.61 3.17 4.705.844.473 0 .001 0 .001l1.721.832-1.95 2.43a8.766 8.766 0 0 1-3.96-2.587l-.006.002-.056-.067a8.514 8.514 0 0 1-2.076-5.608c0-4.774 3.914-8.66 8.723-8.66C20.086 6 24 9.886 24 14.66c0 .154-.005.305-.011.456-.123 2.393-1.235 3.96-2.063 5.152-.555.799-4.258 5.32-6.487 8.086l-.001-.001-1.72 2.14zm9.562-9.114c1.644-2.277 2.461-4.112 2.62-6.378H29c-.164 2.99-1.225 5.431-3.27 8.296-1.928 2.702-9.236 11.794-9.544 12.182L14.982 37l-1.203-1.522c-.058-.07-.34-.428-.779-.983l1.982-2.514c.604-.763 1.386-1.756 2.234-2.833l.002-.002c2.254-2.863 5.01-6.31 6.061-7.768zM70.5 26c.662 0 1.251.192 1.749.567.5.381.752.856.752 1.41 0 .55-.248 1.032-.736 1.426-.486.398-1.081.597-1.765.597-.332 0-.653-.053-.952-.157a2.723 2.723 0 0 1-.792-.412 1.961 1.961 0 0 1-.55-.623 1.594 1.594 0 0 1-.205-.784c0-.55.248-1.03.736-1.43.487-.392 1.08-.594 1.763-.594zm8.431-7.537a5.109 5.109 0 0 0-.84 1.66A6.608 6.608 0 0 0 77.814 22c0 .628.098 1.26.292 1.871a5.24 5.24 0 0 0 .872 1.66c.389.486.876.885 1.452 1.183.572.296 1.253.446 2.024.446.64 0 1.286-.125 1.919-.368.63-.242 1.145-.596 1.523-1.055l.131-.16 2.938 2.91-.123.128c-.729.76-1.665 1.353-2.79 1.764-1.118.412-2.34.62-3.633.62-1.273 0-2.494-.203-3.632-.6a8.694 8.694 0 0 1-3.011-1.776 8.336 8.336 0 0 1-2.033-2.837c-.492-1.105-.743-2.38-.743-3.786 0-1.361.25-2.613.743-3.72a8.497 8.497 0 0 1 2.014-2.838 9.084 9.084 0 0 1 2.954-1.809c1.119-.421 2.33-.634 3.603-.634 1.274 0 2.52.235 3.709.705 1.193.473 2.155 1.134 2.86 1.964l.117.138-3.207 2.75-.121-.166c-.312-.434-.789-.807-1.42-1.104a4.52 4.52 0 0 0-1.938-.449c-.745 0-1.411.15-1.97.445a4.241 4.241 0 0 0-1.414 1.18zm28.321-.198c.5 1.094.749 2.327.749 3.667 0 1.338-.249 2.58-.749 3.682a8.699 8.699 0 0 1-2.02 2.854c-.847.79-1.863 1.414-3.023 1.86a10.33 10.33 0 0 1-3.706.672c-1.3 0-2.55-.228-3.71-.672-1.162-.448-2.178-1.074-3.02-1.86a8.682 8.682 0 0 1-2.023-2.854C89.254 24.512 89 23.27 89 21.932c0-1.34.254-2.573.749-3.667a8.565 8.565 0 0 1 2.023-2.82c.846-.776 1.86-1.382 3.022-1.808A10.805 10.805 0 0 1 98.502 13c1.298 0 2.545.213 3.704.637 1.158.425 2.176 1.032 3.025 1.809a8.59 8.59 0 0 1 2.02 2.819zM103 21.967c0-.605-.095-1.21-.28-1.802a5.002 5.002 0 0 0-.827-1.6 4.136 4.136 0 0 0-1.387-1.136c-.555-.286-1.228-.429-2.004-.429-.779 0-1.454.143-2.007.43a4.182 4.182 0 0 0-1.388 1.135 5.066 5.066 0 0 0-.83 1.6A6.087 6.087 0 0 0 94 21.967c0 .598.094 1.211.278 1.818a5.02 5.02 0 0 0 .83 1.615 4.34 4.34 0 0 0 1.39 1.153c.553.295 1.228.447 2.004.447.774 0 1.447-.152 2-.445a4.33 4.33 0 0 0 1.39-1.155c.37-.476.65-1.018.828-1.615.185-.604.28-1.216.28-1.818zM50.56 9.23a7.565 7.565 0 0 1 1.799 2.476c.424.938.641 1.965.641 3.05 0 .637-.057 1.24-.165 1.795a8.9 8.9 0 0 1-.473 1.623c-.21.52-.462 1.047-.752 1.562a25.17 25.17 0 0 1-.99 1.632L44.87 30h-5.146l6.057-8.482c1.48-2.075 2.927-4.313 2.927-6.855 0-.557-.099-1.09-.294-1.59a4.073 4.073 0 0 0-2.175-2.257 4.223 4.223 0 0 0-1.724-.343c-1.25 0-2.271.397-3.036 1.177-.768.785-1.157 1.82-1.157 3.077 0 .597.1 1.159.296 1.666a3.5 3.5 0 0 0 .843 1.293c1.727 1.597 3.27 2.009 3.283 2.011l.247.065-1.978 2.945-.125-.026c-1.235-.253-2.796-1.041-4.065-2.06a7.692 7.692 0 0 1-.645-.545 6.475 6.475 0 0 1-.543-.584l-.384-.45.048.01a7.132 7.132 0 0 1-.722-1.28A7.093 7.093 0 0 1 36 14.913c0-1.188.22-2.283.657-3.254a7.577 7.577 0 0 1 1.798-2.507c.755-.689 1.662-1.225 2.7-1.597A9.898 9.898 0 0 1 44.483 7c1.195 0 2.328.197 3.362.588a8.425 8.425 0 0 1 2.716 1.642zm19.05 10.507a25.609 25.609 0 0 1-.988 1.632L62.872 30h-5.148l6.058-8.482c1.479-2.075 2.925-4.312 2.925-6.856a4.35 4.35 0 0 0-.292-1.59 4.098 4.098 0 0 0-.849-1.33 4.154 4.154 0 0 0-1.327-.926 4.225 4.225 0 0 0-1.724-.344c-1.25 0-2.27.398-3.034 1.178-.769.785-1.159 1.82-1.159 3.076 0 .597.1 1.16.296 1.668.192.504.475.935.844 1.291 1.727 1.6 3.27 2.01 3.282 2.013l.246.063-1.977 2.947-.122-.027c-1.241-.253-2.799-1.04-4.067-2.059a6.832 6.832 0 0 1-1.189-1.13l-.384-.45.05.01a7.113 7.113 0 0 1-.725-1.28A7.11 7.11 0 0 1 54 14.914c0-1.188.219-2.284.656-3.255a7.554 7.554 0 0 1 1.798-2.507 7.942 7.942 0 0 1 2.702-1.598A9.909 9.909 0 0 1 62.482 7a9.53 9.53 0 0 1 3.365.587A8.409 8.409 0 0 1 68.56 9.23a7.499 7.499 0 0 1 1.795 2.476 7.33 7.33 0 0 1 .644 3.05 9.51 9.51 0 0 1-.163 1.796 8.792 8.792 0 0 1-.477 1.621 13.545 13.545 0 0 1-.75 1.564z"/>
</svg>
