<svg xmlns="http://www.w3.org/2000/svg" width="183" height="318" viewBox="0 0 183 318">
    <path fill="#FFF" fill-rule="evenodd" d="M23.334 25.957C38.35 18.67 53.964 9.84 70.48 4.885c22.355-6.707 47.447-7.335 68.204 3.373 20.758 10.707 35.639 34.447 31.54 57.538-5.39 30.374-39.955 52.189-37.21 82.918 1.66 18.599 16.661 32.61 28.269 47.187 19.516 24.506 30.647 61.132 12.593 86.748-14.15 20.075-40.646 26.084-64.706 30.587C92.764 316.306 76.5 318 60 318c-10.667 0-30.667-1.588-60-4.764V36.21c12-5.11 19.778-8.529 23.334-10.254z" opacity=".5"/>
</svg>
