<svg xmlns="http://www.w3.org/2000/svg" xmlns:xlink="http://www.w3.org/1999/xlink" width="243" height="163" viewBox="0 0 243 163">
    <defs>
        <path id="a" d="M0 .006h242.037v140.998H0z"/>
        <path id="c" d="M6.553 12.751c1.229 1.922 2.732 3.883 4.475 5.525.002.004.006.007.01.011.167.158.339.315.512.467.145.129.29.254.437.375.058.051.114.098.174.144H15.631l-.057-.136a10.036 10.036 0 0 1-.093-.216l-.009-.022-.233-.527c-.072-.161-.145-.32-.22-.478a7.23 7.23 0 0 0-.132-.282c-.061-.132-.125-.264-.187-.395a44.405 44.405 0 0 0-.517-1.022 25.49 25.49 0 0 0-.325-.613c-.096-.183-.196-.362-.296-.542-.088-.158-.177-.313-.266-.47l-.072-.123a27.095 27.095 0 0 0-.28-.476l-.288-.479c-.019-.028-.035-.057-.053-.085-.101-.163-.204-.326-.306-.488a46.07 46.07 0 0 0-.336-.519c-.113-.172-.225-.343-.342-.514-.23-.341-.465-.678-.705-1.012a37.64 37.64 0 0 0-.363-.5v-.002l-.36-.477-.026-.035a42.376 42.376 0 0 0-1.137-1.429c-.25-.301-.505-.599-.764-.895l-.391-.44c-.13-.145-.264-.289-.396-.434l-.278-.296-.012-.013c-.088-.093-.179-.185-.268-.278l-.118-.126-.012-.014c-.081-.081-.163-.166-.245-.247l-.246-.246-.095-.096A42.44 42.44 0 0 0 .737.751c2.747 3.673 3.344 8.136 5.816 12"/>
        <linearGradient id="d" x1="100.002%" x2=".002%" y1="50%" y2="50%">
            <stop offset="0%" stop-color="#4BBA7E"/>
            <stop offset="100%" stop-color="#23E877"/>
        </linearGradient>
        <path id="f" d="M12.07 1.626l-2.715 3.44-.353.444c-.68.852-1.386 1.688-2.228 2.374-.363.293-.759.572-1.124.874a5.36 5.36 0 0 0-.495.455v.002a3.12 3.12 0 0 0-.442.573 2.378 2.378 0 0 0-.199.42c-.346.965-.022 2.131-.582 2.989-.2.307-.489.532-.792.746-.244.173-.498.341-.72.538-1.033.92-1.302 2.403-1.508 3.769l-.004.023h9.835c1.041-.697 2.441-1.134 2.827-2.304.514-1.56-1.194-3.33-.434-4.787.523-1.001 1.999-1.299 2.339-2.377.344-1.091-.716-2.113-.89-3.244-.145-.942.337-1.854.533-2.787.189-.895-.071-2.062-.916-2.324a1.216 1.216 0 0 0-.35-.054c-.709 0-1.32.644-1.782 1.23"/>
        <linearGradient id="g" x1="99.998%" x2=".004%" y1="50%" y2="50%">
            <stop offset="0%" stop-color="#4BBA7E"/>
            <stop offset="100%" stop-color="#23E877"/>
        </linearGradient>
        <path id="i" d="M12.07 1.626l-2.715 3.44-.353.444c-.68.852-1.386 1.688-2.228 2.374-.363.293-.759.572-1.124.874a5.36 5.36 0 0 0-.495.455v.002a3.12 3.12 0 0 0-.442.573 2.378 2.378 0 0 0-.199.42c-.346.965-.022 2.131-.582 2.989-.2.307-.489.532-.792.746-.244.173-.498.341-.72.538-1.033.92-1.302 2.403-1.508 3.769l-.004.023H7.51c.309-.72.609-1.443.905-2.169.998-2.455 1.924-4.942 2.846-7.421 1.014-2.732 2.031-5.462 3.046-8.192a1.036 1.036 0 0 0-.105-.041 1.216 1.216 0 0 0-.35-.054c-.709 0-1.32.644-1.782 1.23"/>
        <linearGradient id="j" x1="99.998%" x2=".004%" y1="50%" y2="50%">
            <stop offset="0%" stop-color="#4BBA7E"/>
            <stop offset="100%" stop-color="#23E877"/>
        </linearGradient>
        <path id="l" d="M1.144 7.293c-.044.256-.079.51-.111.765-.014.131-.029.261-.041.392-.042.39-.069.781-.086 1.173-.051 1.247.001 2.502.094 3.755v.003c.022.304.048.608.074.912.026.307.054.613.081.92v.002l.008.084c.02.222.039.443.061.665.03.336.06.675.087 1.013.203 2.441.308 4.909-.179 7.296h.218c.074-.09.146-.181.217-.273.078-.102.155-.205.23-.308.001-.004.004-.006.008-.011.059-.081.116-.162.172-.245.09-.133.178-.265.266-.401.07-.113.141-.228.209-.343.034-.057.068-.113.1-.17l.096-.17.094-.171.109-.206c.051-.1.102-.2.15-.301a18.673 18.673 0 0 0 .471-1.065.1.1 0 0 1 .01-.023c.045-.112.086-.227.129-.341l.012-.03c.042-.111.081-.224.12-.337l.062-.185v-.002c.065-.195.127-.391.185-.589.585-1.992.849-4.117.957-6.249.024-.447.041-.896.055-1.343.119-3.838-.039-7.663.459-11.476-2.442 1.561-3.832 4.402-4.317 7.259"/>
        <linearGradient id="m" x1="99.993%" x2="-.003%" y1="50.001%" y2="50.001%">
            <stop offset="0%" stop-color="#4BBA7E"/>
            <stop offset="100%" stop-color="#23E877"/>
        </linearGradient>
        <path id="o" d="M1.645.542a.933.933 0 0 0-.059.036C.766 1.119.79 2.307.904 3.282l.606 5.163c.178 1.504.355 3.022.198 4.528-.09.887-.294 1.815-.231 2.689v.001c.029.4.113.788.287 1.155.52 1.098 1.77 1.805 2.018 2.994.162.772-.146 1.559-.191 2.346-.095 1.637.924 3.105 1.897 4.425.422.571.854 1.152 1.327 1.69h10.264c.042-.081.078-.163.11-.249.219-.569.274-1.247.226-1.92a7.715 7.715 0 0 0-.386-1.895 3.401 3.401 0 0 0-.224-.516v-.002c-.611-1.159-1.734-1.744-2.494-2.714a3.714 3.714 0 0 1-.405-.633 2.282 2.282 0 0 1-.193-.556c-.159-.762.051-1.582.287-2.407v-.003l.001-.006c.328-1.15.701-2.305.19-3.317a2.308 2.308 0 0 0-.283-.429l-.002-.003c-1.101-1.332-3.561-1.529-4.094-3.219-.402-1.277.588-2.769-.032-3.956-.629-1.203-2.372-1.171-3.468-1.974-.912-.669-1.273-1.837-1.89-2.786C3.957.976 3.124.355 2.337.355c-.239 0-.473.057-.692.187"/>
        <linearGradient id="p" x1="49.998%" x2="49.998%" y1=".001%" y2="100.001%">
            <stop offset="0%" stop-color="#4BBA7E"/>
            <stop offset="100%" stop-color="#23E877"/>
        </linearGradient>
        <path id="r" d="M1.645.542a.933.933 0 0 0-.059.036C.766 1.119.79 2.307.904 3.282l.606 5.163c.178 1.504.355 3.022.198 4.528-.09.887-.294 1.815-.231 2.689v.001c.029.4.113.788.287 1.155.52 1.098 1.77 1.805 2.018 2.994.162.772-.146 1.559-.191 2.346-.095 1.637.924 3.105 1.897 4.425.422.571.854 1.152 1.327 1.69h6.79a83.457 83.457 0 0 0-1.465-4.33c-1.749-4.775-3.878-9.435-5.997-14.063L1.827.455a1.317 1.317 0 0 0-.182.087"/>
        <linearGradient id="s" x1="99.995%" x2="-.004%" y1="49.999%" y2="49.999%">
            <stop offset="0%" stop-color="#4BBA7E"/>
            <stop offset="100%" stop-color="#23E877"/>
        </linearGradient>
    </defs>
    <g fill="none" fill-rule="evenodd">
        <g transform="translate(0 .661)">
            <mask id="b" fill="#fff">
                <use xlink:href="#a"/>
            </mask>
            <path fill="#4285F4" d="M97.639 4.386c-3.003-.796-6.026-1.504-9.085-2.063C66.139-1.771 6.143-3.726.412 25.793c-1.245 6.413.242 14.873 5.695 19.441C17.88 55.096 36.41 43.95 49.884 49.88 75.52 61.16 37.45 83.992 32.043 94.832c-5.731 11.492-6.98 27.088 5.09 35.459 6.733 4.668 15.278 6.4 23.597 7.55 47.678 6.601 98.374 1.815 145.805-4.727 11.028-1.522 31.12-6.478 27.89-20.431-.803-3.478-2.91-6.59-5.396-9.3-9.294-10.12-29.485-17.585-29.95-32.786-.31-10.198 10.147-18.083 18.41-23.173 6.314-3.89 13.03-7.398 18.254-12.495 13.343-13.019 3.995-29.805-14.211-32.319-11.263-1.554-22.515 2.002-33.418 5.042-14.463 4.03-30.696 8.032-45.944 7.36-15.488-.684-29.76-6.71-44.531-10.626" mask="url(#b)" opacity=".1"/>
        </g>
        <path fill="#AFC1E7" d="M207.037 154.372c0 4.578-32.012 8.289-71.5 8.289s-71.5-3.711-71.5-8.29c0-4.577 32.012-8.29 71.5-8.29s71.5 3.713 71.5 8.29" opacity=".1"/>
        <path fill="#2F2E41" d="M111.785 26.526c-.315-2.185-1.4-4.369-3.312-5.475-2.077-1.202-4.664-.927-7.028-.52-1.418.244-2.868.537-4.083 1.308-1.413.898-2.382 2.374-2.969 3.942-.587 1.567-.828 3.239-1.066 4.896-.147 1.031-.217 2.272.606 2.909.552.426 1.314.413 2.011.377 2.637-.13 5.273-.262 7.91-.393l3.952-.197c.925-.046 3.052-.512 3.74 0-.483-2.082.56-4.621.24-6.847"/>
        <path fill="#FBBEBE" d="M95.037 150.516h4v-4h-4zM105.037 150.516h4v-5h-4z"/>
        <path fill="#BACDEF" d="M195.25 20.725s1.421-1.866 2.292-2.722c1.568-1.54 3.367-4.264 9.12-2.257.447.156.88.363 1.311.571.506.246 2.078.252 3.687-1.207 2.556-2.319 3.556-4.069 7.06-4.123 4.074-.063 4.716 5.74 7.883 7.225 2.016.946 7.335 1.885 8.434 2.304l-39.787.21zM40.25 20.725s1.421-1.866 2.292-2.722c1.568-1.54 3.367-4.264 9.12-2.257.447.156.88.363 1.311.571.506.246 2.078.252 3.687-1.207 2.556-2.319 3.556-4.069 7.06-4.123 4.074-.063 4.716 5.74 7.883 7.225 2.016.946 7.335 1.885 8.434 2.304l-39.787.21z"/>
        <path fill="#FBBEBE" d="M97.984 53.498h7.028v-5.879h-7.028z"/>
        <path fill="#3F3D56" d="M94.177 86.992l10.326-.523-1.591 12.047h-1.761l-.881 24.81-.808 23.519-4.425.312.02-32.345z"/>
        <path fill="#3F3D56" d="M109.916 87.136l-10.196-.518 1.57 11.898h1.74l.87 24.5.797 23.21 4.34.081.01-31.699z"/>
        <path fill="#F0FAFF" d="M98.28 87.854h6.414a5.453 5.453 0 0 0 5.42-4.854l2.777-25.13a5.452 5.452 0 0 0-2.948-5.459l-.013-.006a5.45 5.45 0 0 0-5.036.05l-.91.484a5.452 5.452 0 0 1-5.17-.022l-.484-.263a5.456 5.456 0 0 0-5.267.031l-.135.076a5.45 5.45 0 0 0-2.758 5.344l2.69 24.883a5.452 5.452 0 0 0 5.42 4.866"/>
        <path fill="#3D94D6" d="M103.95 79.82l.395 13.675a1.704 1.704 0 0 0 1.866 1.648l4.662-.443a1.697 1.697 0 0 0 1.536-1.533c.5-5.406 2.272-24.775 2.272-27.805 0-3.53.076-10.811.076-10.811l-5.256-2.997a1.706 1.706 0 0 0-2.54 1.292l-3 26.736a1.588 1.588 0 0 0-.01.239M98.77 79.806l-.4 13.873a1.532 1.532 0 0 1-1.677 1.481l-4.99-.474a1.525 1.525 0 0 1-1.38-1.377c-.481-5.197-2.285-24.89-2.285-27.947 0-2.75-.022-7.676-.031-9.716a1.527 1.527 0 0 1 .819-1.359l4.79-2.52a1.532 1.532 0 0 1 2.238 1.188l2.907 26.641c.008.07.01.14.009.21"/>
        <path fill="#000102" d="M114.588 67.508s.334-7.406.142-8.37c-.209-1.042-.949 4.419-1.022 6.324-.141 3.663-2.564 29.21-2.564 29.21s.472-.037 1.135-.106c.41-.338 2.309-27.058 2.309-27.058" opacity=".1"/>
        <path fill="#3D94D6" d="M114.757 54.446c3.979 2.177 10.82 21.233 8.792 22.98-2.876.589-7.015-6.048-8.744-9.09a6.744 6.744 0 0 1-.876-3.097c-.12-3.346-.256-10.71.828-10.793M99.236 149.522c.163.146.355 1.763.328 2.811-.143.475-6.202 1.911-6.653 1.986-.42.07-6.222.195-7.115.1-.02-.563 1.784-3.728 8.715-4.78-.023-.024 4.368-.433 4.725-.117M104.748 149.522c-.164.146-.356 1.763-.328 2.811.143.475 6.203 1.911 6.653 1.986.42.07 6.224.202 7.117.106-.018-1.239-1.787-3.734-8.718-4.786.025-.024-4.366-.433-4.724-.117"/>
        <path fill="#FBBEBE" d="M101.17 73.715c-1.01-.195-3.37-.356-3.916-1.37-.33-.674-.435-1.008-.335-1.331.225-.706-.164-.706.577-1.486.153-.175.064-1.843 1.352-1.4.724.246 1.737 1.207 2.584 1.46 1.352.385 2.945 1.255 1.83 2.833-.422.585-.41.908-.634 1.108-.522.467-1.162.244-1.459.186"/>
        <path fill="#000102" d="M113.194 79.16s-6.13-2.494-8.877-4.438c-1.228-.87.339-2.283.339-2.283l8.748 3.804-.21 2.917zM88.572 70.79s.542-8.946.683-5.282c.141 3.663 2.536 29.16 2.536 29.16s-.509-.024-1.099-.08c-.408-.338-2.12-23.797-2.12-23.797"/>
        <path fill="#FBBEBE" d="M83.455 95.076c-.136.846-.618 3.49.177 4.28.511.472.78.652 1.093.648.684-.013.583.333 1.468-.12.197-.09 1.652.429 1.598-.83-.027-.707-.61-1.857-.613-2.675.015-1.301-.336-2.942-2.03-2.368-2.099.73-1.63.675-1.693 1.065"/>
        <path fill="#3D94D6" d="M89.65 62.633c-.029-3.044-.467-8.538-1.459-7.925-1.267.782-2.989 4.946-3.867 10.46-1.703 10.694-1.918 26.072-.948 29.794 0 0 2.914 1.67 4.04.055.91-17.084 2.273-28.096 2.234-32.384M101.724 73.358c.032.271.249.442.459.616 1.97 1.625 15.678 6.106 19.96 5.238a2.076 2.076 0 0 0 1.54-1.296c.434-1.149.739-3.707-.773-4.17-4.082-1.249-16.29-2.587-19.897-3.897a.463.463 0 0 0-.572.222c-.376.73-.823 2.395-.717 3.287"/>
        <path fill="#E5AEAE" d="M105.013 46.55h-7.02v1.234c.558.346 2.032 1.393 3.498 1.398 1.484.004 2.959-1.04 3.522-1.388V46.55z"/>
        <path fill="#FBBEBE" d="M101.467 22.295c-2.962 0-8 .462-8 12.96 0 0 .109 5.544.328 6.748.218 1.2 4.132 6.02 7.696 6.055h.038c3.564-.034 7.478-4.855 7.696-6.055.219-1.204.329-6.748.329-6.748 0-12.498-5.124-12.96-8.087-12.96"/>
        <path fill="#FBBEBE" d="M109.422 38.55s.801-.038 1.3-.537c.448-.448.813-1.311.813-2.867 0-3.613-2.113-2.648-2.113-2.648v6.052z"/>
        <path fill="#AFC1E7" d="M50.948 47.957a3.396 3.396 0 1 1-5.928 3.314 3.396 3.396 0 0 1 5.928-3.314M53.29 54.235a1.189 1.189 0 1 1-2.076 1.159 1.189 1.189 0 0 1 2.076-1.159M141.008.88a3.395 3.395 0 1 1-2.336 4.195A3.395 3.395 0 0 1 141.008.88M147.656.046a1.189 1.189 0 1 1 .65 2.286 1.189 1.189 0 0 1-.65-2.286M233.783 51.542a3.395 3.395 0 1 1-6.57 1.73 3.395 3.395 0 0 1 6.57-1.73M234.482 58.206a1.188 1.188 0 1 1-2.298.605 1.188 1.188 0 0 1 2.298-.605"/>
        <g transform="translate(37 118.661)">
            <mask id="e" fill="#fff">
                <use xlink:href="#c"/>
            </mask>
            <path fill="url(#d)" d="M6.553 12.751c1.229 1.922 2.732 3.883 4.475 5.525.002.004.006.007.01.011.167.158.339.315.512.467.145.129.29.254.437.375.058.051.114.098.174.144H15.631l-.057-.136a10.036 10.036 0 0 1-.093-.216l-.009-.022-.233-.527c-.072-.161-.145-.32-.22-.478a7.23 7.23 0 0 0-.132-.282c-.061-.132-.125-.264-.187-.395a44.405 44.405 0 0 0-.517-1.022 25.49 25.49 0 0 0-.325-.613c-.096-.183-.196-.362-.296-.542-.088-.158-.177-.313-.266-.47l-.072-.123a27.095 27.095 0 0 0-.28-.476l-.288-.479c-.019-.028-.035-.057-.053-.085-.101-.163-.204-.326-.306-.488a46.07 46.07 0 0 0-.336-.519c-.113-.172-.225-.343-.342-.514-.23-.341-.465-.678-.705-1.012a37.64 37.64 0 0 0-.363-.5v-.002l-.36-.477-.026-.035a42.376 42.376 0 0 0-1.137-1.429c-.25-.301-.505-.599-.764-.895l-.391-.44c-.13-.145-.264-.289-.396-.434l-.278-.296-.012-.013c-.088-.093-.179-.185-.268-.278l-.118-.126-.012-.014c-.081-.081-.163-.166-.245-.247l-.246-.246-.095-.096A42.44 42.44 0 0 0 .737.751c2.747 3.673 3.344 8.136 5.816 12" mask="url(#e)"/>
        </g>
        <path fill="#000" d="M43.076 126.129c.012.163.03.322.057.479.04.237.098.466.185.688.057.148.126.293.21.433.116.195.257.375.41.545.104.113.213.223.324.33.083.079.167.157.251.234.227.21.456.42.662.642.283.305.522.636.646 1.036.03.094.052.189.068.285.016.096.026.192.033.29a6.44 6.44 0 0 1-.029.886l-.023.298a5.625 5.625 0 0 0-.016.594c.012.308.061.606.143.894.134.48.354.937.625 1.375a9.456 9.456 0 0 0 .487.701c.03.039.06.076.088.115.104.133.21.265.318.395l.24.279c.091.105.181.208.272.31l.01.01c.168.159.34.316.513.467a15.254 15.254 0 0 0 .612.52h3.468a3.975 3.975 0 0 1-.057-.137c-.03-.072-.06-.143-.093-.215l-.008-.022c-.077-.177-.156-.352-.234-.528-.07-.16-.144-.32-.22-.478a8.99 8.99 0 0 0-.13-.281l-.189-.396-.269-.542a43.996 43.996 0 0 0-.248-.48 1.365 1.365 0 0 0-.046-.093 36.466 36.466 0 0 0-.278-.52 23.818 23.818 0 0 0-.297-.542 70.99 70.99 0 0 0-.265-.47c-.025-.04-.048-.081-.073-.123a86.864 86.864 0 0 0-.568-.955l-.053-.085c-.1-.163-.203-.326-.305-.488-.112-.174-.223-.347-.336-.518a41.636 41.636 0 0 0-1.047-1.527c-.12-.168-.24-.334-.363-.5v-.001l-.36-.478-.027-.034a42.376 42.376 0 0 0-1.9-2.325l-.39-.44-.398-.432a534.496 534.496 0 0 0-.289-.31l-.386-.405-.013-.013c-.08-.082-.162-.166-.244-.247a13.83 13.83 0 0 0-.342-.343c-.03-.034-.064-.065-.096-.096-.006.73-.083 1.492-.03 2.218" opacity=".1"/>
        <g transform="translate(52 119.661)">
            <mask id="h" fill="#fff">
                <use xlink:href="#f"/>
            </mask>
            <path fill="url(#g)" d="M12.07 1.626l-2.715 3.44-.353.444c-.68.852-1.386 1.688-2.228 2.374-.363.293-.759.572-1.124.874a5.36 5.36 0 0 0-.495.455v.002a3.12 3.12 0 0 0-.442.573 2.378 2.378 0 0 0-.199.42c-.346.965-.022 2.131-.582 2.989-.2.307-.489.532-.792.746-.244.173-.498.341-.72.538-1.033.92-1.302 2.403-1.508 3.769l-.004.023h9.835c1.041-.697 2.441-1.134 2.827-2.304.514-1.56-1.194-3.33-.434-4.787.523-1.001 1.999-1.299 2.339-2.377.344-1.091-.716-2.113-.89-3.244-.145-.942.337-1.854.533-2.787.189-.895-.071-2.062-.916-2.324a1.216 1.216 0 0 0-.35-.054c-.709 0-1.32.644-1.782 1.23" mask="url(#h)"/>
        </g>
        <g transform="translate(52 119.661)">
            <mask id="k" fill="#fff">
                <use xlink:href="#i"/>
            </mask>
            <path fill="url(#j)" d="M12.07 1.626l-2.715 3.44-.353.444c-.68.852-1.386 1.688-2.228 2.374-.363.293-.759.572-1.124.874a5.36 5.36 0 0 0-.495.455v.002a3.12 3.12 0 0 0-.442.573 2.378 2.378 0 0 0-.199.42c-.346.965-.022 2.131-.582 2.989-.2.307-.489.532-.792.746-.244.173-.498.341-.72.538-1.033.92-1.302 2.403-1.508 3.769l-.004.023H7.51c.309-.72.609-1.443.905-2.169.998-2.455 1.924-4.942 2.846-7.421 1.014-2.732 2.031-5.462 3.046-8.192a1.036 1.036 0 0 0-.105-.041 1.216 1.216 0 0 0-.35-.054c-.709 0-1.32.644-1.782 1.23" mask="url(#k)"/>
        </g>
        <g transform="translate(56 113.661)">
            <mask id="n" fill="#fff">
                <use xlink:href="#l"/>
            </mask>
            <path fill="url(#m)" d="M1.144 7.293c-.044.256-.079.51-.111.765-.014.131-.029.261-.041.392-.042.39-.069.781-.086 1.173-.051 1.247.001 2.502.094 3.755v.003c.022.304.048.608.074.912.026.307.054.613.081.92v.002l.008.084c.02.222.039.443.061.665.03.336.06.675.087 1.013.203 2.441.308 4.909-.179 7.296h.218c.074-.09.146-.181.217-.273.078-.102.155-.205.23-.308.001-.004.004-.006.008-.011.059-.081.116-.162.172-.245.09-.133.178-.265.266-.401.07-.113.141-.228.209-.343.034-.057.068-.113.1-.17l.096-.17.094-.171.109-.206c.051-.1.102-.2.15-.301a18.673 18.673 0 0 0 .471-1.065.1.1 0 0 1 .01-.023c.045-.112.086-.227.129-.341l.012-.03c.042-.111.081-.224.12-.337l.062-.185v-.002c.065-.195.127-.391.185-.589.585-1.992.849-4.117.957-6.249.024-.447.041-.896.055-1.343.119-3.838-.039-7.663.459-11.476-2.442 1.561-3.832 4.402-4.317 7.259" mask="url(#n)"/>
        </g>
        <path fill="#000" d="M57.001 127.033c.022.307.047.615.072.922l.082.919v.002l.007.085c.022.22.04.442.062.664.03.337.06.675.087 1.013.204 2.44.308 4.909-.179 7.296h.218c.075-.09.145-.181.216-.273a10.742 10.742 0 0 0 .411-.564 13.071 13.071 0 0 0 .475-.744c.033-.056.068-.113.1-.17l.096-.17c.033-.057.063-.114.094-.171.036-.07.072-.137.11-.206a20.963 20.963 0 0 0 .157-.317 14.183 14.183 0 0 0 .463-1.05l.01-.022c.044-.112.086-.227.13-.341l.011-.03a22.752 22.752 0 0 0 .182-.522v-.003c.065-.194.127-.39.184-.588-.668-1.101-1.766-1.813-2.232-3.07-.156-.418-.173-.844-.107-1.274.244-1.643 1.67-3.346 1.071-4.946-.288-.768-.968-1.277-1.688-1.753l-.042.39c-.04.393-.065.783-.083 1.177-.053 1.244 0 2.496.093 3.746" opacity=".1"/>
        <g transform="translate(43 109.661)">
            <mask id="q" fill="#fff">
                <use xlink:href="#o"/>
            </mask>
            <path fill="url(#p)" d="M1.645.542a.933.933 0 0 0-.059.036C.766 1.119.79 2.307.904 3.282l.606 5.163c.178 1.504.355 3.022.198 4.528-.09.887-.294 1.815-.231 2.689v.001c.029.4.113.788.287 1.155.52 1.098 1.77 1.805 2.018 2.994.162.772-.146 1.559-.191 2.346-.095 1.637.924 3.105 1.897 4.425.422.571.854 1.152 1.327 1.69h10.264c.042-.081.078-.163.11-.249.219-.569.274-1.247.226-1.92a7.715 7.715 0 0 0-.386-1.895 3.401 3.401 0 0 0-.224-.516v-.002c-.611-1.159-1.734-1.744-2.494-2.714a3.714 3.714 0 0 1-.405-.633 2.282 2.282 0 0 1-.193-.556c-.159-.762.051-1.582.287-2.407v-.003l.001-.006c.328-1.15.701-2.305.19-3.317a2.308 2.308 0 0 0-.283-.429l-.002-.003c-1.101-1.332-3.561-1.529-4.094-3.219-.402-1.277.588-2.769-.032-3.956-.629-1.203-2.372-1.171-3.468-1.974-.912-.669-1.273-1.837-1.89-2.786C3.957.976 3.124.355 2.337.355c-.239 0-.473.057-.692.187" mask="url(#q)"/>
        </g>
        <g transform="translate(43 109.661)">
            <mask id="t" fill="#fff">
                <use xlink:href="#r"/>
            </mask>
            <path fill="url(#s)" d="M1.645.542a.933.933 0 0 0-.059.036C.766 1.119.79 2.307.904 3.282l.606 5.163c.178 1.504.355 3.022.198 4.528-.09.887-.294 1.815-.231 2.689v.001c.029.4.113.788.287 1.155.52 1.098 1.77 1.805 2.018 2.994.162.772-.146 1.559-.191 2.346-.095 1.637.924 3.105 1.897 4.425.422.571.854 1.152 1.327 1.69h6.79a83.457 83.457 0 0 0-1.465-4.33c-1.749-4.775-3.878-9.435-5.997-14.063L1.827.455a1.317 1.317 0 0 0-.182.087" mask="url(#t)"/>
        </g>
        <g>
            <path fill="#BACDEF" d="M71.037 139.905c0 7.224-7.544 4.989-16.78 4.989-9.239 0-16.67 2.235-16.67-4.99 0-7.223 7.543-8.794 16.78-8.794 9.236 0 16.67 1.57 16.67 8.795"/>
            <path fill="#6ACC92" d="M179.037 66.337v39.939c0 1.66-1.46 2.78-2.77 2.12-5.4-2.7-19.2-6.77-45.7 1.74-30.04 9.65-49.54 6.91-55.09 5.76-.85-.18-1.49-.96-1.61-1.93-.01-.11-.019-.22-.019-.34v-49.08c0-.79.34-1.46.83-1.87.52-.45 1.23-.59 1.91-.27a70.954 70.954 0 0 0 5.68 2.41c11.69 4.4 33.708 9.43 54.11-3.82 9.4-6.1 17.14-7.86 23.32-7.41 11.31.81 17.41 9 18.948 11.37.25.4.391.88.391 1.38"/>
            <path fill="#4CBA7E" d="M182.037 62.337v39.939c0 1.66-1.46 2.78-2.77 2.12-5.4-2.7-19.2-6.77-45.7 1.74-30.04 9.65-49.54 6.91-55.09 5.76-.85-.18-1.49-.96-1.61-1.93-.01-.11-.019-.22-.019-.34v-49.08c0-.79.34-1.46.83-1.87.52-.45 1.23-.59 1.91-.27a70.954 70.954 0 0 0 5.68 2.41c11.69 4.4 33.708 9.43 54.11-3.82 9.4-6.1 17.14-7.86 23.32-7.41 11.31.81 17.41 9 18.948 11.37.25.4.391.88.391 1.38"/>
            <path fill="#6ACC92" d="M147.486 85.79c0 10.813-8.766 19.579-19.579 19.579s-19.579-8.766-19.579-19.58c0-10.812 8.766-19.578 19.58-19.578 10.812 0 19.578 8.766 19.578 19.579"/>
            <path fill="#FFF" d="M123.797 82.366c-.16.21-.369.36-.619.46-.24.1-.521.16-.83.18-.301.02-.591.03-.861.03h-1.799v-3.15h1.99c.269 0 .549.02.84.06.289.04.539.12.759.23.22.11.401.27.55.48.14.2.21.48.21.83 0 .38-.08.67-.24.88zm.42 2.93c.971-.18 1.721-.62 2.221-1.3.509-.68.759-1.51.759-2.49 0-.8-.14-1.48-.42-2.02-.28-.54-.65-.96-1.13-1.28a4.781 4.781 0 0 0-1.66-.69 9.89 9.89 0 0 0-2-.2h-5.34v13.81h3.041v-5.52h1.5l2.889 5.52h3.65l-3.51-5.83zM135.947 88.127c-.41.439-.98.659-1.72.659s-1.32-.22-1.73-.66c-.41-.44-.61-1.02-.61-1.74 0-.71.2-1.29.61-1.73.41-.45.99-.67 1.73-.67s1.31.22 1.72.67c.41.44.62 1.02.62 1.73 0 .72-.21 1.3-.62 1.74m3.21-3.79c-.22-.59-.53-1.11-.94-1.55a4.36 4.36 0 0 0-1.47-1.01 4.974 4.974 0 0 0-1.92-.36c-.34 0-.65.04-.95.13-.3.09-.58.21-.83.35-.26.15-.48.31-.67.48-.18.18-.34.35-.45.52h-.04v-1.25h-2.7v13.93h2.93v-5.46h.04c.34.45.77.78 1.3.96.52.19 1.09.29 1.7.29.68 0 1.29-.14 1.82-.42.53-.28.98-.66 1.35-1.12a5.11 5.11 0 0 0 .86-1.61 6.1 6.1 0 0 0 .31-1.91c0-.71-.11-1.37-.34-1.97M144.717 88.747c-.09-.221-.21-.41-.38-.57a1.712 1.712 0 0 0-.57-.38 1.85 1.85 0 0 0-.7-.141c-.25 0-.49.05-.71.14a1.72 1.72 0 0 0-.57.38c-.16.16-.29.35-.38.57-.09.22-.14.46-.14.71 0 .24.05.48.14.7.09.22.22.41.38.57.16.17.35.29.57.38.22.09.46.14.71.14.24 0 .48-.05.7-.14.22-.09.41-.21.57-.38.17-.16.29-.35.38-.57.1-.22.14-.46.14-.7 0-.25-.04-.49-.14-.71"/>
            <path fill="#6ACC92" d="M206.861 33.593l2.33 11.883c.098.494-.27.912-.7.792-1.764-.488-6.108-.894-13.495 3.184-8.374 4.623-14.335 4.947-16.054 4.928-.264-.004-.499-.199-.592-.48a1.044 1.044 0 0 1-.025-.1l-2.864-14.603a.733.733 0 0 1 .138-.604.522.522 0 0 1 .552-.19 21.9 21.9 0 0 0 1.831.383c3.734.627 10.58.84 15.875-4.293 2.441-2.363 4.642-3.338 6.506-3.565 3.412-.419 5.705 1.662 6.302 2.277.097.105.167.24.196.388"/>
            <path fill="#4CBA7E" d="M207.52 32.228l2.33 11.883c.099.494-.27.912-.7.792-1.763-.488-6.107-.894-13.494 3.184-8.374 4.624-14.335 4.947-16.054 4.928-.264-.004-.5-.198-.592-.48a1.044 1.044 0 0 1-.025-.1l-2.864-14.603a.734.734 0 0 1 .138-.604.522.522 0 0 1 .552-.19c.462.118 1.083.258 1.83.384 3.735.627 10.58.838 15.876-4.294 2.44-2.363 4.642-3.338 6.506-3.565 3.412-.419 5.705 1.662 6.302 2.277.097.105.167.24.196.388"/>
            <path fill="#6ACC92" d="M198.61 41.222a5.936 5.936 0 1 1-11.65 2.284 5.936 5.936 0 0 1 11.65-2.284"/>
            <path fill="#FFF" d="M191.362 41.586a.43.43 0 0 1-.158.173.764.764 0 0 1-.237.1 3.652 3.652 0 0 1-.253.06l-.536.106-.184-.937.593-.116c.08-.016.164-.027.253-.032a.735.735 0 0 1 .24.025.451.451 0 0 1 .191.11c.053.052.09.13.111.235a.434.434 0 0 1-.02.276zm.296.847c.277-.11.475-.285.584-.516.112-.232.14-.494.081-.785a1.341 1.341 0 0 0-.242-.577 1.029 1.029 0 0 0-.41-.315 1.47 1.47 0 0 0-.536-.108 2.995 2.995 0 0 0-.606.057l-1.589.312.806 4.108.904-.177-.322-1.643.446-.087 1.182 1.474 1.086-.213-1.384-1.53zM195.313 42.59c-.096.155-.253.254-.473.298-.22.043-.405.01-.553-.096-.148-.108-.241-.268-.283-.483a.737.737 0 0 1 .08-.55c.096-.157.256-.258.476-.3.22-.044.402-.012.55.1a.736.736 0 0 1 .286.478.741.741 0 0 1-.083.554m.734-1.315a1.39 1.39 0 0 0-.37-.407 1.34 1.34 0 0 0-.496-.215 1.54 1.54 0 0 0-.593.005c-.1.02-.19.05-.274.095a1.192 1.192 0 0 0-.398.334 1.053 1.053 0 0 0-.104.182l-.012.002-.073-.372-.803.157.813 4.143.872-.17-.32-1.624.013-.003a.808.808 0 0 0 .443.21c.166.027.34.023.522-.012.202-.04.376-.117.518-.232.14-.114.253-.253.336-.412a1.54 1.54 0 0 0 .162-.528 1.873 1.873 0 0 0-.02-.588 1.639 1.639 0 0 0-.216-.566M197.958 42.263a.456.456 0 0 0-.146-.147.514.514 0 0 0-.192-.08.603.603 0 0 0-.216-.002.593.593 0 0 0-.204.083.551.551 0 0 0-.226.338.562.562 0 0 0 .228.568.503.503 0 0 0 .192.08.552.552 0 0 0 .567-.229.496.496 0 0 0 .08-.192.492.492 0 0 0 0-.216.513.513 0 0 0-.083-.203"/>
            <path fill="#6ACC92" d="M205.337 85.538l-4.516 4.516c-.187.188-.479.149-.552-.074-.306-.916-1.406-2.935-5.364-4.97-4.487-2.305-6.382-4.82-6.88-5.576-.076-.118-.059-.278.037-.401a.33.33 0 0 1 .036-.041l5.549-5.55a.384.384 0 0 1 .305-.116c.11.008.205.072.246.185.084.238.205.55.37.915.825 1.819 2.746 4.878 6.549 5.685 1.753.373 2.827 1.05 3.475 1.799 1.187 1.37.951 2.986.857 3.428a.409.409 0 0 1-.112.2"/>
            <path fill="#4CBA7E" d="M206.128 85.425l-4.516 4.516c-.187.187-.478.148-.552-.075-.305-.915-1.406-2.935-5.364-4.969-4.487-2.306-6.381-4.82-6.88-5.577-.075-.117-.059-.278.037-.4a.44.44 0 0 1 .036-.042l5.549-5.549a.388.388 0 0 1 .305-.117c.11.008.206.072.246.186.084.237.205.55.37.914.825 1.82 2.746 4.878 6.55 5.686 1.752.373 2.826 1.05 3.474 1.8 1.187 1.37.951 2.984.857 3.427a.41.41 0 0 1-.112.2"/>
            <path fill="#6ACC92" d="M199.57 84.17a3.13 3.13 0 0 1-4.427 0 3.132 3.132 0 0 1 0-4.427 3.13 3.13 0 1 1 4.427 4.428"/>
            <path fill="#FFF" d="M197.28 81.105a.215.215 0 0 1-.123-.019.379.379 0 0 1-.114-.073 1.552 1.552 0 0 1-.1-.094l-.205-.203.356-.356.226.224c.03.032.06.065.088.103a.375.375 0 0 1 .06.111.231.231 0 0 1 .007.117.233.233 0 0 1-.069.118.228.228 0 0 1-.127.072zm-.285.38c.13.088.264.123.398.102a.636.636 0 0 0 .367-.195.696.696 0 0 0 .181-.275.558.558 0 0 0 .018-.274.782.782 0 0 0-.11-.265 1.534 1.534 0 0 0-.204-.248l-.603-.604-1.562 1.561.344.343.624-.624.17.17-.298.951.413.413.262-1.056zM198.002 83.13a.357.357 0 0 1-.27-.12.363.363 0 0 1-.12-.27.396.396 0 0 1 .127-.265.395.395 0 0 1 .265-.127.355.355 0 0 1 .271.12.357.357 0 0 1 .12.27.39.39 0 0 1-.126.266.391.391 0 0 1-.267.125m.791-.064a.688.688 0 0 0 .017-.562.786.786 0 0 0-.176-.259.556.556 0 0 0-.256-.147.51.51 0 0 0-.239-.013l-.005-.005.141-.14-.305-.305-1.575 1.574.332.332.617-.619.004.006a.432.432 0 0 0 .04.255.78.78 0 0 0 .158.224.627.627 0 0 0 .532.185.82.82 0 0 0 .28-.084.96.96 0 0 0 .435-.443M198.923 84.192a.25.25 0 0 0 .021-.107.267.267 0 0 0-.021-.108.32.32 0 0 0-.063-.096.316.316 0 0 0-.096-.064.27.27 0 0 0-.108-.021.269.269 0 0 0-.107.021.316.316 0 0 0-.096.064.302.302 0 0 0-.085.204.25.25 0 0 0 .022.107.297.297 0 0 0 .266.181.252.252 0 0 0 .108-.022.289.289 0 0 0 .159-.159"/>
            <path fill="#6ACC92" d="M205.143 104.341l-1.047 6.3c-.043.263-.303.4-.492.263-.781-.569-2.851-1.572-7.254-.924-4.991.733-7.995-.21-8.84-.535-.13-.051-.21-.191-.203-.347a.561.561 0 0 1 .005-.055l1.287-7.742a.39.39 0 0 1 .18-.272.277.277 0 0 1 .308.007c.206.144.487.329.833.53 1.729 1 5.07 2.37 8.635.814 1.643-.715 2.909-.79 3.872-.556 1.763.424 2.51 1.876 2.69 2.29a.41.41 0 0 1 .026.227"/>
            <path fill="#4CBA7E" d="M205.72 103.79l-1.046 6.299c-.044.262-.303.4-.492.262-.781-.568-2.852-1.571-7.254-.923-4.991.734-7.995-.21-8.84-.536-.13-.051-.21-.191-.204-.347l.006-.054 1.287-7.741a.386.386 0 0 1 .18-.273.275.275 0 0 1 .308.007c.206.145.487.328.833.529 1.728 1 5.07 2.37 8.634.816 1.643-.716 2.91-.79 3.873-.558 1.763.425 2.51 1.876 2.69 2.29.03.07.04.15.026.229"/>
            <path fill="#6ACC92" d="M199.656 106.583a3.13 3.13 0 1 1-6.176-1.027 3.13 3.13 0 0 1 6.176 1.027"/>
            <path fill="#FFF" d="M196.01 105.421a.23.23 0 0 1-.11.057.433.433 0 0 1-.135.007 1.378 1.378 0 0 1-.137-.019l-.284-.046.083-.498.313.053a.919.919 0 0 1 .13.032.386.386 0 0 1 .116.056.24.24 0 0 1 .074.09c.016.035.02.081.01.136a.22.22 0 0 1-.06.132zm-.011.474a.546.546 0 0 0 .385-.147.647.647 0 0 0 .185-.373.715.715 0 0 0-.013-.33.533.533 0 0 0-.145-.23.768.768 0 0 0-.244-.153 1.579 1.579 0 0 0-.31-.085l-.842-.138-.362 2.177.479.08.145-.871.237.038.31.948.577.096-.402-1.011zM197.775 106.65c-.076.058-.172.077-.288.058a.363.363 0 0 1-.255-.15.386.386 0 0 1-.052-.29.394.394 0 0 1 .142-.257.353.353 0 0 1 .29-.06.353.353 0 0 1 .255.15c.053.08.07.178.053.29a.4.4 0 0 1-.144.258m.605-.514a.738.738 0 0 0-.107-.269.693.693 0 0 0-.207-.197.79.79 0 0 0-.293-.108.528.528 0 0 0-.292.03.53.53 0 0 0-.203.128l-.007-.002.032-.197-.424-.07-.367 2.197.463.076.143-.86h.006c.042.08.101.143.18.185a.785.785 0 0 0 .26.091.616.616 0 0 0 .542-.16.833.833 0 0 0 .178-.23.973.973 0 0 0 .096-.614M199.143 106.976a.26.26 0 0 0-.045-.1.302.302 0 0 0-.08-.075.307.307 0 0 0-.223-.037.281.281 0 0 0-.1.046.247.247 0 0 0-.074.08.295.295 0 0 0 .007.321.263.263 0 0 0 .08.076.32.32 0 0 0 .109.041.335.335 0 0 0 .114-.004.275.275 0 0 0 .175-.125.284.284 0 0 0 .04-.107.266.266 0 0 0-.003-.116"/>
            <path fill="#2F2E41" d="M107.882 27.839a3.93 3.93 0 0 1-.43.1c-.43.069-.876.055-1.305.124-.401.064-.807.157-1.204.243a11.87 11.87 0 0 0-2.753.932c-.132.066-.288.188-.431.223-.594.322-1.291.173-1.831-.234a1.008 1.008 0 0 0-.366-.18c-.591-.148-1.201.103-1.76.35l-1.586.699c-1.165.514-2.438-.45-2.271-1.713.248-1.856.85-3.691 2.092-4.866 1.876-1.776 5.224-1.942 7.706-1.228 2.483.713 5.154 2.648 5.294 5.227-.002.1-.285.115-.35.123-.273.035-.537.124-.805.2"/>
            <path fill="#FBBEBE" d="M91.037 64.516a1 1 0 0 1-1-1v-2a1 1 0 1 1 2 0v2a1 1 0 0 1-1 1M89.037 64.516a1 1 0 0 1-1-1v-2a1 1 0 1 1 2 0v2a1 1 0 0 1-1 1M87.037 64.516a1 1 0 0 1-1-1v-2a1 1 0 1 1 2 0v2a1 1 0 0 1-1 1M117 116a1 1 0 0 1-1-1v-2a1 1 0 1 1 2 0v2a1 1 0 0 1-1 1M115 116a1 1 0 0 1-1-1v-2a1 1 0 1 1 2 0v2a1 1 0 0 1-1 1M113 116a1 1 0 0 1-1-1v-2a1 1 0 1 1 2 0v2a1 1 0 0 1-1 1"/>
        </g>
    </g>
</svg>
