<svg xmlns="http://www.w3.org/2000/svg" xmlns:xlink="http://www.w3.org/1999/xlink" width="282" height="147" viewBox="0 0 282 147">
    <defs>
        <path id="a" d="M0 48.275l218 3.2s-15.855-7.2-53.113-41.6C157.765 3.3 147.351.641 135.146.642 83.507.65 0 48.275 0 48.275"/>
        <path id="b" d="M.073 49.189C5.562 44.449 320 52.48 320 52.48s-93.465-11.866-186.62-43.77C116.578 2.959 101.506.6 88.074.602 28.858.603 1.648 46.444.073 49.188M0 49.317l.073-.128c-.048.042-.073.084-.073.128"/>
        <path id="c" d="M.413 8.124c0 4.231 43.468 7.662 97.09 7.662 53.621 0 97.091-3.43 97.091-7.662 0-4.232-43.47-7.663-97.09-7.663C43.88.461.412 3.891.412 8.124"/>
        <linearGradient id="d" x1="50%" x2="50%" y1="-.002%" y2="100%">
            <stop offset="0%" stop-color="#E1E9F9"/>
            <stop offset="100%" stop-color="#E1E9F9"/>
        </linearGradient>
        <path id="f" d="M.076 24.468h45.715C45.79 11.205 35.557.453 22.934.453 10.31.453.076 11.205.076 24.468"/>
        <path id="g" d="M5.966 12.191c1.229 1.922 2.733 3.883 4.475 5.525l.01.011c.167.159.339.315.512.467.145.129.291.254.437.376.058.05.115.098.173.144h3.471l-.057-.137a13.912 13.912 0 0 1-.093-.215l-.009-.023c-.076-.176-.156-.351-.233-.527-.072-.16-.145-.319-.22-.478a7.986 7.986 0 0 0-.132-.282c-.061-.132-.125-.264-.187-.395a54.66 54.66 0 0 0-.27-.542c-.08-.159-.163-.319-.247-.479a23.452 23.452 0 0 0-.325-.614 21.854 21.854 0 0 0-.297-.542c-.087-.158-.176-.313-.265-.47l-.072-.123a28.24 28.24 0 0 0-.28-.476c-.095-.16-.192-.32-.288-.479-.019-.028-.036-.057-.053-.085a35.344 35.344 0 0 0-.642-1.007 36.62 36.62 0 0 0-1.047-1.526c-.12-.168-.241-.334-.363-.5a59.81 59.81 0 0 0-.36-.479l-.026-.034a41.43 41.43 0 0 0-1.137-1.43c-.25-.301-.505-.599-.764-.895-.13-.146-.26-.294-.391-.439a39.13 39.13 0 0 0-.397-.435c-.091-.099-.184-.197-.277-.295-.005-.006-.009-.009-.011-.014l-.269-.278-.118-.126-.013-.013c-.08-.082-.162-.166-.244-.247l-.246-.247-.096-.096c-.03-.034-.063-.065-.095-.096A42.45 42.45 0 0 0 .15.191c2.747 3.674 3.345 8.137 5.816 12"/>
        <linearGradient id="h" x1="100.003%" x2=".003%" y1="49.999%" y2="49.999%">
            <stop offset="0%" stop-color="#4BBA7E"/>
            <stop offset="100%" stop-color="#23E877"/>
        </linearGradient>
        <path id="j" d="M11.483 2.066c-.905 1.147-1.809 2.294-2.715 3.44l-.353.444c-.679.852-1.386 1.688-2.228 2.374-.363.293-.759.572-1.123.874a5.515 5.515 0 0 0-.495.455v.002a3.125 3.125 0 0 0-.443.573 2.355 2.355 0 0 0-.199.421c-.346.964-.022 2.13-.581 2.988-.201.308-.49.532-.792.747-.245.173-.499.34-.72.538C.8 15.841.531 17.324.325 18.69l-.003.024h9.835c1.04-.698 2.441-1.135 2.827-2.305.514-1.56-1.195-3.329-.435-4.787.523-1.001 2-1.299 2.339-2.377.344-1.091-.716-2.113-.89-3.243-.145-.943.337-1.855.534-2.788.189-.895-.071-2.062-.917-2.324a1.206 1.206 0 0 0-.349-.054c-.709 0-1.321.644-1.783 1.23"/>
        <linearGradient id="k" x1="100%" x2="-.002%" y1="49.999%" y2="49.999%">
            <stop offset="0%" stop-color="#4BBA7E"/>
            <stop offset="100%" stop-color="#23E877"/>
        </linearGradient>
        <path id="m" d="M11.483 2.066c-.905 1.147-1.809 2.294-2.715 3.44l-.353.444c-.679.852-1.386 1.688-2.228 2.374-.363.293-.759.572-1.123.874a5.515 5.515 0 0 0-.495.455v.002a3.125 3.125 0 0 0-.443.573 2.355 2.355 0 0 0-.199.421c-.346.964-.022 2.13-.581 2.988-.201.308-.49.532-.792.747-.245.173-.499.34-.72.538C.8 15.841.531 17.324.325 18.69l-.003.024h6.601c.31-.72.609-1.444.906-2.169.998-2.456 1.923-4.943 2.845-7.421L13.72.931c-.033-.015-.069-.028-.105-.041a1.206 1.206 0 0 0-.349-.054c-.709 0-1.321.644-1.783 1.23"/>
        <linearGradient id="n" x1="99.999%" x2="-.002%" y1="49.999%" y2="49.999%">
            <stop offset="0%" stop-color="#4BBA7E"/>
            <stop offset="100%" stop-color="#23E877"/>
        </linearGradient>
        <path id="p" d="M.557 7.733a20.73 20.73 0 0 0-.111.765c-.014.132-.029.261-.041.393-.042.39-.068.781-.086 1.172-.051 1.247.001 2.502.094 3.755v.003c.023.305.049.608.074.913.026.306.054.612.082.919v.002l.006.085c.022.222.04.442.062.664.03.336.06.675.086 1.013.205 2.441.309 4.909-.178 7.297h.218c.075-.09.145-.182.217-.274.077-.102.156-.205.23-.308l.008-.011a17.491 17.491 0 0 0 .438-.646c.07-.113.141-.228.21-.343.033-.056.067-.113.099-.17l.097-.169.093-.172.109-.206c.052-.1.101-.2.151-.3l.007-.017c.115-.233.223-.47.325-.71.047-.112.093-.226.138-.339l.01-.023c.044-.112.087-.227.13-.341.003-.011.008-.02.011-.029.041-.112.082-.225.12-.338l.062-.185v-.002c.065-.195.127-.391.185-.589.585-1.991.849-4.116.957-6.248.024-.448.041-.897.055-1.344.119-3.838-.038-7.662.459-11.476C2.433 2.035 1.042 4.876.557 7.733"/>
        <linearGradient id="q" x1="99.998%" x2=".002%" y1="50%" y2="50%">
            <stop offset="0%" stop-color="#4BBA7E"/>
            <stop offset="100%" stop-color="#23E877"/>
        </linearGradient>
        <path id="s" d="M1.721.796a1.326 1.326 0 0 0-.662.186 1.19 1.19 0 0 0-.06.036c-.821.541-.796 1.73-.683 2.704.204 1.722.406 3.444.608 5.164.177 1.504.354 3.021.198 4.528-.091.886-.295 1.814-.233 2.688v.002c.03.399.114.787.288 1.154.52 1.098 1.77 1.805 2.018 2.994.162.772-.146 1.559-.19 2.346-.096 1.637.923 3.105 1.897 4.425.421.571.854 1.152 1.325 1.691H16.493c.041-.081.077-.164.11-.25.218-.569.273-1.246.226-1.919a7.77 7.77 0 0 0-.387-1.896 3.304 3.304 0 0 0-.224-.516v-.002c-.612-1.158-1.734-1.744-2.495-2.714a3.795 3.795 0 0 1-.404-.633 2.31 2.31 0 0 1-.193-.556c-.159-.762.051-1.582.287-2.407v-.003l.001-.006c.328-1.149.7-2.304.191-3.317a2.364 2.364 0 0 0-.284-.429l-.002-.003c-1.101-1.332-3.561-1.528-4.095-3.219-.402-1.277.589-2.768-.031-3.955-.628-1.204-2.372-1.172-3.468-1.975-.911-.669-1.272-1.837-1.89-2.786C3.377 1.425 2.558.811 1.781.796h-.06z"/>
        <linearGradient id="t" x1="49.999%" x2="49.999%" y1="-.002%" y2="99.999%">
            <stop offset="0%" stop-color="#4BBA7E"/>
            <stop offset="100%" stop-color="#23E877"/>
        </linearGradient>
        <path id="v" d="M1.059.982a1.19 1.19 0 0 0-.06.036c-.821.541-.796 1.73-.683 2.704.204 1.722.406 3.444.608 5.164.177 1.504.354 3.021.198 4.528-.091.886-.295 1.814-.233 2.688v.002c.03.399.114.787.288 1.154.52 1.098 1.77 1.805 2.018 2.994.162.772-.146 1.559-.19 2.346-.096 1.637.923 3.105 1.897 4.425.421.571.854 1.152 1.325 1.691h6.791a83.126 83.126 0 0 0-1.464-4.33c-1.75-4.776-3.879-9.436-5.998-14.064L1.24.895a1.367 1.367 0 0 0-.181.087"/>
        <linearGradient id="w" x1="99.996%" x2=".002%" y1="49.999%" y2="49.999%">
            <stop offset="0%" stop-color="#4BBA7E"/>
            <stop offset="100%" stop-color="#23E877"/>
        </linearGradient>
        <path id="y" d="M0 .89h33.45V15H0z"/>
        <path id="A" d="M.55.381h19.915v22.554H.55z"/>
        <path id="C" d="M5.843 11.906L.205.348c0 6.388 2.521 11.558 5.638 11.558"/>
    </defs>
    <g fill="none" fill-rule="evenodd">
        <path fill="#4285F4" d="M60.864 1.19c-9.315.832-19.124 4.582-26.841 8.565C17.39 18.34 5.143 31.8 1.565 46.188c-1.617 6.5-.801 14.196 6.56 17.538 7.853 3.564 19.108.37 27.655 3.037 9.617 3 12.147 12.398 9.393 20.104-2.753 7.706-9.328 14.518-13.713 21.884-4.383 7.365-6.283 16.382.012 22.414 3.662 3.509 9.61 5.43 15.718 6.067 12.623 1.317 25.394-2.317 37.728-4.618 14.143-2.64 27.714-2.845 41.856-1.693 28.602 2.33 54.897 5.734 83.29-2.573 21.145-6.185 39.36-18.825 32.178-36.102-3.003-7.224-7.43-15.237-1.644-22.778 3.608-4.702 9.843-8.022 14.784-12.06 12.24-10 4.587-18.472-5.774-25.86-16.775-11.958-22.98-24.303-49.982-22.534-21.187 1.387-40.01-4.302-60.12-6.736C126.46.698 113.06.513 99.715.608c-12.66.091-25.863-.476-38.497.553l-.354.03" opacity=".1"/>
        <g transform="translate(43 117)">
            <mask id="e" fill="#fff">
                <use xlink:href="#c"/>
            </mask>
            <path fill="url(#d)" d="M.413 8.124c0 4.231 43.468 7.662 97.09 7.662 53.621 0 97.091-3.43 97.091-7.662 0-4.232-43.47-7.663-97.09-7.663C43.88.461.412 3.891.412 8.124" mask="url(#e)" opacity=".4"/>
        </g>
        <path fill="#B7C54C" d="M71.178 114.04c-4.157 0-7.527 3.378-7.527 7.544h15.054c0-4.166-3.37-7.544-7.527-7.544"/>
        <path fill="#BACDEF" d="M92.68 120.16h112.403V66.356H92.68z"/>
        <path fill="#BACDEF" d="M169.912 108.427h23.185v-30.34h-23.185z"/>
        <path fill="#A3B5DE" d="M194.573 76.609H168.436v33.297H194.573V76.609zm-24.66 31.818h23.185v-30.34h-23.186v30.34z"/>
        <path fill="#000" fill-opacity=".05" d="M191.422 78.088l-21.506 21.569V86.93l8.835-8.843zM193.098 79.537v6.043l-22.794 22.848h-.392v-5.651z"/>
        <path fill="#BACDEF" d="M141.538 108.427h23.186v-30.34h-23.186z"/>
        <path fill="#A3B5DE" d="M166.199 76.609H140.062v33.297H166.2V76.609zm-24.66 31.818h23.185v-30.34h-23.186v30.34z"/>
        <path fill="#000" fill-opacity=".05" d="M163.048 78.088l-21.506 21.569V86.93l8.835-8.843zM164.724 79.537v6.043l-22.794 22.848h-.392v-5.651z"/>
        <path fill="#BACDEF" d="M120.859 113.553h14.649V85.76h-14.649z"/>
        <path fill="#A3B5DE" d="M136.984 84.282h-17.601v30.751H136.984V84.281zm-16.125 29.271h14.65V85.76h-14.65v27.793z"/>
        <path fill="#BACDEF" d="M120.859 113.553h13.934V86.477H120.86z"/>
        <path fill="#000" d="M123.002 82.646h9.649v-1.241H123z" opacity=".05"/>
        <path fill="#FFF" d="M115.818 103.216h64.79v-1.848h-64.79z"/>
        <path fill="#BACDEF" d="M148.881 50.844l-57.404 16.34h114.808z"/>
        <path fill="#BACDEF" d="M107.369 64.967h83.023L148.881 53.15l-41.512 11.817zm98.916 4.435H91.477a2.22 2.22 0 0 1-.604-4.352l57.404-16.34a2.202 2.202 0 0 1 1.208 0l57.405 16.34a2.218 2.218 0 0 1 1.586 2.44 2.214 2.214 0 0 1-2.191 1.912z"/>
        <path fill="#FFF" d="M119.937 114.329h1.844v-12.037h-1.844zM130.694 114.329h1.844v-12.037h-1.844zM141.451 114.329h1.844v-12.037h-1.844zM152.208 114.329h1.844v-12.037h-1.844zM162.965 114.329h1.844v-12.037h-1.844zM173.722 114.329h1.844v-12.037h-1.844z"/>
        <path fill="#3D94D6" d="M115.818 121.584h64.79v-7.255h-64.79z"/>
        <path fill="#3D94D6" d="M171.787 121.584h12.632v-3.627h-12.632z"/>
        <path fill="#FFF" d="M115.821 75.549v49.079h-61.01v-49.08l30.5-14.786z"/>
        <path fill="#000" fill-opacity=".1" d="M65.257 83.982l-.903 27.807 39.652-.906V83.982z"/>
        <path fill="#BACDEF" d="M67.44 107.377h35.752v-22.76H67.44z"/>
        <path fill="#A3B5DE" d="M104.668 83.139H65.966v25.716H104.668V83.138zM67.44 107.377h35.752V84.618H67.441v22.76z"/>
        <path fill="#000" fill-opacity=".05" d="M85.215 84.618L67.44 102.445v-11.72l6.106-6.107zM93.634 84.618L70.94 107.377H67.44v-2.059l20.663-20.7z"/>
        <g transform="translate(186 102.204)">
            <mask id="i" fill="#fff">
                <use xlink:href="#g"/>
            </mask>
            <path fill="url(#h)" d="M5.966 12.191c1.229 1.922 2.733 3.883 4.475 5.525l.01.011c.167.159.339.315.512.467.145.129.291.254.437.376.058.05.115.098.173.144h3.471l-.057-.137a13.912 13.912 0 0 1-.093-.215l-.009-.023c-.076-.176-.156-.351-.233-.527-.072-.16-.145-.319-.22-.478a7.986 7.986 0 0 0-.132-.282c-.061-.132-.125-.264-.187-.395a54.66 54.66 0 0 0-.27-.542c-.08-.159-.163-.319-.247-.479a23.452 23.452 0 0 0-.325-.614 21.854 21.854 0 0 0-.297-.542c-.087-.158-.176-.313-.265-.47l-.072-.123a28.24 28.24 0 0 0-.28-.476c-.095-.16-.192-.32-.288-.479-.019-.028-.036-.057-.053-.085a35.344 35.344 0 0 0-.642-1.007 36.62 36.62 0 0 0-1.047-1.526c-.12-.168-.241-.334-.363-.5a59.81 59.81 0 0 0-.36-.479l-.026-.034a41.43 41.43 0 0 0-1.137-1.43c-.25-.301-.505-.599-.764-.895-.13-.146-.26-.294-.391-.439a39.13 39.13 0 0 0-.397-.435c-.091-.099-.184-.197-.277-.295-.005-.006-.009-.009-.011-.014l-.269-.278-.118-.126-.013-.013c-.08-.082-.162-.166-.244-.247l-.246-.247-.096-.096c-.03-.034-.063-.065-.095-.096A42.45 42.45 0 0 0 .15.191c2.747 3.674 3.345 8.137 5.816 12" mask="url(#i)"/>
        </g>
        <path fill="#000" d="M191.49 109.112c.011.163.028.322.056.48.04.236.098.465.185.687.057.148.126.293.21.433.116.195.257.375.41.545.104.113.213.223.324.33.083.08.167.157.251.234.228.211.457.42.663.642.283.305.522.636.646 1.036.029.094.052.19.068.285.016.096.026.192.033.29a6.44 6.44 0 0 1-.03.886c-.006.1-.015.2-.022.298a5.625 5.625 0 0 0-.016.594c.012.308.06.606.143.894.134.481.354.937.625 1.375a9.456 9.456 0 0 0 .487.701c.029.04.059.076.088.115.104.133.21.265.318.395l.239.28.273.31c.003.003.007.005.01.01.168.158.34.315.513.466.144.13.29.254.437.376l.175.144h3.468a3.975 3.975 0 0 1-.057-.137l-.093-.215-.008-.022c-.077-.177-.156-.352-.234-.528-.071-.16-.144-.319-.22-.478a8.99 8.99 0 0 0-.131-.28c-.062-.134-.125-.265-.188-.397l-.27-.542a43.996 43.996 0 0 0-.247-.479 1.365 1.365 0 0 0-.046-.094 36.466 36.466 0 0 0-.278-.52 23.818 23.818 0 0 0-.297-.542 70.99 70.99 0 0 0-.265-.469c-.025-.04-.048-.082-.073-.124a86.864 86.864 0 0 0-.568-.955l-.053-.085c-.1-.163-.203-.326-.305-.488-.112-.174-.223-.347-.336-.518a41.636 41.636 0 0 0-1.047-1.527c-.12-.168-.241-.334-.363-.5l-.361-.479c-.01-.012-.017-.024-.026-.034a42.376 42.376 0 0 0-1.9-2.325c-.13-.146-.26-.294-.391-.439l-.397-.433a534.496 534.496 0 0 0-.29-.31l-.385-.405-.013-.013c-.08-.082-.162-.166-.244-.247a13.83 13.83 0 0 0-.342-.343c-.031-.034-.064-.065-.096-.096-.006.73-.083 1.492-.03 2.218" opacity=".1"/>
        <g transform="translate(201 102.204)">
            <mask id="l" fill="#fff">
                <use xlink:href="#j"/>
            </mask>
            <path fill="url(#k)" d="M11.483 2.066c-.905 1.147-1.809 2.294-2.715 3.44l-.353.444c-.679.852-1.386 1.688-2.228 2.374-.363.293-.759.572-1.123.874a5.515 5.515 0 0 0-.495.455v.002a3.125 3.125 0 0 0-.443.573 2.355 2.355 0 0 0-.199.421c-.346.964-.022 2.13-.581 2.988-.201.308-.49.532-.792.747-.245.173-.499.34-.72.538C.8 15.841.531 17.324.325 18.69l-.003.024h9.835c1.04-.698 2.441-1.135 2.827-2.305.514-1.56-1.195-3.329-.435-4.787.523-1.001 2-1.299 2.339-2.377.344-1.091-.716-2.113-.89-3.243-.145-.943.337-1.855.534-2.788.189-.895-.071-2.062-.917-2.324a1.206 1.206 0 0 0-.349-.054c-.709 0-1.321.644-1.783 1.23" mask="url(#l)"/>
        </g>
        <g transform="translate(201 102.204)">
            <mask id="o" fill="#fff">
                <use xlink:href="#m"/>
            </mask>
            <path fill="url(#n)" d="M11.483 2.066c-.905 1.147-1.809 2.294-2.715 3.44l-.353.444c-.679.852-1.386 1.688-2.228 2.374-.363.293-.759.572-1.123.874a5.515 5.515 0 0 0-.495.455v.002a3.125 3.125 0 0 0-.443.573 2.355 2.355 0 0 0-.199.421c-.346.964-.022 2.13-.581 2.988-.201.308-.49.532-.792.747-.245.173-.499.34-.72.538C.8 15.841.531 17.324.325 18.69l-.003.024h6.601c.31-.72.609-1.444.906-2.169.998-2.456 1.923-4.943 2.845-7.421L13.72.931c-.033-.015-.069-.028-.105-.041a1.206 1.206 0 0 0-.349-.054c-.709 0-1.321.644-1.783 1.23" mask="url(#o)"/>
        </g>
        <g transform="translate(205 96.204)">
            <mask id="r" fill="#fff">
                <use xlink:href="#p"/>
            </mask>
            <path fill="url(#q)" d="M.557 7.733a20.73 20.73 0 0 0-.111.765c-.014.132-.029.261-.041.393-.042.39-.068.781-.086 1.172-.051 1.247.001 2.502.094 3.755v.003c.023.305.049.608.074.913.026.306.054.612.082.919v.002l.006.085c.022.222.04.442.062.664.03.336.06.675.086 1.013.205 2.441.309 4.909-.178 7.297h.218c.075-.09.145-.182.217-.274.077-.102.156-.205.23-.308l.008-.011a17.491 17.491 0 0 0 .438-.646c.07-.113.141-.228.21-.343.033-.056.067-.113.099-.17l.097-.169.093-.172.109-.206c.052-.1.101-.2.151-.3l.007-.017c.115-.233.223-.47.325-.71.047-.112.093-.226.138-.339l.01-.023c.044-.112.087-.227.13-.341.003-.011.008-.02.011-.029.041-.112.082-.225.12-.338l.062-.185v-.002c.065-.195.127-.391.185-.589.585-1.991.849-4.116.957-6.248.024-.448.041-.897.055-1.344.119-3.838-.038-7.662.459-11.476C2.433 2.035 1.042 4.876.557 7.733" mask="url(#r)"/>
        </g>
        <path fill="#000" d="M205.414 110.017c.022.307.047.615.072.922l.082.919v.001l.007.086c.022.22.04.442.062.664.03.337.06.675.087 1.013.204 2.44.308 4.909-.179 7.296h.218c.075-.09.145-.181.216-.273a10.742 10.742 0 0 0 .411-.564 13.071 13.071 0 0 0 .475-.744c.033-.056.068-.113.1-.17l.096-.17c.033-.057.063-.114.094-.171.036-.07.072-.137.11-.206l.15-.3.007-.017a14.183 14.183 0 0 0 .463-1.05l.01-.022c.044-.112.086-.227.13-.341l.011-.03a22.752 22.752 0 0 0 .182-.522v-.003c.065-.194.127-.39.184-.588-.668-1.101-1.766-1.813-2.232-3.07-.156-.418-.173-.844-.107-1.274.244-1.643 1.67-3.346 1.071-4.946-.288-.768-.968-1.277-1.688-1.753l-.042.39c-.04.393-.065.783-.083 1.177-.053 1.244 0 2.496.093 3.746" opacity=".1"/>
        <g transform="translate(192 92.204)">
            <mask id="u" fill="#fff">
                <use xlink:href="#s"/>
            </mask>
            <path fill="url(#t)" d="M1.721.796a1.326 1.326 0 0 0-.662.186 1.19 1.19 0 0 0-.06.036c-.821.541-.796 1.73-.683 2.704.204 1.722.406 3.444.608 5.164.177 1.504.354 3.021.198 4.528-.091.886-.295 1.814-.233 2.688v.002c.03.399.114.787.288 1.154.52 1.098 1.77 1.805 2.018 2.994.162.772-.146 1.559-.19 2.346-.096 1.637.923 3.105 1.897 4.425.421.571.854 1.152 1.325 1.691H16.493c.041-.081.077-.164.11-.25.218-.569.273-1.246.226-1.919a7.77 7.77 0 0 0-.387-1.896 3.304 3.304 0 0 0-.224-.516v-.002c-.612-1.158-1.734-1.744-2.495-2.714a3.795 3.795 0 0 1-.404-.633 2.31 2.31 0 0 1-.193-.556c-.159-.762.051-1.582.287-2.407v-.003l.001-.006c.328-1.149.7-2.304.191-3.317a2.364 2.364 0 0 0-.284-.429l-.002-.003c-1.101-1.332-3.561-1.528-4.095-3.219-.402-1.277.589-2.768-.031-3.955-.628-1.204-2.372-1.172-3.468-1.975-.911-.669-1.272-1.837-1.89-2.786C3.377 1.425 2.558.811 1.781.796h-.06z" mask="url(#u)"/>
        </g>
        <g transform="translate(192 92.204)">
            <mask id="x" fill="#fff">
                <use xlink:href="#v"/>
            </mask>
            <path fill="url(#w)" d="M1.059.982a1.19 1.19 0 0 0-.06.036c-.821.541-.796 1.73-.683 2.704.204 1.722.406 3.444.608 5.164.177 1.504.354 3.021.198 4.528-.091.886-.295 1.814-.233 2.688v.002c.03.399.114.787.288 1.154.52 1.098 1.77 1.805 2.018 2.994.162.772-.146 1.559-.19 2.346-.096 1.637.923 3.105 1.897 4.425.421.571.854 1.152 1.325 1.691h6.791a83.126 83.126 0 0 0-1.464-4.33c-1.75-4.776-3.879-9.436-5.998-14.064L1.24.895a1.367 1.367 0 0 0-.181.087" mask="url(#x)"/>
        </g>
        <g transform="translate(186 113.204)">
            <mask id="z" fill="#fff">
                <use xlink:href="#y"/>
            </mask>
            <path fill="#BACDEF" d="M33.45 9.684c0 7.224-7.544 4.99-16.78 4.99C7.43 14.673 0 16.907 0 9.683S7.543.89 16.78.89c9.236 0 16.67 1.571 16.67 8.795" mask="url(#z)"/>
        </g>
        <path fill="#000" fill-opacity=".1" d="M115.821 75.549v1.863l-61.01 3.55v-5.413l30.5-14.787z" opacity=".1"/>
        <path fill="#CCCBCA" d="M133.306 100.525h-2.643a.37.37 0 0 1 0-.74h2.643a.37.37 0 1 1 0 .74"/>
        <path fill="#A3B5DE" d="M133.583 100.247h-2.644a.369.369 0 0 1-.368-.37c0-.205.165-.37.368-.37h2.644a.37.37 0 0 1 0 .74"/>
        <path fill="#3D94D6" d="M118.876 79.253c-.323 0-.651-.072-.963-.222L85.315 63.228l-32.6 15.803A2.21 2.21 0 0 1 49.76 78a2.22 2.22 0 0 1 1.028-2.963l33.563-16.27a2.208 2.208 0 0 1 1.928 0l33.562 16.27c1.1.533 1.56 1.86 1.028 2.963a2.214 2.214 0 0 1-1.993 1.253"/>
        <path fill="#000" d="M59.093 115.029h9.649v-2.485h-9.65zM63.917 117.956h9.65v-2.484h-9.65zM95.882 115.57h9.649v-2.484h-9.65z" opacity=".05"/>
        <path fill="#3D94D6" d="M54.811 124.628h61.007v-4.037H54.811z"/>
        <g>
            <path fill="#FBBEBE" d="M26.982 144.647c-.087-.384-.601-1.092-.648-2.755-.184-6.476-.201-20.729-.338-24.892l-4.125 1.589s2.243 22.29 1.375 24.869c-.016.048-.037.096-.056.144-.26.382-4.957 2.697-4.081 3.143 1.403.713 7.86-.113 7.89-1.923a.692.692 0 0 0-.017-.175M28.018 144.647c.088-.384.6-1.092.648-2.755.184-6.476.201-20.729.337-24.892l4.126 1.589s-2.243 22.29-1.375 24.869c.016.048.036.096.056.144.26.382 4.957 2.697 4.081 3.143-1.402.713-7.86-.113-7.89-1.923a.69.69 0 0 1 .017-.175M29.466 66l-4.708.046c-.076 2.645-.494 6.135-2.758 6.226C22.272 75.91 27.337 78 27.337 78s3.458-1.325 4.663-6.045c-2.082 0-2.55-3.586-2.534-5.955"/>
            <path fill="#FC6681" d="M30.6 71c4.696 5.79 1.283 14.577-.045 16.468-5.36 3.46-8.383-.023-8.383-.023-1.382-5.077-4.502-12.872.825-16.353 1.02 2.827 2.232 3.864 3.213 4.3a1.58 1.58 0 0 0 1.5-.118c1.347-.876 2.273-2.913 2.89-4.274"/>
            <path fill="#3F3D56" d="M22.462 87.228c-2.512 2.68-3.151 21.313-1.69 31.13 1.552 2.318 11.542 2.057 12.88 0 .203-6.899 1.405-22.12-2.284-31.358-3.73.565-5.207.91-8.906.228"/>
            <path fill="#FC6681" d="M26.58 143c-.327.072-1.83.812-3.072 1.101-.224.052-.618.1-.958.1-.641-.002-1.091-.18.063-.863.152-.09.29-.173.499-.313-1.15.404-3.428 1.615-4.056 2.434-.1.131-.043.395-.007.508.054.013.144.016.202.018 1.025.033 3.479.004 3.695-.017.42-.036 3.924-.88 4.053-1.076.016-.59-.108-1.668-.418-1.892M28.42 143c.327.072 1.83.812 3.072 1.101.218.05.61.1.958.1.641-.002 1.091-.18-.063-.863-.152-.09-.29-.173-.499-.313 1.15.404 3.428 1.615 4.056 2.434.1.131.043.395.007.508a1.254 1.254 0 0 1-.202.018c-1.025.033-3.48.004-3.696-.017-.419-.036-3.922-.882-4.052-1.078-.016-.591.108-1.666.418-1.89M31 75.48c.065-.508.177-3.447.684-3.48.646-.04 1.624 1.37 1.755 2.647.332 3.243.817 7.21 1.147 9.21.047.28 1.23 4.52-.628 4.116-2.27-.848-2.912-4.814-2.958-12.492"/>
            <path fill="#FBBEBE" d="M44.924 76.774c-.016-.45-.053-.654-.191-.796-.304-.308-.108-.418-.693-.618-.125-.05-.531-.953-1.062-.357-.3.333-.55 1.124-.91 1.496-.58.583-1.068 1.349-.158 2.006.62.447 1.11.354 1.206.321 0 0 1.807-1.164 1.808-2.052"/>
            <path fill="#FC6681" d="M42.982 78.727c.23-1.171-1.785-1.727-1.785-1.727-1.918 2.107-10.049 9.38-7.81 10.78 2.24 1.4 5.894-4.134 9.595-9.053M20.828 72.212c.71.01.901.371 1.197 1.85.148 1.706-1.934 9.225-2.438 11.416-.543 2.028-1.068 3.393-2.223 3.365-1.535-.282-1.336-3.13-.644-6.925.825-4.533 2.571-9.633 4.108-9.706"/>
            <path fill="#000102" d="M29.026 87s2.874-1.07 2.972-1.822c.098-.75-2.998 1.108-2.998 1.108l.026.714z" opacity=".1"/>
            <path fill="#FBBEBE" d="M33.756 85.265c.212-.348.28-.521.226-.691-.122-.373.112-.367-.318-.786-.089-.095-.003-.966-.786-.755-.438.117-1.063.603-1.577.721-.82.18-1.648.538-1.151 1.452.34.622.83.774.934.794 0 0 2.225-.06 2.672-.735"/>
            <path fill="#FC6681" d="M30.646 84.16a.291.291 0 0 0-.346-.148c-2.286.648-9.494 1.175-12.032 1.921-1.152.326-1.353 1.024-1.24 1.613.074.397.12.878.627 1.195.136.085.29.138.45.169 2.837.553 11.314-1.587 12.564-2.453.137-.095.278-.189.307-.346.098-.52-.122-1.51-.33-1.95"/>
            <path fill="#2F2E41" d="M33.676 48.254c-3.76-3.99-9.154-1.495-9.433-1.363-.268-.12-4.74-2.027-6.553 6.593-1.136 5.402-1.463 13.922 3.817 14.516 2.677-1.03 3.298-.968 4.859-1.03 3.36-.132 5.474 1.164 6.459.95-.052.08 2.783-.697 3.655-3.155.872-2.458 1.06-12.415-2.804-16.511"/>
            <path fill="#FBBEBE" d="M30 69l-5-.005.014-3.995H30z"/>
            <path fill="#E5AEAE" d="M25 66.628a8.002 8.002 0 0 0 2.472.372c.967 0 1.805-.152 2.528-.389V66h-5v.628zM34 60s.379-.025.615-.348c.213-.29.385-.85.385-1.86 0-2.343-1-1.716-1-1.716V60z"/>
            <path fill="#FBBEBE" d="M27.339 48C24.945 48 21 49.862 21 56.715c0 0 .088 4.011.265 4.883.089.438 1.847 4.402 6.2 4.402 4.352 0 6.183-3.974 6.27-4.402.176-.872.265-4.883.265-4.883C34 49.625 29.732 48 27.339 48"/>
            <g transform="translate(17 45)">
                <mask id="B" fill="#fff">
                    <use xlink:href="#A"/>
                </mask>
                <path fill="#2F2E41" d="M5 7.5c2-.667 3.82-.5 5.458.5 2.378-.933 3.892-1.1 4.542-.5.65.6 1.733.513 3.25-.26-1.333-2.93-2.167-4.396-2.5-4.396-.333 0-2.5-.282-6.5-.844l-5 2.62-1 2.62c-.833.84-.25.927 1.75.26z" mask="url(#B)"/>
            </g>
            <path fill="#E5AEAE" d="M20.986 60s-.373-.025-.606-.349c-.21-.291-.38-.851-.38-1.863 0-2.347 1-1.709 1-1.709L20.986 60z"/>
            <path fill="#FCFCFC" d="M20.776 60.5c0 .184-.123.332-.275.332-.153 0-.276-.148-.276-.331 0-.184.123-.332.276-.332.152 0 .275.148.275.332M33.776 60.5c0 .184-.125.332-.276.332-.152 0-.275-.148-.275-.331 0-.184.123-.332.276-.332.15 0 .275.148.275.332"/>
        </g>
        <g>
            <path fill="#BACDEF" d="M36.66 22.727s1.913-2.526 3.087-3.684c2.112-2.084 4.536-5.769 12.285-3.053.602.21 1.185.491 1.766.773.682.331 2.799.34 4.966-1.634 3.444-3.137 4.79-5.504 9.508-5.578 5.49-.086 6.354 7.766 10.62 9.776 2.716 1.278 9.88 2.55 11.362 3.117l-53.595.283zM281.594 38.176s-1.914-2.526-3.087-3.684c-2.112-2.084-4.536-5.769-12.285-3.053-.603.21-1.186.491-1.766.773-.682.332-2.8.34-4.966-1.634-3.444-3.136-4.791-5.504-9.509-5.577-5.49-.087-6.353 7.765-10.62 9.775-2.715 1.279-9.88 2.55-11.361 3.117l53.594.283z"/>
            <path fill="#3D94D6" d="M206.18 52.294c0-5.568 4.511-10.1 10.056-10.1 5.544 0 10.055 4.532 10.055 10.1 0 5.569-4.511 10.1-10.055 10.1-5.545 0-10.055-4.531-10.055-10.1m36.631 18.821l-15.339-11.604c-.032-.024-.067-.039-.1-.061a13.242 13.242 0 0 0 2.099-7.156c0-7.33-5.938-13.294-13.236-13.294C208.938 39 203 44.964 203 52.294s5.938 13.295 13.236 13.295c2.702 0 5.215-.822 7.312-2.224.16.225.345.437.577.612l15.339 11.604a2.777 2.777 0 0 0 3.898-.551 2.804 2.804 0 0 0-.55-3.915"/>
            <path fill="#FC6681" d="M49.917 62.778c-.535 0-1.057-.27-1.356-.761a1.602 1.602 0 0 1 .523-2.198c3.672-2.264 7.466-4.395 11.135-6.456 1.113-.626 2.227-1.251 3.34-1.882a211.44 211.44 0 0 0 3.715-2.171c5.31-3.15 10.8-6.408 17.137-7.57 5.055-.926 9.608 1.029 14.011 2.918 1.527.656 2.969 1.275 4.415 1.769 5.635 1.926 11.516.374 16.557-4.372 1.202-1.132 2.312-2.3 3.386-3.43 4.98-5.239 9.687-10.185 19.142-5.796a145.451 145.451 0 0 0 14.9 5.94c.943.316 1.896.679 2.817 1.028 3.424 1.3 6.659 2.53 9.92 1.865 2.997-.611 5.728-2.207 8.234-3.841 6.692-4.362 13.24-9.328 19.57-14.13 3.876-2.939 7.883-5.978 11.887-8.852a1.585 1.585 0 0 1 2.219.371 1.601 1.601 0 0 1-.37 2.229c-3.97 2.849-7.96 5.875-11.819 8.802-6.376 4.836-12.969 9.836-19.755 14.26-2.636 1.719-5.808 3.573-9.333 4.292-4.162.849-7.983-.603-11.679-2.008-.933-.354-1.816-.69-2.698-.986a148.69 148.69 0 0 1-15.227-6.07c-7.396-3.435-10.621-.036-15.508 5.103-1.103 1.161-2.245 2.362-3.51 3.554-5.939 5.59-12.956 7.39-19.758 5.065-1.56-.533-3.126-1.205-4.639-1.854-4.154-1.784-8.076-3.468-12.19-2.714-5.78 1.06-11.022 4.17-16.091 7.178a222.99 222.99 0 0 1-3.77 2.203c-1.117.632-2.234 1.26-3.351 1.888-3.641 2.045-7.406 4.16-11.024 6.39a1.58 1.58 0 0 1-.83.236"/>
            <path fill="#3D94D6" d="M195.306 5.358c0-.16-.033-.29-.1-.388a.684.684 0 0 0-.26-.23 1.125 1.125 0 0 0-.354-.11 2.625 2.625 0 0 0-.379-.03h-.872v1.582h.777c.134 0 .272-.011.411-.034.141-.022.27-.062.385-.12a.732.732 0 0 0 .282-.249.735.735 0 0 0 .11-.421zm.067 4.706l-1.467-2.694h-.556v2.694h-1.593V3.278h2.576c.325 0 .641.033.95.1.308.068.585.181.83.34.245.16.44.371.587.633.147.262.219.588.219.978 0 .46-.124.847-.371 1.16-.25.313-.593.536-1.032.67l1.766 2.905h-1.909zM201.766 7.658a1.45 1.45 0 0 0-.071-.45 1.073 1.073 0 0 0-.558-.661 1.081 1.081 0 0 0-.487-.106 1.059 1.059 0 0 0-.835.383 1.295 1.295 0 0 0 0 1.687c.099.115.218.208.358.278.14.07.299.105.477.105a1.035 1.035 0 0 0 .835-.383c.092-.115.163-.248.21-.398.048-.15.071-.302.071-.455m1.518 0c0 .333-.051.652-.153.958-.102.307-.25.577-.444.81a2.103 2.103 0 0 1-1.665.772c-.292 0-.57-.06-.83-.177a1.486 1.486 0 0 1-.61-.485h-.019v2.828h-1.566V5.29h1.489v.584h.029c.147-.191.348-.36.606-.503.257-.144.56-.216.91-.216a2.112 2.112 0 0 1 1.646.748c.195.23.344.497.45.8.104.304.157.622.157.954M205.936 9.22a.889.889 0 0 1-.281.671.94.94 0 0 1-.673.268.993.993 0 0 1-.686-.268.88.88 0 0 1-.287-.661.89.89 0 0 1 .076-.364.942.942 0 0 1 .211-.302 1.02 1.02 0 0 1 .31-.206.939.939 0 0 1 .376-.077c.261 0 .485.09.673.268a.889.889 0 0 1 .281.671M48.198 42.897c0-.16-.033-.29-.101-.388a.684.684 0 0 0-.259-.23 1.125 1.125 0 0 0-.354-.11 2.625 2.625 0 0 0-.38-.03h-.872v1.582h.777c.135 0 .272-.011.412-.034.14-.022.269-.062.384-.12a.732.732 0 0 0 .282-.249.735.735 0 0 0 .11-.421zm.067 4.706l-1.467-2.694h-.556v2.694h-1.594v-6.786h2.577c.325 0 .64.033.95.1.308.068.584.181.83.34.244.16.44.371.586.633.147.262.22.588.22.978 0 .46-.125.847-.372 1.16-.249.313-.592.536-1.031.67l1.765 2.905h-1.908zM54.658 45.197a1.45 1.45 0 0 0-.072-.45 1.073 1.073 0 0 0-.558-.661 1.081 1.081 0 0 0-.486-.106 1.059 1.059 0 0 0-.835.383 1.295 1.295 0 0 0 0 1.687c.098.115.218.208.357.278.14.07.3.105.478.105a1.035 1.035 0 0 0 .835-.383c.092-.115.163-.248.21-.398.047-.15.071-.302.071-.455m1.517 0c0 .333-.05.652-.152.958-.102.307-.25.577-.444.81a2.103 2.103 0 0 1-1.665.772c-.293 0-.57-.06-.83-.178a1.486 1.486 0 0 1-.611-.484h-.018v2.828h-1.566V42.83h1.488v.584h.03c.146-.191.347-.36.606-.503.257-.144.56-.216.91-.216a2.112 2.112 0 0 1 1.646.748c.194.23.344.497.449.8.105.304.157.622.157.954M58.828 46.76a.889.889 0 0 1-.281.67.94.94 0 0 1-.673.268.993.993 0 0 1-.686-.268.88.88 0 0 1-.287-.661.89.89 0 0 1 .076-.364.942.942 0 0 1 .21-.302 1.02 1.02 0 0 1 .31-.206.939.939 0 0 1 .377-.077c.26 0 .485.09.673.268a.889.889 0 0 1 .281.671"/>
            <path stroke="#FC6681" stroke-linecap="round" stroke-width="4" d="M210.145 16.054h-12.723M210.146 16.104l-1.593 12.679"/>
        </g>
        <g fill="#AFC1E7">
            <path d="M134.935 7.089a4.097 4.097 0 0 1 3.163 4.852 4.093 4.093 0 1 1-8.01-1.685 4.092 4.092 0 0 1 4.847-3.167M142.493 9.934a1.435 1.435 0 0 1-.59 2.808 1.434 1.434 0 0 1-1.106-1.699 1.431 1.431 0 0 1 1.696-1.109"/>
        </g>
        <g fill="#AFC1E7">
            <path d="M261.828 50.915a4.097 4.097 0 0 1-3.557 4.57 4.093 4.093 0 1 1-1.016-8.121 4.092 4.092 0 0 1 4.573 3.55M261.598 58.988a1.435 1.435 0 0 1-2.847.357 1.434 1.434 0 0 1 1.247-1.6 1.431 1.431 0 0 1 1.6 1.243"/>
        </g>
        <g fill="#AFC1E7">
            <path d="M3.04 58.293a4.097 4.097 0 0 1 5.78.394 4.093 4.093 0 1 1-6.166 5.383 4.092 4.092 0 0 1 .386-5.777M9.862 53.97a1.435 1.435 0 0 1 1.888 2.16 1.434 1.434 0 0 1-2.023-.14 1.431 1.431 0 0 1 .135-2.02"/>
        </g>
    </g>
</svg>
