<svg xmlns="http://www.w3.org/2000/svg" xmlns:xlink="http://www.w3.org/1999/xlink" width="641" height="572" viewBox="0 0 641 572">
    <defs>
        <path id="a" d="M22.45 1.951c-4.596 2.3-5.803 12.09-7.697 16.484-3.546 8.227-8.996 15.248-12.685 23.335-2.023 4.438-1.634 9.182.411 13.537 3.796 8.09 8.146 14.337 6.212 23.83-.921 4.525-2.262 9.016.167 13.32 1.695 3.002 5.927 7.968 9.797 7.95.082 0 .164-.005.247-.008 1.547-.095 3.004-.75 4.379-1.465a43.588 43.588 0 0 0 7.761-5.165c1.798-1.498 3.51-3.187 4.527-5.294 1.685-3.49.18-7.2-.72-10.672-.872-3.375-.984-6.44.126-9.803.963-2.916 13.98-20.962 4.668-20.652-4.042.135-7.813-.339-8.95-4.833-.81-3.202.121-6.968 1.434-9.91 3.506-7.856 5.995-14.461 3.648-23.1C34.427 4.54 31.329.781 26.926.782c-1.37 0-2.867.364-4.477 1.168"/>
        <linearGradient id="b" x1="0%" y1="49.999%" y2="49.999%">
            <stop offset="0%" stop-color="#4BBA7E"/>
            <stop offset="100%" stop-color="#23E877"/>
        </linearGradient>
        <path id="d" d="M21.338 42.907c4.346 6.795 9.664 13.73 15.825 19.54.008.015.022.023.032.037a68.82 68.82 0 0 0 1.815 1.652c.51.455 1.026.898 1.545 1.331.206.174.407.343.612.506H53.443c-.067-.159-.136-.324-.205-.483-.11-.255-.22-.506-.328-.762a.696.696 0 0 0-.032-.076c-.27-.626-.547-1.246-.825-1.867a83.01 83.01 0 0 0-.777-1.692 39.04 39.04 0 0 0-.464-.993c-.219-.47-.442-.936-.666-1.4-.315-.639-.629-1.277-.954-1.916a99.097 99.097 0 0 0-.87-1.696c-.055-.11-.11-.223-.17-.333-.322-.616-.647-1.227-.98-1.839a90.964 90.964 0 0 0-1.048-1.914c-.31-.556-.625-1.108-.94-1.66-.086-.146-.168-.291-.255-.438a108.89 108.89 0 0 0-.99-1.683c-.338-.566-.679-1.132-1.021-1.691-.064-.101-.123-.201-.188-.301a132.073 132.073 0 0 0-2.266-3.563c-.396-.606-.797-1.212-1.208-1.814a139.81 139.81 0 0 0-2.494-3.585c-.425-.593-.854-1.181-1.287-1.765v-.004c-.424-.566-.842-1.13-1.272-1.693a142.916 142.916 0 0 0-4.113-5.176 160.993 160.993 0 0 0-2.7-3.164c-.46-.521-.922-1.04-1.383-1.555a209.14 209.14 0 0 0-1.404-1.537c-.324-.352-.651-.697-.98-1.044-.018-.019-.032-.032-.041-.046-.315-.329-.634-.657-.949-.985-.141-.15-.283-.296-.42-.447l-.045-.046c-.283-.291-.57-.588-.863-.876-.29-.29-.582-.578-.87-.87l-.336-.343c-.11-.118-.224-.227-.34-.337A150.199 150.199 0 0 0 .77.47c9.714 12.991 11.825 28.774 20.568 42.438"/>
        <linearGradient id="e" x1="100.001%" x2=".001%" y1="50%" y2="50%">
            <stop offset="0%" stop-color="#4BBA7E"/>
            <stop offset="100%" stop-color="#23E877"/>
        </linearGradient>
        <path id="g" d="M39.892 4.443c-3.202 4.054-6.402 8.112-9.605 12.167-.415.524-.83 1.048-1.249 1.568-2.404 3.015-4.898 5.97-7.88 8.397-1.282 1.04-2.681 2.024-3.972 3.092-.62.51-1.21 1.039-1.752 1.61v.004a11.076 11.076 0 0 0-1.563 2.029 8.384 8.384 0 0 0-.704 1.486c-1.222 3.412-.077 7.535-2.056 10.567-.712 1.09-1.733 1.884-2.8 2.64-.867.611-1.765 1.204-2.55 1.902-3.652 3.252-4.6 8.496-5.33 13.33l-.014.082h34.781c3.68-2.467 8.633-4.012 9.997-8.149 1.815-5.518-4.223-11.776-1.536-16.928 1.846-3.544 7.072-4.597 8.272-8.41 1.214-3.858-2.532-7.47-3.147-11.47-.515-3.333 1.191-6.556 1.884-9.859.67-3.165-.252-7.292-3.238-8.218a4.165 4.165 0 0 0-1.237-.19c-2.51 0-4.67 2.279-6.301 4.35"/>
        <linearGradient id="h" x1="100%" x2="0%" y1="49.999%" y2="49.999%">
            <stop offset="0%" stop-color="#4BBA7E"/>
            <stop offset="100%" stop-color="#23E877"/>
        </linearGradient>
        <path id="j" d="M39.892 4.443c-3.202 4.054-6.402 8.112-9.605 12.167-.415.524-.83 1.048-1.249 1.568-2.404 3.015-4.898 5.97-7.88 8.397-1.282 1.04-2.681 2.024-3.972 3.092-.62.51-1.21 1.039-1.752 1.61v.004a11.076 11.076 0 0 0-1.563 2.029 8.384 8.384 0 0 0-.704 1.486c-1.222 3.412-.077 7.535-2.056 10.567-.712 1.09-1.733 1.884-2.8 2.64-.867.611-1.765 1.204-2.55 1.902-3.652 3.252-4.6 8.496-5.33 13.33l-.014.082h23.344a411.89 411.89 0 0 0 3.202-7.67c3.53-8.683 6.804-17.48 10.064-26.245C40.617 19.742 44.21 10.084 47.8.429c-.12-.054-.247-.1-.37-.146a4.165 4.165 0 0 0-1.237-.19c-2.51 0-4.67 2.279-6.301 4.35"/>
        <linearGradient id="k" x1="99.999%" x2="0%" y1="49.999%" y2="49.999%">
            <stop offset="0%" stop-color="#4BBA7E"/>
            <stop offset="100%" stop-color="#23E877"/>
        </linearGradient>
        <path id="m" d="M1.227 26.285c-.15.903-.273 1.807-.388 2.71-.054.46-.104.92-.15 1.382a65.078 65.078 0 0 0-.3 4.15c-.183 4.41.003 8.847.333 13.279v.01c.077 1.074.168 2.151.258 3.228.092 1.085.192 2.165.289 3.252v.004l.026.301c.074.784.142 1.564.215 2.348.11 1.19.214 2.386.31 3.585.721 8.633 1.09 17.357-.634 25.803h.77c.265-.32.516-.644.767-.967.278-.361.552-.726.816-1.09a.108.108 0 0 1 .028-.036c.205-.288.41-.575.607-.867.323-.47.633-.94.939-1.418.25-.4.501-.807.744-1.213.118-.2.236-.402.35-.603.114-.195.229-.396.343-.601.113-.201.223-.402.333-.606.126-.243.255-.484.383-.73.182-.352.36-.703.533-1.058.009-.02.018-.037.027-.06a48.68 48.68 0 0 0 1.144-2.513c.17-.397.333-.798.494-1.2.01-.027.022-.054.031-.081.16-.397.31-.798.46-1.204l.042-.105c.147-.397.287-.793.425-1.195.072-.219.144-.434.218-.652v-.009c.232-.69.447-1.383.652-2.08 2.07-7.046 3.005-14.56 3.388-22.1.082-1.582.142-3.17.192-4.751.424-13.572-.138-27.098 1.623-40.582C7.863 6.138 2.947 16.18 1.227 26.286"/>
        <linearGradient id="n" x1="100.002%" x2="-.002%" y1="49.999%" y2="49.999%">
            <stop offset="0%" stop-color="#4BBA7E"/>
            <stop offset="100%" stop-color="#23E877"/>
        </linearGradient>
        <path id="p" d="M3.067.66a3.081 3.081 0 0 0-.21.129C-.043 2.699.04 6.904.445 10.35l2.147 18.261c.625 5.317 1.255 10.685.698 16.01-.323 3.139-1.04 6.417-.82 9.509v.009c.104 1.41.4 2.782 1.017 4.082 1.838 3.88 6.257 6.38 7.136 10.584.575 2.732-.515 5.514-.674 8.3-.338 5.788 3.265 10.977 6.708 15.646 1.492 2.021 3.024 4.078 4.692 5.98h36.3c.146-.288.275-.58.389-.881.775-2.015.966-4.41.798-6.79a27.496 27.496 0 0 0-1.363-6.704 11.89 11.89 0 0 0-.794-1.824v-.009c-2.162-4.095-6.134-6.165-8.82-9.595a13.188 13.188 0 0 1-1.432-2.24 8.08 8.08 0 0 1-.683-1.965c-.562-2.695.182-5.595 1.016-8.513v-.01c0-.009 0-.018.005-.023 1.158-4.063 2.476-8.149.669-11.73a8.163 8.163 0 0 0-.998-1.518c-.005-.004-.005-.009-.009-.009-3.894-4.71-12.596-5.405-14.48-11.383-1.422-4.52 2.08-9.79-.114-13.991-2.22-4.255-8.385-4.144-12.263-6.981-3.224-2.363-4.5-6.5-6.684-9.851C11.245 2.197 8.295 0 5.513 0 4.668 0 3.84.203 3.067.66"/>
        <linearGradient id="q" x1="50%" x2="50%" y1="0%" y2="100%">
            <stop offset="0%" stop-color="#4BBA7E"/>
            <stop offset="100%" stop-color="#23E877"/>
        </linearGradient>
        <path id="s" d="M3.067.66a3.081 3.081 0 0 0-.21.129C-.043 2.699.04 6.904.445 10.35l2.147 18.261c.625 5.317 1.255 10.685.698 16.01-.323 3.139-1.04 6.417-.82 9.509v.009c.104 1.41.4 2.782 1.017 4.082 1.838 3.88 6.257 6.38 7.136 10.584.575 2.732-.515 5.514-.674 8.3-.338 5.788 3.265 10.977 6.708 15.646 1.492 2.021 3.024 4.078 4.692 5.98H45.36a295.284 295.284 0 0 0-5.176-15.314c-6.188-16.888-13.718-33.369-21.21-49.735C13.883 22.573 8.8 11.463 3.71.35c-.22.086-.434.186-.644.31"/>
        <linearGradient id="t" x1="99.998%" x2="-.001%" y1="50%" y2="50%">
            <stop offset="0%" stop-color="#4BBA7E"/>
            <stop offset="100%" stop-color="#23E877"/>
        </linearGradient>
        <path id="v" d="M.195 28.987c8.19 0 14.816-12.734 14.816-28.47L.195 28.988z"/>
        <linearGradient id="w" x1="-.001%" x2="100.001%" y1="50%" y2="50%">
            <stop offset="0%" stop-color="#4BBA7E"/>
            <stop offset="100%" stop-color="#23E877"/>
        </linearGradient>
        <path id="y" d="M30.297 38.726C30.297 17.32 16.892 0 .327 0l29.97 38.726z"/>
        <linearGradient id="z" x1="0%" y1="50%" y2="50%">
            <stop offset="0%" stop-color="#4BBA7E"/>
            <stop offset="100%" stop-color="#23E877"/>
        </linearGradient>
    </defs>
    <g fill="none" fill-rule="evenodd">
        <path fill="#4285F4" d="M640.469 304.754c-1.249 19.734-5.623 39.053-12.598 57.504-21.126 55.892-66.145 103.72-120.57 130.316a230.226 230.226 0 0 1-6.693 3.143c-41.877 18.867-87.818 26.826-133.476 31.766-8.332.904-16.68 1.71-25.03 2.418a1108.312 1108.312 0 0 1-167.545 1.585c-6.17-.417-12.368-.877-18.522-1.585a185.32 185.32 0 0 1-11.685-1.71c-6.198-1.115-12.308-2.61-18.257-4.683-16.256-5.657-30.802-15.44-43.94-26.57-40.187-34.042-66.73-82.355-77.16-133.901-.478-2.346-.92-4.7-1.328-7.065v-.008c-.052-.267-.096-.541-.142-.806-.23-1.356-.451-2.71-.655-4.064a317.086 317.086 0 0 1-.583-4.01c-.01-.08-.019-.16-.036-.25-.23-1.735-.442-3.47-.647-5.205-.009-.115-.025-.23-.035-.345a157.008 157.008 0 0 1-.372-3.569c-.052-.424-.088-.858-.123-1.283a33.922 33.922 0 0 1-.09-.948 272.76 272.76 0 0 1-.468-6.056c-.106-1.629-.186-3.266-.257-4.904a92.423 92.423 0 0 1-.124-3.17 71.051 71.051 0 0 1-.054-1.903c-.052-1.85-.078-3.7-.078-5.552 0-1.85.016-3.709.06-5.559.046-2.258.126-4.507.232-6.765.123-2.55.291-5.09.504-7.64.097-1.249.212-2.488.337-3.736.017-.266.044-.54.08-.815.034-.355.07-.718.115-1.08.177-1.718.372-3.426.593-5.144.37-2.949.806-5.888 1.3-8.819a223.08 223.08 0 0 1 1.825-9.65c.195-.955.407-1.912.619-2.859.213-.957.434-1.904.664-2.85a221.985 221.985 0 0 1 5.897-20.408c1.7-4.96 3.576-9.864 5.64-14.69.47-1.123.964-2.248 1.461-3.364 6.852-15.334 16.114-30.703 31.004-38.477 15.45-8.066 34.327-6.437 50.89-.983 10.032 3.303 19.56 7.88 29.112 12.405 6.215 2.947 12.439 5.878 18.831 8.42 8.208 3.257 16.76 5.86 25.454 7.56 13.919 2.709 28.199 3.1 42.02.097 22.444-4.87 43.382-19.574 52.28-40.752 13.05-31.023-1.39-67.296 6.526-100.01 6.851-28.297 30.483-50.741 57.83-60.728 27.35-9.986 57.833-8.693 85.995-1.292 14.45 3.807 28.722 9.296 40.48 18.512 9.597 7.517 17.246 17.185 23.868 27.35 16.354 25.072 29.217 51.695 42.729 78.39a320.881 320.881 0 0 0 4.151 7.959c9.377 17.405 20.558 34.032 36.009 46.215 19.804 15.627 45.241 26.544 59.593 47.968 10.208 15.229 13.82 33.99 14.581 52.307.266 6.464.196 12.9-.212 19.293" opacity=".1"/>
        <path fill="#BACDEF" d="M523.973 357.23h-26.42v-70.644c0-6.808 5.915-12.333 13.21-12.333 7.296 0 13.21 5.525 13.21 12.333v70.643zm-114.37-184.076h-74.291v-.77c0-8.924 16.999-23.126 37.15-23.126 20.141 0 37.14 14.202 37.14 23.126v.77zm-15.583 24.348h15.582v-20.364H394.02v20.364zm0 24.356h15.582v-20.372H394.02v20.372zm0 59.717h15.582v-20.363H394.02v20.363zm0 24.348h15.582v-20.364H394.02v20.364zm-19.567-108.421h15.584v-20.364h-15.584v20.364zm0 24.356h15.584v-20.372h-15.584v20.372zm0 59.717h15.584v-20.363h-15.584v20.363zm0 24.348h15.584v-20.364h-15.584v20.364zm-19.576-108.421h15.583v-20.364h-15.583v20.364zm0 24.356h15.583v-20.372h-15.583v20.372zm0 59.717h15.583v-20.363h-15.583v20.363zm0 24.348h15.583v-20.364h-15.583v20.364zm-19.565-108.421h15.582v-20.364h-15.582v20.364zm0 24.356h15.582v-20.372h-15.582v20.372zm0 59.717h15.582v-20.363h-15.582v20.363zm0 24.348h15.582v-20.364h-15.582v20.364zm299.765-3.772l-7.641 4.045-7.003-4.045-8.127 4.303-7.447-4.303-7.64 4.045-7.004-4.045-6.4 3.39v-27.03l16.59 5.384 1.71-4.666 5.614-15.343-52.794-17.212v-24.516h5.206v-16.45h-31.59v16.45h5.95v17.85l-86.8-28.296v-34.255l5.975 5.294 14.156-15.936-97.123-85.977-101.843 90.723 14.21 15.892 5.94-5.295v122.897l-5.02-2.904-7.64 4.045-7.004-4.045-1.212.637c-.876-34.52-9.323-87.455-19.61-87.455-10.537 0-19.142 55.459-19.674 89.873l-5.285-3.055-7.65 4.045-7.003-4.045-8.119 4.303v55.804h88.217v25.915h294.798v-25.915h43.171c6.976-18.45 11.35-37.77 12.598-57.504l-4.506-2.603z"/>
        <path fill="#AFC1E7" d="M507.301 492.574a230.247 230.247 0 0 1-6.693 3.143c-41.876 18.867-87.819 26.827-133.476 31.767-8.33.903-16.68 1.709-25.03 2.417H142.56l1.79-1.71 145.8-139.602 143.428-.886L507.3 492.574z" opacity=".4"/>
        <path fill="#BACDEF" d="M163.614 234.093h-42.108v-.433c0-5.056 9.633-13.113 21.055-13.113 11.42 0 21.053 8.057 21.053 13.113v.433zm-8.828 13.803h8.828v-11.545h-8.828v11.545zm0 13.803h8.828v-11.545h-8.828v11.545zm0 33.856h8.828V284.01h-8.828v11.545zm0 13.794h8.828v-11.536h-8.828v11.536zm-11.092-61.453h8.827v-11.545h-8.827v11.545zm0 13.803h8.827v-11.545h-8.827v11.545zm0 33.856h8.827V284.01h-8.827v11.545zm0 13.794h8.827v-11.536h-8.827v11.536zm-11.095-61.453h8.827v-11.545H132.6v11.545zm0 13.803h8.827v-11.545H132.6v11.545zm0 33.856h8.827V284.01H132.6v11.545zm0 13.794h8.827v-11.536H132.6v11.536zm-11.092-61.453h8.836v-11.545h-8.836v11.545zm0 13.803h8.836v-11.545h-8.836v11.545zm0 33.856h8.836V284.01h-8.836v11.545zm0 13.794h8.836v-11.536h-8.836v11.536zm-49.855 29.084H56.681v-40.036c0-3.86 3.346-6.994 7.481-6.994s7.49 3.134 7.49 6.994v40.036zm136.753-36.858c-.124-2.55-.292-5.09-.505-7.64a183.444 183.444 0 0 0-.336-3.736c-.018-.266-.045-.54-.08-.815-.036-.354-.07-.717-.115-1.08a203.242 203.242 0 0 0-.593-5.144 210.087 210.087 0 0 0-1.303-8.818c-2.106 10.12-3.523 23.081-3.78 33.236l-.69-.363-3.966 2.293-4.33-2.293-2.85 1.647v-69.66l3.363 3.001 3.25-3.629a213.417 213.417 0 0 0-5.64-14.689l-16.21-14.44-31.068-27.676-13.218 11.695L88.5 230.498l8.022 9.04 3.39-3.001v19.415l-49.199 16.035v-10.111h3.374v-9.323H36.176v9.323h2.948v13.891l-29.925 9.757 3.186 8.694.966 2.647 9.403-3.045v15.316l-3.621-1.92-3.976 2.292-4.33-2.293-4.222 2.435L2 307.215.062 308.34C.018 310.19 0 312.05 0 313.9c0 1.85.027 3.7.08 5.55.009.638.026 1.276.053 1.905.026 1.053.062 2.115.124 3.169.15 3.656.397 7.313.726 10.96.026.32.053.63.088.948.036.425.071.86.124 1.284.115 1.195.23 2.381.372 3.568h21.187v14.688h167.102v-14.688h17.274c.142-1.187.256-2.373.372-3.568.053-.424.088-.859.124-1.284.035-.319.06-.629.089-.947.327-3.648.575-7.305.725-10.961.062-1.054.097-2.116.124-3.169.027-.63.044-1.267.053-1.904.053-1.85.08-3.701.08-5.551 0-4.108-.097-8.216-.292-12.325z"/>
        <path fill="#AFC1E7" d="M235.52 354.786c3.01-.335 5.857-4.58 6.905-7.069 1.502-3.569.054-6.942-1.072-10.38-2.361-7.212.46-12.466 2.685-19.101 1.198-3.575 1.073-7.301-.902-10.572-3.6-5.96-8.474-10.931-11.975-17.013-1.87-3.247-3.694-10.758-7.476-12.132-5.583-2.027-8.9 1.856-9.688 7.08-1.046 6.935 1.486 11.848 4.922 17.645 1.287 2.172 2.353 5.017 2.01 7.582-.48 3.6-3.37 4.31-6.527 4.57-7.273.598 4.482 13.464 5.495 15.647 1.167 2.515 1.357 4.91.981 7.615-.386 2.783-1.222 5.807.404 8.37.982 1.547 2.466 2.708 4 3.71a34.109 34.109 0 0 0 6.505 3.32c1.135.433 2.327.81 3.54.744.064-.004.129-.01.193-.016"/>
        <path stroke="#9CB0D3" stroke-linecap="round" d="M234.292 370.004s-2.93-63.962-8.384-72.302"/>
        <path stroke="#9CB0D3" stroke-linecap="round" stroke-width=".5" d="M231.235 326.967s-9.795-3.325-11.613-6.105M230.143 317.025c1.764.169 7.945-11.015 6.126-13.795"/>
        <path fill="#AFC1E7" d="M542.477 557.25c0 8.067-103.655 14.608-231.521 14.608-127.866 0-231.522-6.541-231.522-14.609 0-8.067 103.656-14.608 231.522-14.608 127.866 0 231.521 6.541 231.521 14.608" opacity=".4"/>
        <g transform="translate(239.932 273.492)">
            <mask id="c" fill="#fff">
                <use xlink:href="#a"/>
            </mask>
            <path fill="url(#b)" d="M22.45 1.951c-4.596 2.3-5.803 12.09-7.697 16.484-3.546 8.227-8.996 15.248-12.685 23.335-2.023 4.438-1.634 9.182.411 13.537 3.796 8.09 8.146 14.337 6.212 23.83-.921 4.525-2.262 9.016.167 13.32 1.695 3.002 5.927 7.968 9.797 7.95.082 0 .164-.005.247-.008 1.547-.095 3.004-.75 4.379-1.465a43.588 43.588 0 0 0 7.761-5.165c1.798-1.498 3.51-3.187 4.527-5.294 1.685-3.49.18-7.2-.72-10.672-.872-3.375-.984-6.44.126-9.803.963-2.916 13.98-20.962 4.668-20.652-4.042.135-7.813-.339-8.95-4.833-.81-3.202.121-6.968 1.434-9.91 3.506-7.856 5.995-14.461 3.648-23.1C34.427 4.54 31.329.781 26.926.782c-1.37 0-2.867.364-4.477 1.168" mask="url(#c)"/>
        </g>
        <g stroke="#45A86F" stroke-linecap="round">
            <path d="M262.382 393.015s-5.69-81.542 0-92.919"/>
            <path stroke-width=".5" d="M259.93 337.99s11.933-5.658 13.83-9.45M259.853 325.221c-2.212.475-11.694-12.8-9.797-16.592"/>
        </g>
        <g transform="translate(78.797 464.73)">
            <mask id="f" fill="#fff">
                <use xlink:href="#d"/>
            </mask>
            <path fill="url(#e)" d="M21.338 42.907c4.346 6.795 9.664 13.73 15.825 19.54.008.015.022.023.032.037a68.82 68.82 0 0 0 1.815 1.652c.51.455 1.026.898 1.545 1.331.206.174.407.343.612.506H53.443c-.067-.159-.136-.324-.205-.483-.11-.255-.22-.506-.328-.762a.696.696 0 0 0-.032-.076c-.27-.626-.547-1.246-.825-1.867a83.01 83.01 0 0 0-.777-1.692 39.04 39.04 0 0 0-.464-.993c-.219-.47-.442-.936-.666-1.4-.315-.639-.629-1.277-.954-1.916a99.097 99.097 0 0 0-.87-1.696c-.055-.11-.11-.223-.17-.333-.322-.616-.647-1.227-.98-1.839a90.964 90.964 0 0 0-1.048-1.914c-.31-.556-.625-1.108-.94-1.66-.086-.146-.168-.291-.255-.438a108.89 108.89 0 0 0-.99-1.683c-.338-.566-.679-1.132-1.021-1.691-.064-.101-.123-.201-.188-.301a132.073 132.073 0 0 0-2.266-3.563c-.396-.606-.797-1.212-1.208-1.814a139.81 139.81 0 0 0-2.494-3.585c-.425-.593-.854-1.181-1.287-1.765v-.004c-.424-.566-.842-1.13-1.272-1.693a142.916 142.916 0 0 0-4.113-5.176 160.993 160.993 0 0 0-2.7-3.164c-.46-.521-.922-1.04-1.383-1.555a209.14 209.14 0 0 0-1.404-1.537c-.324-.352-.651-.697-.98-1.044-.018-.019-.032-.032-.041-.046-.315-.329-.634-.657-.949-.985-.141-.15-.283-.296-.42-.447l-.045-.046c-.283-.291-.57-.588-.863-.876-.29-.29-.582-.578-.87-.87l-.336-.343c-.11-.118-.224-.227-.34-.337A150.199 150.199 0 0 0 .77.47c9.714 12.991 11.825 28.774 20.568 42.438" mask="url(#f)"/>
        </g>
        <path fill="#000" d="M98.448 488.952c.04.575.105 1.14.201 1.697.14.835.35 1.646.656 2.43.201.525.447 1.036.74 1.529.414.692.911 1.326 1.453 1.928.365.402.754.79 1.145 1.168.292.278.589.556.89.83.802.743 1.61 1.482 2.34 2.266.998 1.081 1.847 2.253 2.284 3.666a7.8 7.8 0 0 1 .242 1.009c.054.337.09.68.114 1.025.063 1.026-.018 2.08-.1 3.133-.028.352-.06.703-.083 1.054-.05.703-.082 1.405-.054 2.103.04 1.084.214 2.139.502 3.16.473 1.701 1.253 3.315 2.211 4.861a33.24 33.24 0 0 0 1.723 2.48c.101.137.206.27.31.407.366.47.745.935 1.127 1.396.279.332.561.66.844.989.324.369.643.734.967 1.095.008.013.023.022.031.036a68.642 68.642 0 0 0 1.815 1.651c.511.456 1.027.899 1.546 1.332.206.168.411.337.62.505h12.264c-.07-.158-.137-.323-.201-.483-.109-.255-.22-.506-.328-.761a.473.473 0 0 0-.032-.078c-.269-.625-.547-1.244-.825-1.865a78.728 78.728 0 0 0-.776-1.691c-.15-.334-.305-.667-.466-.995-.218-.47-.442-.935-.666-1.4-.314-.638-.629-1.277-.952-1.916-.283-.565-.575-1.13-.87-1.696-.056-.11-.11-.223-.17-.333a140.97 140.97 0 0 0-.98-1.838 93.337 93.337 0 0 0-1.05-1.915c-.309-.556-.624-1.109-.938-1.66-.087-.146-.17-.291-.256-.438a95.294 95.294 0 0 0-.989-1.683c-.338-.565-.68-1.131-1.023-1.692-.063-.1-.122-.2-.186-.3a130.737 130.737 0 0 0-2.266-3.562c-.397-.606-.799-1.213-1.209-1.815a139.794 139.794 0 0 0-2.495-3.584c-.424-.593-.853-1.181-1.286-1.766v-.004c-.423-.565-.843-1.13-1.271-1.692l-.097-.123a158.728 158.728 0 0 0-4.018-5.053 163.67 163.67 0 0 0-2.699-3.165c-.46-.52-.922-1.04-1.382-1.555-.47-.511-.935-1.021-1.404-1.528-.324-.35-.653-.702-.981-1.052-.018-.02-.032-.033-.042-.047-.455-.479-.91-.957-1.367-1.431l-.046-.046c-.283-.292-.57-.588-.862-.876-.396-.41-.798-.816-1.208-1.214-.11-.117-.224-.226-.338-.336-.022 2.58-.296 5.277-.109 7.843" opacity=".1"/>
        <g transform="translate(132.804 467.386)">
            <mask id="i" fill="#fff">
                <use xlink:href="#g"/>
            </mask>
            <path fill="url(#h)" d="M39.892 4.443c-3.202 4.054-6.402 8.112-9.605 12.167-.415.524-.83 1.048-1.249 1.568-2.404 3.015-4.898 5.97-7.88 8.397-1.282 1.04-2.681 2.024-3.972 3.092-.62.51-1.21 1.039-1.752 1.61v.004a11.076 11.076 0 0 0-1.563 2.029 8.384 8.384 0 0 0-.704 1.486c-1.222 3.412-.077 7.535-2.056 10.567-.712 1.09-1.733 1.884-2.8 2.64-.867.611-1.765 1.204-2.55 1.902-3.652 3.252-4.6 8.496-5.33 13.33l-.014.082h34.781c3.68-2.467 8.633-4.012 9.997-8.149 1.815-5.518-4.223-11.776-1.536-16.928 1.846-3.544 7.072-4.597 8.272-8.41 1.214-3.858-2.532-7.47-3.147-11.47-.515-3.333 1.191-6.556 1.884-9.859.67-3.165-.252-7.292-3.238-8.218a4.165 4.165 0 0 0-1.237-.19c-2.51 0-4.67 2.279-6.301 4.35" mask="url(#i)"/>
        </g>
        <g transform="translate(132.804 467.386)">
            <mask id="l" fill="#fff">
                <use xlink:href="#j"/>
            </mask>
            <path fill="url(#k)" d="M39.892 4.443c-3.202 4.054-6.402 8.112-9.605 12.167-.415.524-.83 1.048-1.249 1.568-2.404 3.015-4.898 5.97-7.88 8.397-1.282 1.04-2.681 2.024-3.972 3.092-.62.51-1.21 1.039-1.752 1.61v.004a11.076 11.076 0 0 0-1.563 2.029 8.384 8.384 0 0 0-.704 1.486c-1.222 3.412-.077 7.535-2.056 10.567-.712 1.09-1.733 1.884-2.8 2.64-.867.611-1.765 1.204-2.55 1.902-3.652 3.252-4.6 8.496-5.33 13.33l-.014.082h23.344a411.89 411.89 0 0 0 3.202-7.67c3.53-8.683 6.804-17.48 10.064-26.245C40.617 19.742 44.21 10.084 47.8.429c-.12-.054-.247-.1-.37-.146a4.165 4.165 0 0 0-1.237-.19c-2.51 0-4.67 2.279-6.301 4.35" mask="url(#l)"/>
        </g>
        <g transform="translate(146.97 444.366)">
            <mask id="o" fill="#fff">
                <use xlink:href="#m"/>
            </mask>
            <path fill="url(#n)" d="M1.227 26.285c-.15.903-.273 1.807-.388 2.71-.054.46-.104.92-.15 1.382a65.078 65.078 0 0 0-.3 4.15c-.183 4.41.003 8.847.333 13.279v.01c.077 1.074.168 2.151.258 3.228.092 1.085.192 2.165.289 3.252v.004l.026.301c.074.784.142 1.564.215 2.348.11 1.19.214 2.386.31 3.585.721 8.633 1.09 17.357-.634 25.803h.77c.265-.32.516-.644.767-.967.278-.361.552-.726.816-1.09a.108.108 0 0 1 .028-.036c.205-.288.41-.575.607-.867.323-.47.633-.94.939-1.418.25-.4.501-.807.744-1.213.118-.2.236-.402.35-.603.114-.195.229-.396.343-.601.113-.201.223-.402.333-.606.126-.243.255-.484.383-.73.182-.352.36-.703.533-1.058.009-.02.018-.037.027-.06a48.68 48.68 0 0 0 1.144-2.513c.17-.397.333-.798.494-1.2.01-.027.022-.054.031-.081.16-.397.31-.798.46-1.204l.042-.105c.147-.397.287-.793.425-1.195.072-.219.144-.434.218-.652v-.009c.232-.69.447-1.383.652-2.08 2.07-7.046 3.005-14.56 3.388-22.1.082-1.582.142-3.17.192-4.751.424-13.572-.138-27.098 1.623-40.582C7.863 6.138 2.947 16.18 1.227 26.286" mask="url(#o)"/>
        </g>
        <path fill="#000" d="M147.695 492.15c.078 1.085.165 2.175.255 3.26.092 1.085.192 2.166.288 3.251v.005l.027.3c.074.785.142 1.565.215 2.35.11 1.19.214 2.385.31 3.584.72 8.633 1.09 17.357-.633 25.803h.77c.264-.32.515-.644.766-.967a44.174 44.174 0 0 0 .843-1.126c.205-.288.411-.575.608-.867.323-.47.633-.94.938-1.418.25-.402.501-.808.744-1.213.119-.2.236-.402.35-.603.115-.195.229-.395.343-.602.114-.2.223-.4.333-.605l.383-.73c.183-.351.36-.704.533-1.059a49.413 49.413 0 0 0 1.172-2.572c.17-.397.333-.798.493-1.2.01-.027.023-.053.032-.082.16-.396.31-.797.461-1.203.013-.037.027-.068.04-.105.147-.397.288-.793.425-1.195.072-.219.145-.433.219-.652v-.009c.232-.689.447-1.382.652-2.08-2.362-3.894-6.248-6.411-7.894-10.853-.551-1.482-.612-2.987-.379-4.51.862-5.81 5.906-11.835 3.785-17.49-1.016-2.718-3.42-4.518-5.965-6.201a72.414 72.414 0 0 0-.442 5.54c-.187 4.401 0 8.83.328 13.249" opacity=".1"/>
        <g transform="translate(100.93 431.971)">
            <mask id="r" fill="#fff">
                <use xlink:href="#p"/>
            </mask>
            <path fill="url(#q)" d="M3.067.66a3.081 3.081 0 0 0-.21.129C-.043 2.699.04 6.904.445 10.35l2.147 18.261c.625 5.317 1.255 10.685.698 16.01-.323 3.139-1.04 6.417-.82 9.509v.009c.104 1.41.4 2.782 1.017 4.082 1.838 3.88 6.257 6.38 7.136 10.584.575 2.732-.515 5.514-.674 8.3-.338 5.788 3.265 10.977 6.708 15.646 1.492 2.021 3.024 4.078 4.692 5.98h36.3c.146-.288.275-.58.389-.881.775-2.015.966-4.41.798-6.79a27.496 27.496 0 0 0-1.363-6.704 11.89 11.89 0 0 0-.794-1.824v-.009c-2.162-4.095-6.134-6.165-8.82-9.595a13.188 13.188 0 0 1-1.432-2.24 8.08 8.08 0 0 1-.683-1.965c-.562-2.695.182-5.595 1.016-8.513v-.01c0-.009 0-.018.005-.023 1.158-4.063 2.476-8.149.669-11.73a8.163 8.163 0 0 0-.998-1.518c-.005-.004-.005-.009-.009-.009-3.894-4.71-12.596-5.405-14.48-11.383-1.422-4.52 2.08-9.79-.114-13.991-2.22-4.255-8.385-4.144-12.263-6.981-3.224-2.363-4.5-6.5-6.684-9.851C11.245 2.197 8.295 0 5.513 0 4.668 0 3.84.203 3.067.66" mask="url(#r)"/>
        </g>
        <g transform="translate(100.93 431.971)">
            <mask id="u" fill="#fff">
                <use xlink:href="#s"/>
            </mask>
            <path fill="url(#t)" d="M3.067.66a3.081 3.081 0 0 0-.21.129C-.043 2.699.04 6.904.445 10.35l2.147 18.261c.625 5.317 1.255 10.685.698 16.01-.323 3.139-1.04 6.417-.82 9.509v.009c.104 1.41.4 2.782 1.017 4.082 1.838 3.88 6.257 6.38 7.136 10.584.575 2.732-.515 5.514-.674 8.3-.338 5.788 3.265 10.977 6.708 15.646 1.492 2.021 3.024 4.078 4.692 5.98H45.36a295.284 295.284 0 0 0-5.176-15.314c-6.188-16.888-13.718-33.369-21.21-49.735C13.883 22.573 8.8 11.463 3.71.35c-.22.086-.434.186-.644.31" mask="url(#u)"/>
        </g>
        <g>
            <path fill="#BACDEF" d="M197.332 537.672c0 25.546-26.68 17.645-59.346 17.645-32.667 0-58.95 7.901-58.95-17.645s26.676-31.103 59.342-31.103c32.667 0 58.954 5.557 58.954 31.103"/>
            <path fill="#EFB9B9" d="M291.104 347.772c0-1.05 7.195-6.522 4.83-7.837-2.249-1.248-10.355 9.618-11.141 10.68 2.298-1.26 6.311-2.843 6.311-2.843"/>
            <path fill="#FBBEBE" d="M303.302 338.372c-1.307 2.829-8.036 6.492-10.146 7.519-2.745 1.616-6.066 3.463-8.363 4.725l-.066.09c1.05.176 4.378 6.218 4.378 6.218 5.778-1.576 15.574-13.34 17.514-18.565 2.013-5.428-1.215-4.54-3.317.013"/>
            <path fill="#3F3D56" d="M240.54 389.463c15.9 35.855 29.308 158.605 16.525 157.763 0 0-8.108 5.611-13.097-12.159 0 0-29.93-116.609-22.447-141.552l19.018-4.052z"/>
            <path fill="#2D2D49" d="M246.839 543.48s-3.877 11.827-.612 13.306c3.265 1.478 10.204.493 10.204.493s8.162-1.233 10.203-.986c2.04.247 10.407-1.725 9.183-5.668-1.224-3.942-7.55-2.957-7.55-2.957l-5.715-3.202s-.611-2.464-2.04-1.479c-1.428.987-5.51 4.681-13.673.494"/>
            <path fill="#3F3D56" d="M207.802 389.463c-17.865 10.349-25.253 157.762-9.977 161.193 0 0 12.471 6.547 14.966-29.932 0 0 22.431-113.097 22.438-130.13 0 0-22.226-4.145-27.427-1.131"/>
            <path fill="#2D2D49" d="M193.88 545.75s-3.878 11.827-.613 13.305c3.266 1.479 10.203.493 10.203.493s8.163-1.232 10.204-.985c2.04.246 10.407-1.726 9.183-5.668-1.225-3.942-7.55-2.956-7.55-2.956l-5.715-3.203s-.611-2.464-2.04-1.479c-1.428.986-5.51 4.682-13.673.493"/>
            <path fill="#FBBEBE" d="M239.785 302.918c0 7.796-4.547 14.113-10.158 14.113-5.609 0-10.155-6.317-10.155-14.113 0-7.796 4.546-14.114 10.155-14.114 5.611 0 10.158 6.318 10.158 14.114"/>
            <path fill="#FBBEBE" d="M234.305 333.464c-1.743 4.442-3.754 8.397-5.422 8.397-4.484 0-10.788-8.785-14.237-14.196l7.097-17.262 10.196 1.384s-.206 1.022-.42 2.647c-.046.35-.095.74-.138 1.15-.555 4.973-.84 13.572 2.924 17.88"/>
            <path fill="#FFF" d="M292.578 359.226s-15.772 23.108-34.228 18.093c0 0-5.93-1.322-10.627-3.824-1.023-.543-1.987-1.145-2.824-1.8 0 0 .044.496.092 1.332.25 4.094.713 16.315-2.535 17.737 0 0-22.433 8.7-38.285 2.395a24.364 24.364 0 0 1-1.57-.681l-.155-.096h-.005c-2.321-1.444-29.42-18.583-23.801-31.693 0 0 28.748-36.218 36.007-33.023 7.256 3.194 9.753 14.196 14.236 14.196 1.667 0 3.68-3.957 5.422-8.399.255.29.52.57.814.82 6.603 5.624 20.782 22.248 28.854 25.671 8.068 3.424 15.65-14.179 19.802-13.934 4.159.244 9.047 11.245 8.803 13.206"/>
            <path fill="#28151D" d="M232.238 295.523c11.462 3.09 7.337-10.978-2.785-12.702-10.123-1.725-14.45-.582-15.164 9.632-.717 10.216-12.776 6.162-10.982 14.543 1.797 8.382-12.424 6.926-13.986 21.614-1.561 14.687 1.64 18.267 4.63 18.9 5.785 1.223 14.99-1.862 16.786-8.452 5.674-20.826 14.058-21.256 13.473-31.682-.938-16.684 3.903-12.966 8.028-11.853"/>
            <path fill="#3D94D6" d="M210.397 374.642l5.37-15.092 22.932 6.804-9.522 33.206-21.788-9.833s7.437-9.818 5.7-12.985c-.732-1.332-2.692-2.1-2.692-2.1"/>
            <path fill="#E5AEAE" d="M231.519 315.19c-.047.35-.095.74-.137 1.15-2.652-.41-4.5-1.954-4.634-2.065 1.603.756 3.414.926 4.771.915"/>
            <path fill="#000" d="M244.9 371.695s.043.496.09 1.331c-1.538-4.866-3.8-11.337-6.192-15.99-3.412-6.64 4.57 7.172 8.924 16.459-1.022-.543-1.987-1.145-2.822-1.8" opacity=".1"/>
            <path fill="#313144" d="M229.846 409.666s-4.894 45.755-6.51 56.015c0 0 6.768-25.346 6.51-56.015"/>
            <path fill="#FBBEBE" d="M211.774 380.047s13.975-.814 14.314.506c0 0 .464 1.017-7.835 2.738-.075.015 12.429 3.31 12.161 4.738-.268 1.427-1.268 2.679-3.365 2.88-1.454.141-14.059-.042-18.073-3.423l2.798-7.439z"/>
            <path fill="#E5E5E5" d="M214.597 376.717s-1.262 9.477-10.425 16.442a24.175 24.175 0 0 1-1.572-.681l-.154-.096c4.276-4.547 10.101-11.555 9.633-15.548 0 0-20.632-6.987-16.772-12.439l6.91-7.47-5.5 9.712s16.688 7.236 17.88 10.08"/>
            <path fill="#D9E6FD" d="M233.72 371.041a.523.523 0 0 1-.158-.024l-14.884-4.616a.533.533 0 0 1 .315-1.018l14.884 4.616a.533.533 0 0 1-.157 1.042M231.917 375.042a.535.535 0 0 1-.157-.024l-14.885-4.616a.534.534 0 0 1 .316-1.018L232.075 374a.533.533 0 0 1-.158 1.042M230.776 379.176a.544.544 0 0 1-.156-.024l-14.884-4.616a.533.533 0 0 1 .314-1.017l14.886 4.615a.533.533 0 0 1-.16 1.042"/>
            <path fill="#000" d="M228.962 347.986c-4.24 0-8.303-5.41-12.247-10.661a213.972 213.972 0 0 0-1.778-2.348.534.534 0 0 1 .845-.65c.597.775 1.192 1.567 1.785 2.358 4.218 5.616 8.585 11.423 12.678 10.019 4.699-1.608 5.761-8.164 5.772-8.23a.532.532 0 1 1 1.052.16c-.045.296-1.167 7.26-6.478 9.076a5 5 0 0 1-1.629.276M200.895 388.919a.534.534 0 0 1-.227-1.016c4.485-2.087 7.239-11.617 7.265-11.713a.533.533 0 0 1 1.025.291c-.117.411-2.919 10.096-7.84 12.388a.53.53 0 0 1-.223.05M289.188 360.924a.533.533 0 0 1-.527-.462c-.71-5.336-7.04-11.18-7.104-11.24a.53.53 0 0 1-.033-.75.53.53 0 0 1 .752-.035c.272.248 6.678 6.163 7.44 11.884a.532.532 0 0 1-.528.603" opacity=".1"/>
            <path fill="#FBBEBE" d="M411.499 468.566s-14.335 63.298-14.848 79.025c0 0 .808 1.43 6.884 0 0 0 28.897-32.226 18.33-61.36 0 0 2.5-9.135 14.296-18.501l-24.662.836z"/>
            <path fill="#FBBEBE" d="M453.558 465.504c-1.015 11.592-6.308 14.69-6.666 19.61-.357 4.924 16.078 20.333-.723 67.514l-6.076 4.406s-10.008-65.715-7.148-86.173l20.613-5.357z"/>
            <path fill="#FC6681" d="M447.282 549.405s2.389 13.005-.729 13.005c0 0-2.494-6.754-4.365-6.182 0 0-11.224 6.182-15.588 6.182 0 0 6.25-9.157 12.387-13.005h8.295zM403.535 547.59s2.388 13.005-.73 13.005c0 0-2.494-6.753-4.364-6.182 0 0-11.224 6.182-15.59 6.182 0 0 7.667-9.156 13.8-13.004h6.884z"/>
            <path fill="#E5AEAE" d="M410.702 488.164c-.183 0-.357-.035-.52-.105-1.088-.458-1.021-2.198-1.01-2.396a.533.533 0 0 1 1.064.06c-.027.481.086 1.241.36 1.355.065.029.666.205 2.446-1.742a.533.533 0 0 1 .786.718c-1.301 1.424-2.314 2.11-3.126 2.11M435.967 491.166c-.182 0-.355-.034-.52-.104-1.089-.458-1.021-2.2-1.01-2.397a.533.533 0 0 1 1.063.06c-.025.482.089 1.242.362 1.355.063.03.665.205 2.445-1.742a.532.532 0 1 1 .786.718c-1.301 1.424-2.312 2.11-3.126 2.11"/>
            <path fill="#3F3D56" d="M461.546 380.347c5.488-7.315 14.195 68.605 1.019 89.705 0 0-53.568 9.001-56.784-4.25 0 0 7.633-63.968 19.901-79 0 0 32.65-2.17 35.864-6.455"/>
            <path fill="#353549" d="M429.833 473.036c.369-14.146 1.422-28.117 3.788-42.125 1.384-8.186 2.455-16.34 3.027-24.665.283-4.133.754-8.208 1.167-12.322.249-2.488.214-5.513.619-8.275-.328.036-.654.072-.978.105-.099.888-.168 1.778-.234 2.641-.343 4.437-1.077 8.851-1.343 13.28a272.98 272.98 0 0 1-3.275 28.902c-2.37 14.124-3.447 28.2-3.822 42.46.348.001.7 0 1.051-.001M426.502 458.315c.083-2.317.097-4.69.413-6.986.298-2.178-.029-4.46.423-6.608.846-4.033 1.13-8.019 1.31-12.173.384-8.98 1.845-17.869 2.869-26.783.449-3.9 1.032-7.774 1.46-11.678.229-2.088.538-4.27.51-6.375-.007-.514-.024-1.036-.026-1.556-.364.035-.717.069-1.064.1-.003 1.102.035 2.216-.054 3.277-.416 4.936-1.137 9.806-1.708 14.716-.549 4.713-.975 9.463-1.685 14.147-.594 3.935-1.274 8.013-1.302 12.023-.036 4.692-.374 9.417-1.33 13.967-.396 1.886-.253 3.81-.352 5.746-.118 2.32-.383 4.628-.476 6.96-.213 5.304-.509 10.579-.73 15.861.357.015.717.026 1.077.038.214-4.886.489-9.766.665-14.676M421.961 459.153c.597-8.517 2.443-16.807 3.156-25.319.718-8.585 1.363-17.07 1.363-25.707 0-4.543.334-8.993.696-13.514.197-2.473.19-5.319.568-7.964-.366.03-.694.053-.97.074-.142 1.283-.212 2.584-.313 3.854-.348 4.332-.707 8.663-1.039 12.997-.343 4.488.087 9.077-.193 13.589-.275 4.47-.44 8.89-.882 13.351-.458 4.635-.725 9.279-1.456 13.872-.665 4.164-1.365 8.286-1.791 12.498-.459 4.536-.378 9.076-.596 13.628-.034.717-.075 1.433-.12 2.149.343.033.69.063 1.042.092.316-4.53.22-9.073.535-13.6M417.555 459.323c.52-4.289.812-8.608 1.386-12.89.53-3.937 1.329-7.791 1.756-11.757.917-8.495 1.054-17.133 1.509-25.677.233-4.35.501-8.678.844-13.015.143-1.812.168-3.7.256-5.577a41.317 41.317 0 0 0-1.112 2.158c-.116 3.878-.586 7.744-.79 11.613-.473 9.013-.769 18.065-1.45 27.06-.352 4.64-1.112 9.122-1.857 13.681-.705 4.31-.992 8.71-1.449 13.06-.486 4.671-1.09 9.272-1.57 13.891.327.069.66.136.998.199.422-4.246.964-8.477 1.48-12.746M463.214 432.435c1.698-8.439 3.705-16.776 5.3-25.245-.12-1.353-.249-2.678-.386-3.971a143.12 143.12 0 0 1-.462 2.767c-1.714 9.57-4.062 18.951-5.941 28.473-1.76 8.924-2.901 18.01-4.463 26.989-.559 3.211-.917 6.383-1.15 9.548.31-.04.607-.08.897-.12.321-3.44.877-6.84 1.469-10.24 1.637-9.392 2.86-18.87 4.736-28.2"/>
            <path fill="#FFD892" d="M405.78 465.802c.009.036.023.07.034.107.081-.765.163-1.53.242-2.293-.183 1.405-.275 2.186-.275 2.186"/>
            <path fill="#353549" d="M410.045 470.255c.244-3.71.588-7.42 1.071-11.162 1.04-8.063 2.12-16.179 2.13-24.348.005-4.344.986-8.513 1.507-12.794.472-3.89.853-7.8 1.285-11.698a240.637 240.637 0 0 0-1.926 7.654c-.095.913-.19 1.827-.275 2.741-.37 4.018-1.433 7.924-1.615 11.955-.183 4.07-.133 8.062-.519 12.128-.443 4.69-1.012 9.362-1.605 14.028-.469 3.674-.813 7.315-1.066 10.961.32.188.657.366 1.013.535M452.333 457.812c.45-4.01.805-8.088 1.064-12.12.32-4.999 1.451-9.786 2.218-14.704 1.325-8.501 2.11-17.109 3.406-25.615.652-4.277 1.613-8.487 2.125-12.791.254-2.123.57-4.221 1.032-6.296.464-2.086.317-3.85 1.043-5.829-.312-.404-.62-.612-.926-.602-1.11 2.88-1.22 6.118-1.736 9.205-.755 4.528-1.396 9.078-2.172 13.61-1.583 9.257-2.388 18.686-3.79 27.983-.584 3.865-1.657 7.726-2.006 11.623-.399 4.447-.73 8.895-1.103 13.347-.457 5.46-1.417 10.802-2.15 16.188.358-.037.708-.076 1.056-.115.624-4.623 1.416-9.218 1.94-13.884M435.524 460.102c.488-8.952 1.603-17.643 2.741-26.5 1.06-8.246 1.946-16.525 2.939-24.783.948-7.905 1.43-15.896 2.413-23.795-.362.05-.722.096-1.08.141-.944 7.744-1.422 15.572-2.352 23.32-1.039 8.646-1.978 17.31-3.088 25.944-1.055 8.207-2.125 16.23-2.568 24.53-.248 4.68-.65 9.34-.971 14.005.357-.012.713-.024 1.07-.038.299-4.271.663-8.536.896-12.824M455.836 457.642c.704-4.808 1.512-9.594 2.313-14.379.746-4.436 1.048-8.963 1.643-13.429 1.724-12.933 4.862-25.708 6.647-38.668a90.292 90.292 0 0 0-.663-3.3c-.739 5.986-1.836 11.94-3.012 17.78-1.716 8.524-3.195 17.325-4.266 26-1.113 9.006-2.54 17.893-3.858 26.86-.627 4.263-1.035 8.551-1.343 12.85.375-.046.738-.09 1.094-.136.335-4.54.78-9.063 1.445-13.578M464.128 458.4c1.068-8.917 2.62-17.433 4.523-26.149.288-1.32.563-2.642.833-3.963-.005-1.736-.03-3.474-.072-5.204a401.518 401.518 0 0 1-2.036 9.998 274.565 274.565 0 0 0-4.41 26.183c-.444 3.695-1.047 7.337-1.603 10.979.51-.08.873-.137 1.056-.168.59-3.88 1.239-7.754 1.71-11.676M445.715 461.365c.455-9.105 2.742-18.14 4.63-26.937 1.908-8.87 3.849-17.794 5.14-26.826.571-3.979.81-7.991 1.184-11.997.396-4.242.242-9.497 1.712-13.494-.385.133-.796.263-1.231.392-.657 2.365-.777 4.95-1.007 7.411-.465 4.992-.8 10.012-1.37 14.99-1.085 9.456-3.234 18.795-5.197 28.035-1.763 8.292-3.677 16.575-4.638 25.067-.505 4.47-.357 8.995-.656 13.487-.019.273-.042.546-.064.819l1.039-.094c.211-3.617.276-7.225.458-10.853M443.994 456.613a133.112 133.112 0 0 0 1.56-10.57c.463-4.362.305-8.759.65-13.132.69-8.764 2.73-17.434 4.234-26.037 1.352-7.745 1.9-15.615 2.866-23.43-.356.073-.72.147-1.089.22-.866 7.233-1.383 14.53-2.594 21.695-1.41 8.368-3.328 16.7-4.236 25.172-.468 4.375-.41 8.74-.684 13.129-.287 4.627-1.083 9.206-1.934 13.725-.947 5.028-1.375 10.081-1.565 15.168.363-.026.726-.055 1.087-.083.226-5.308.709-10.567 1.705-15.857M442.715 429.91c1.612-8.599 2.717-17.191 3.802-25.902.515-4.144.822-8.315 1.315-12.462.164-1.371.649-2.917.652-4.29.003-.88-.044-1.983.132-2.957-.344.057-.692.11-1.042.165-.069.52-.106 1.058-.132 1.6-.191 3.923-.956 7.888-1.29 11.818a296.154 296.154 0 0 1-4.018 29.367c-2.816 14.998-4.724 30.235-5.337 45.58l1.05-.056c.556-14.414 2.23-28.809 4.868-42.863"/>
            <path fill="#FC6681" d="M447.143 342.06c8.675.756 13.677-25.06 26.189 0 12.51 25.062-8.578 53.656-43.25 54.013 0 0-10.007-1.072-2.859-10.722 0 0-3.003-23.24-2.574-36.463.428-13.222 12.88-19.848 18.27-17.964 5.39 1.883-4.45 10.382 4.224 11.137"/>
            <path fill="#FC6681" d="M421.097 343.218c-8.317-5.696-14.962 20.685-1.022 28.55 13.94 7.863 10.156-22.294 1.022-28.55"/>
            <path fill="#F8F8F8" d="M419.42 350.007l21.782.902 5.601 52.422-23.464-1.929z"/>
            <path fill="#FBBEBE" d="M417.572 341.949c1.915-8.413 11.225 15.205 4.718 15.542-6.506.337-6.147-9.26-4.718-15.542M427.584 387.734s-11.084-6.285-12.87.849c-1.787 7.133 2.282 6.429 12.936 2.849s-.066-3.698-.066-3.698"/>
            <path fill="#FC6681" d="M427.65 382.77c-9.413-1.485-8.577 17.302 15.514 11.728 24.093-5.574 29.082-19.837 30.343-22.73 1.26-2.894-13.392-12.037-13.392-12.037s-21.142 24.827-32.465 23.039"/>
            <path fill="#FBBEBE" d="M439.297 303.842c-.757 7.185 2.818 13.451 7.989 13.998 5.17.545 9.977-4.837 10.735-12.022.759-7.184-2.818-13.45-7.99-13.995-5.17-.547-9.976 4.835-10.734 12.02"/>
            <path fill="#FBBEBE" d="M439.955 335.667c1.267 4.598 2.853 8.744 4.51 8.919 4.46.47 11.65-7.605 15.65-12.624l-5.247-17.91-10.287.306s.1 1.038.141 2.675c.01.355.017.747.017 1.16.03 5.003-.588 13.584-4.784 17.474"/>
            <path fill="#E5AEAE" d="M444.722 317.034c.012.354.018.746.018 1.158 2.68-.13 4.679-1.472 4.823-1.568-1.673.583-3.492.563-4.841.41"/>
            <path fill="#28151D" d="M440.365 289.532c.61 6.9 7.32 1.177 11.438 9.868 4.12 8.693 4.647 20.488 10.366 8.52 5.719-11.97 3.574-14.422 0-16.235-3.575-1.812 17.157.426 2.859-11.678-8.293-7.02-12.51 5.933-12.51 5.933s-12.633-1.85-12.153 3.592"/>
            <path fill="#000" d="M445.487 374.199s12.82-10.241 12.827-20.634l1.8 6.165s-3.157 9.394-14.627 14.469" opacity=".1"/>
            <path fill="#D9E6FD" d="M423.953 360.636c.05.016.104.024.16.024l15.582.008a.534.534 0 0 0 .534-.533.534.534 0 0 0-.533-.532l-15.583-.008a.534.534 0 0 0-.16 1.04M424.488 364.992c.05.016.103.024.158.023l15.583.008a.53.53 0 1 0 .001-1.065l-15.582-.007a.533.533 0 0 0-.16 1.04M424.35 369.278a.52.52 0 0 0 .158.023l15.584.008a.532.532 0 1 0 0-1.064l-15.583-.008a.533.533 0 0 0-.16 1.041M424.488 373.571c.05.015.103.023.158.023l15.584.008a.531.531 0 1 0 0-1.064l-15.582-.008a.533.533 0 0 0-.16 1.041"/>
            <path fill="#000" d="M445.108 349.846c-.35 0-.694-.055-1.034-.167-2.469-.815-4.06-4.406-5.337-7.293-.278-.623-.535-1.207-.781-1.71-.201-.411-.418-.83-.634-1.252-1.167-2.27-2.375-4.616-1.554-6.28.43-.87 1.32-1.417 2.724-1.67.29-.056.566.14.619.428a.534.534 0 0 1-.43.62c-1.048.189-1.689.547-1.959 1.093-.583 1.183.548 3.381 1.546 5.321.22.429.44.855.645 1.272.252.517.517 1.115.797 1.748 1.13 2.55 2.677 6.044 4.698 6.711.673.223 1.372.121 2.133-.312 4.174-2.37 13.76-9.389 15.052-14.803a.533.533 0 0 1 1.036.247c-1.387 5.807-11.084 12.939-15.562 15.482-.662.377-1.317.565-1.959.565" opacity=".1"/>
            <path fill="#3F3D56" d="M536.19 395.784s-1.666 138.589-11.728 156.908h-8.234s-5.422-59.053-5.193-86.21l25.155-70.698z"/>
            <path fill="#3F3D56" d="M508.52 394.468s-31.28 101.4-40.719 158.818h8.808s57.223-105.95 58.402-141.313c0 0-3.828-31.141-26.49-17.505"/>
            <path fill="#FBBEBE" d="M520.84 410.458l-5.256 7.36 5.256 6.984 6.517-8.752zM505.415 338.415s-1.677-15.178-3.124-15.288c0 0-1.154-.301-1.459 8.954-.002.083-5.732-12.718-7.183-12.153-1.45.565-2.586 1.883-2.42 4.176.117 1.59 2.591 15.104 6.872 18.762l7.314-4.45z"/>
            <path fill="#3D94D6" d="M520.84 361.45s-11.385-30.403-15.87-26.648c0 0-4.779 3.168-8.139 4.72-7.235 3.345-1.5 16.47 17.735 42.049l6.274-20.122z"/>
            <path fill="#FBBEBE" d="M521.314 297.872c-.336 7.843-2.905 15.25 8.68 15.208 5.649-.021 10.837-5.256 11.661-13.06.824-7.806-3.061-14.615-8.679-15.208-5.618-.592-10.95-3.532-11.662 13.06"/>
            <path fill="#FBBEBE" d="M543.927 328.423c-4.344 5.452-12.155 14.227-17.001 13.716-1.8-.192-3.52-4.696-4.9-9.69 4.287-3.978 5.134-12.477 5.193-17.993.005-.34.005-.676.005-.995 0-.181 0-.363-.005-.533 0-.256-.006-.495-.01-.724-.049-1.779-.157-2.907-.157-2.907l11.177-.335 5.698 19.461z"/>
            <path fill="#E5AEAE" d="M527.219 314.456c.005-.34.005-.676.005-.995 0-.181 0-.362-.005-.533 1.793.186 4.148.186 6.326-.57-.186.127-2.802 1.88-6.326 2.098"/>
            <path fill="#28151D" d="M535.767 277.904c-4.984-.941-8.31.448-13.58-1.339-5.272-1.785-4.335 2.613-1.303 4.59 0 0 .393 3.071-4.167-.506-4.56-3.578-2.033 8.447 9.12 8.693 0 0 10.876-.096 11.157 4.373 0 0-4.682 18.11 2.234 15.477 0 0 9.047-1.943 4.7-21.554 0 0-1.508-8.478-8.161-9.734"/>
            <path fill="#3D94D6" d="M528.916 420.36l-10.856-10.863s3.45-6.134 4.2-12.758c.05-.458.09-.927.113-1.39 0 0-.82.314-2.076.667-5.027 1.416-17.007 3.391-10.937-12.19 0 0 2.929-39.929 12.667-51.377 0 0 14.435.788 20.595-8.472 4.032-6.054 23.563 66.73-13.706 96.382"/>
            <path fill="#000" d="M522.26 396.74c.05-.46.091-.928.113-1.39 0 0-.821.314-2.077.666 2.513-4.229 8.499-16.13 11.213-37.114 0 0-.25 24.552-9.248 37.837" opacity=".1"/>
            <path fill="#2F2E41" d="M476.609 553.286s2.788 7.544-1.848 8.02c0 0-19.856 2.02-20.807.594 0 0-3.01-1.47 13.833-9.058l8.822.444zM524.823 551.977s2.86 8.022-1.775 8.497c0 0-19.856 2.021-20.807.595 0 0-3.01-1.472 13.833-9.058l8.749-.034z"/>
            <path fill="#353549" d="M514.394 413.897s4.223 10.8 9.214 12.552l-.457 2.431s-10.51-4.476-10.994-14.497l2.237-.486zM515.125 428.721l-.824 2.361.893.312.825-2.361zM513.898 432.238l-.824 2.362.895.312.824-2.362zM512.672 435.756l-.824 2.363.893.311.824-2.362zM511.445 439.274l-.825 2.362.895.313.824-2.362zM510.219 442.792l-.824 2.363.894.311.823-2.36zM508.992 446.31l-.824 2.363.893.311.824-2.362zM507.765 449.829l-.824 2.361.895.313.823-2.363zM506.538 453.346l-.824 2.363.893.312.824-2.363zM505.311 456.864l-.824 2.363.894.312.824-2.362zM504.085 460.382l-.823 2.361.892.314.824-2.363zM502.857 463.9l-.824 2.362.894.312.825-2.362zM501.632 467.418l-.825 2.362.894.312.825-2.362zM500.405 470.937l-.825 2.362.894.312.824-2.362zM499.178 474.454l-.825 2.362.895.311.824-2.362zM497.95 477.973l-.823 2.362.894.311.823-2.362zM496.724 481.49l-.824 2.362.894.312.823-2.362zM495.498 485.008l-.824 2.362.894.312.823-2.362zM494.27 488.526l-.823 2.362.893.313.824-2.362zM493.044 492.044l-.824 2.363.894.312.824-2.363zM491.817 495.562l-.824 2.362.893.312.824-2.361zM490.59 499.08l-.824 2.362.895.312.823-2.362zM489.364 502.598l-.824 2.362.893.313.824-2.363zM488.137 506.116l-.825 2.363.894.311.825-2.361zM486.911 509.634l-.825 2.362.894.312.825-2.363zM485.683 513.153l-.824 2.361.894.313.824-2.363zM484.457 516.67l-.824 2.362.895.312.823-2.362zM483.23 520.189l-.824 2.362.894.312.823-2.363zM482.003 523.706l-.824 2.361.895.312.822-2.361zM480.776 527.223l-.824 2.363.895.312.823-2.361zM479.55 530.742l-.824 2.362.893.312.824-2.362zM478.322 534.26l-.823 2.362.894.311.825-2.361zM477.096 537.778l-.824 2.362.893.312.825-2.361zM475.87 541.296l-.825 2.363.894.31.824-2.362zM474.643 544.815l-.825 2.36.895.313.823-2.362zM473.416 548.332l-.824 2.362.894.312.823-2.362zM514.412 405.378c-6.104 0-6.713-2.132-6.768-2.417a.533.533 0 0 1 1.042-.221c.032.09.949 2.313 9.676 1.325a.533.533 0 0 1 .12 1.059 36.637 36.637 0 0 1-4.07.254"/>
            <path fill="#000" d="M524.847 338.287c-1.21 0-1.958-.067-1.993-.07a.534.534 0 0 1 .104-1.06c.156.014 15.575 1.388 20.49-8.962a.532.532 0 1 1 .961.456c-4.13 8.698-15.05 9.636-19.562 9.636M510.339 374.731a.533.533 0 0 1-.53-.591c.632-5.752 4.198-25.25 4.233-25.447a.532.532 0 0 1 1.046.192c-.035.195-3.592 19.657-4.22 25.372a.534.534 0 0 1-.53.474M495.15 346.151a.534.534 0 0 1-.066-1.06c6.424-.806 11.761-8.006 11.815-8.079a.532.532 0 1 1 .859.63c-.228.31-5.659 7.641-12.542 8.505a.57.57 0 0 1-.067.004M531.222 417.277a.532.532 0 0 1-.505-.362c-2.05-6.091-10.445-7.92-10.53-7.937a.533.533 0 0 1 .217-1.042c.371.077 9.08 1.977 11.322 8.639a.533.533 0 0 1-.504.702" opacity=".1"/>
            <path fill="#AFC1E7" d="M597.812 384.817c12.843 0 23.236-13.405 23.236-29.971M571.883 354.51c14.332 0 25.93 13.556 25.93 30.307"/>
        </g>
        <g transform="translate(597.617 355.83)">
            <mask id="x" fill="#fff">
                <use xlink:href="#v"/>
            </mask>
            <path fill="url(#w)" d="M.195 28.987c8.19 0 14.816-12.734 14.816-28.47L.195 28.988z" mask="url(#x)"/>
        </g>
        <g transform="translate(567.515 346.091)">
            <mask id="A" fill="#fff">
                <use xlink:href="#y"/>
            </mask>
            <path fill="url(#z)" d="M30.297 38.726C30.297 17.32 16.892 0 .327 0l29.97 38.726z" mask="url(#A)"/>
        </g>
        <g>
            <path fill="#A3B5DE" d="M601.5 388.29c-.991.604-5.915 1.212-9.635 1.183-3.72-.03.985-4.536 1.232-5.67.246-1.136 4.322-.291 5.315.416.993.708 4.288.809 4.288.809s-.209 2.658-1.2 3.261"/>
            <path fill="#BACDEF" d="M488.47 102.368s4.31-5.663 6.953-8.259c4.757-4.674 10.214-12.934 27.664-6.846 1.356.473 2.67 1.101 3.976 1.732 1.538.745 6.303.764 11.184-3.662 7.754-7.033 10.787-12.34 21.412-12.504 12.363-.193 14.306 17.41 23.915 21.916 6.114 2.867 22.246 5.717 25.582 6.987l-120.686.636zM228.175 148.443s-4.559-5.99-7.353-8.734c-5.032-4.944-10.803-13.681-29.259-7.242-1.435.5-2.823 1.165-4.205 1.833-1.626.788-6.667.807-11.828-3.873-8.203-7.438-11.41-13.052-22.647-13.226-13.076-.204-15.132 18.415-25.293 23.18-6.468 3.031-23.53 6.047-27.058 7.39l127.643.672z"/>
            <path fill="#AFC1E7" d="M403.564 56.528a7.722 7.722 0 0 1-7.177-8.234 7.723 7.723 0 1 1 15.41 1.056 7.724 7.724 0 0 1-8.233 7.178M388.697 53.187a2.703 2.703 0 1 1 .368-5.394 2.703 2.703 0 0 1-.368 5.394M609.544 155.898a7.473 7.473 0 0 1-4.386 9.617 7.474 7.474 0 1 1 4.386-9.617M612.544 170.335a2.617 2.617 0 1 1-4.902 1.83 2.617 2.617 0 0 1 4.902-1.83M64.015 213.723a7.474 7.474 0 1 1-10.431-10.708 7.474 7.474 0 0 1 10.431 10.708M52.012 222.287a2.616 2.616 0 1 1-3.652-3.749 2.616 2.616 0 0 1 3.652 3.75"/>
            <path fill="#4CBA7E" d="M59.149 349.78c0-1.073.94-1.81 1.795-1.4 5.57 2.66 23.154 9.5 39.211-.924 17.458-11.333 26.155.188 27.716 2.6.17.26.258.575.258.902v26.194c0 1.087-.955 1.818-1.815 1.387-3.54-1.774-12.59-4.44-29.973 1.141-19.7 6.325-32.488 4.529-36.125 3.777-.62-.127-1.067-.755-1.067-1.487v-32.19z"/>
            <path fill="#6ACC92" d="M105.471 366.337c0 7.092-5.748 12.84-12.84 12.84-7.09 0-12.839-5.748-12.839-12.84 0-7.09 5.749-12.84 12.84-12.84s12.84 5.75 12.84 12.84"/>
            <path fill="#FFF" d="M87.242 364.53h1.177c.18 0 .37-.008.57-.02.2-.013.381-.052.543-.115a.93.93 0 0 0 .403-.3c.107-.138.161-.33.161-.578 0-.23-.048-.412-.141-.55a.949.949 0 0 0-.358-.312 1.576 1.576 0 0 0-.5-.147 3.919 3.919 0 0 0-.55-.04h-1.305v2.061zm-1.996-3.75h3.506c.46 0 .898.045 1.311.134.414.09.776.24 1.088.448.312.21.56.49.742.845.184.353.275.795.275 1.324 0 .64-.166 1.184-.499 1.631-.332.448-.818.731-1.458.852l2.303 3.825h-2.393l-1.894-3.622h-.985v3.622h-1.996v-9.059zM95.24 366.73c0 .469.133.849.402 1.138.27.29.647.436 1.133.436s.864-.146 1.133-.436c.267-.29.403-.67.403-1.139 0-.468-.136-.848-.403-1.138-.27-.29-.647-.435-1.133-.435s-.864.145-1.133.435c-.269.29-.403.67-.403 1.138zm-1.766-3.11h1.765v.819h.026a2.267 2.267 0 0 1 .735-.652c.167-.094.348-.171.544-.23.196-.06.406-.091.627-.091.46 0 .88.08 1.255.237.374.159.697.38.965.666.269.285.476.625.621 1.017.146.393.218.824.218 1.292 0 .436-.066.852-.199 1.248a3.42 3.42 0 0 1-.563 1.056 2.74 2.74 0 0 1-.889.736c-.35.183-.746.275-1.19.275-.401 0-.774-.062-1.12-.185a1.799 1.799 0 0 1-.85-.634h-.026v3.583h-1.919v-9.137zM101.394 368.739c0-.162.03-.315.09-.461.06-.146.143-.27.249-.378a1.163 1.163 0 0 1 .837-.338c.163 0 .317.03.462.089a1.15 1.15 0 0 1 .716 1.088 1.193 1.193 0 0 1-.34.838 1.15 1.15 0 0 1-.376.25c-.145.06-.299.089-.462.089-.162 0-.315-.03-.46-.089a1.163 1.163 0 0 1-.377-.25 1.159 1.159 0 0 1-.25-.377 1.21 1.21 0 0 1-.09-.461"/>
            <path fill="#4CBA7E" d="M136.097 384.055c0-.51.447-.86.853-.666 2.645 1.263 10.995 4.512 18.62-.439 8.291-5.382 12.422.09 13.163 1.234.08.125.123.274.123.43v12.438c0 .517-.454.864-.863.66-1.68-.842-5.98-2.109-14.234.541-9.354 3.004-15.428 2.15-17.155 1.794-.294-.061-.507-.359-.507-.706v-15.286z"/>
            <path fill="#6ACC92" d="M158.096 391.916a6.098 6.098 0 1 1-12.196.002 6.098 6.098 0 0 1 12.196-.002"/>
            <path fill="#FFF" d="M149.438 391.058h.56c.085 0 .175-.003.27-.009a.832.832 0 0 0 .258-.055.449.449 0 0 0 .192-.142.437.437 0 0 0 .076-.274.448.448 0 0 0-.068-.261.448.448 0 0 0-.169-.149.76.76 0 0 0-.237-.07 1.898 1.898 0 0 0-.262-.018h-.62v.978zm-.947-1.78h1.665c.219 0 .426.022.623.064.195.042.368.113.516.213.149.099.265.232.352.4.088.168.131.379.131.63 0 .304-.079.561-.237.774-.158.212-.389.347-.692.404l1.093 1.817h-1.136l-.9-1.72h-.468v1.72h-.947v-4.303zM153.237 392.103c0 .223.063.403.192.54.126.14.305.207.537.207.23 0 .41-.068.538-.207a.765.765 0 0 0 .19-.54.768.768 0 0 0-.19-.54c-.128-.139-.308-.208-.538-.208-.232 0-.41.07-.537.207a.762.762 0 0 0-.192.541zm-.839-1.477h.839v.389h.012a1.018 1.018 0 0 1 .349-.309c.079-.045.165-.081.258-.11a1.02 1.02 0 0 1 .298-.042c.218 0 .418.037.596.112.178.075.33.18.46.315.126.137.224.298.293.484.07.187.104.391.104.614 0 .207-.031.404-.095.593a1.667 1.667 0 0 1-.267.5 1.316 1.316 0 0 1-.423.35 1.2 1.2 0 0 1-.565.13c-.19 0-.368-.029-.53-.088a.845.845 0 0 1-.405-.3h-.013v1.7h-.91v-4.338zM156.159 393.058a.538.538 0 0 1 .34-.517.57.57 0 0 1 .616.119c.052.05.092.11.12.178a.575.575 0 0 1-.119.617.57.57 0 0 1-.616.119.538.538 0 0 1-.298-.297.587.587 0 0 1-.043-.22"/>
            <path fill="#4CBA7E" d="M494.746 140.864c0-.683.597-1.152 1.142-.892 3.546 1.693 14.738 6.047 24.959-.588 11.112-7.213 16.648.12 17.642 1.654.107.166.164.367.164.575v16.673c0 .692-.608 1.157-1.155.883-2.254-1.129-8.015-2.826-19.079.726-12.54 4.027-20.679 2.883-22.994 2.405-.395-.082-.68-.481-.68-.946v-20.49z"/>
            <path fill="#6ACC92" d="M524.23 151.402a8.172 8.172 0 1 1-16.344 0 8.172 8.172 0 0 1 16.345 0"/>
            <path fill="#FFF" d="M512.627 150.251h.75c.115 0 .234-.004.362-.012.127-.008.243-.033.346-.073a.607.607 0 0 0 .257-.19.59.59 0 0 0 .102-.368.602.602 0 0 0-.09-.35.592.592 0 0 0-.229-.2 1.022 1.022 0 0 0-.316-.093 2.513 2.513 0 0 0-.351-.025h-.83v1.311zm-1.27-2.386h2.232c.293 0 .571.029.834.085.264.058.495.153.693.286.198.132.355.312.472.537.117.226.175.506.175.843 0 .407-.106.754-.317 1.038-.212.285-.521.466-.928.542l1.465 2.435h-1.523l-1.206-2.305h-.627v2.305h-1.27v-5.766zM517.718 151.652c0 .3.086.54.257.725.17.184.41.277.72.277s.55-.093.721-.277c.171-.185.256-.426.256-.725 0-.298-.085-.54-.256-.724-.17-.184-.411-.278-.72-.278-.31 0-.551.094-.721.278-.17.184-.257.426-.257.724zm-1.124-1.979h1.124v.522h.017a1.442 1.442 0 0 1 .467-.415c.106-.062.222-.11.346-.147a1.37 1.37 0 0 1 .4-.058c.293 0 .56.05.798.15.24.101.444.243.614.425.172.182.303.397.396.647.092.25.139.524.139.822 0 .277-.043.542-.128.795a2.154 2.154 0 0 1-.357.671 1.738 1.738 0 0 1-.567.469 1.602 1.602 0 0 1-.757.175c-.255 0-.493-.039-.713-.118-.22-.078-.4-.213-.541-.402h-.016v2.28h-1.222v-5.816zM521.635 152.93a.761.761 0 0 1 .216-.533.759.759 0 0 1 .827-.158.73.73 0 0 1 .456.692.755.755 0 0 1-.216.534.765.765 0 0 1-.826.158.722.722 0 0 1-.4-.4.755.755 0 0 1-.057-.292"/>
            <path fill="#4CBA7E" d="M549.638 176.68c0-.744.649-1.253 1.241-.97 3.855 1.84 16.023 6.573 27.134-.64 12.08-7.841 18.097.13 19.178 1.799.117.18.178.399.178.625v18.126c0 .75-.66 1.256-1.255.96-2.45-1.228-8.714-3.073-20.741.788-13.63 4.377-22.48 3.133-24.997 2.614-.428-.089-.738-.524-.738-1.03V176.68z"/>
            <path fill="#6ACC92" d="M581.692 188.136a8.884 8.884 0 0 1-8.885 8.884 8.884 8.884 0 1 1 0-17.769 8.884 8.884 0 0 1 8.885 8.885"/>
            <path fill="#FFF" d="M569.077 186.884h.814c.125 0 .256-.004.394-.013.14-.008.265-.036.377-.08a.647.647 0 0 0 .279-.208c.073-.094.11-.228.11-.398a.664.664 0 0 0-.097-.381.66.66 0 0 0-.247-.217c-.101-.05-.216-.084-.346-.102a2.803 2.803 0 0 0-.38-.026h-.904v1.425zm-1.381-2.594h2.426c.318 0 .621.03.907.093.287.062.538.165.754.31.215.144.386.339.513.585.127.244.19.55.19.916 0 .443-.115.82-.346 1.128-.23.311-.566.507-1.01.589l1.595 2.647h-1.655l-1.31-2.505h-.683v2.505h-1.381v-6.268zM574.611 188.407c0 .324.092.587.28.788.184.2.446.3.783.3.336 0 .597-.1.783-.3.186-.2.278-.464.278-.788s-.092-.587-.278-.788c-.186-.2-.447-.3-.783-.3-.337 0-.599.1-.784.3-.187.2-.279.464-.279.788zm-1.222-2.152h1.222v.568h.018c.053-.077.122-.156.208-.236a1.61 1.61 0 0 1 .301-.217 1.84 1.84 0 0 1 .376-.158c.136-.042.28-.063.434-.063.319 0 .608.056.868.165a1.947 1.947 0 0 1 1.097 1.163c.1.272.151.57.151.895 0 .301-.045.589-.137.863a2.37 2.37 0 0 1-.39.73 1.914 1.914 0 0 1-.615.51c-.243.127-.517.19-.823.19-.278 0-.536-.043-.775-.128a1.23 1.23 0 0 1-.589-.439h-.017v2.48h-1.329v-6.323zM578.87 189.797a.82.82 0 0 1 .235-.58.784.784 0 0 1 .261-.173.837.837 0 0 1 .898.174.78.78 0 0 1 .173.261.837.837 0 0 1-.173.898.78.78 0 0 1-.261.173.838.838 0 0 1-.898-.173.821.821 0 0 1-.236-.58"/>
        </g>
    </g>
</svg>
