<svg xmlns="http://www.w3.org/2000/svg" xmlns:xlink="http://www.w3.org/1999/xlink" width="853" height="364" viewBox="0 0 853 364">
    <defs>
        <path id="a" d="M0 .236h852.971v362.968H.001z"/>
        <linearGradient id="b" x1="50%" x2="50%" y1="0%" y2="100%">
            <stop offset="0%" stop-color="#77BBFA"/>
            <stop offset="100%" stop-color="#4285F4"/>
        </linearGradient>
        <path id="d" d="M7.268 15.312c1.507 2.418 3.352 4.888 5.489 6.956.003.005.008.008.011.012.207.2.417.398.63.588.176.162.355.32.536.474.07.062.14.122.212.18h4.258c-.024-.055-.048-.114-.071-.171-.038-.091-.077-.18-.114-.271a51.224 51.224 0 0 0-.959-2.146c-.11-.228-.218-.455-.33-.683-.099-.2-.2-.402-.303-.604-.018-.038-.037-.079-.058-.118a61.524 61.524 0 0 0-.34-.654c-.118-.229-.24-.456-.364-.682a87.945 87.945 0 0 0-.326-.591c-.03-.052-.058-.105-.088-.156a80.502 80.502 0 0 0-.697-1.2v-.001l-.066-.108a42.395 42.395 0 0 0-.787-1.268 35.794 35.794 0 0 0-.418-.645 48.46 48.46 0 0 0-.866-1.277c-.146-.211-.295-.42-.445-.627v-.003c-.148-.201-.293-.402-.442-.602l-.033-.043c-.45-.611-.916-1.21-1.393-1.8-.308-.38-.62-.755-.937-1.126-.16-.186-.319-.37-.48-.554-.16-.184-.324-.365-.487-.547-.112-.125-.226-.248-.34-.371l-.014-.017-.33-.351-.144-.158-.017-.017c-.098-.104-.198-.209-.298-.312-.101-.103-.202-.205-.302-.31l-.117-.121A52.358 52.358 0 0 0 .134.203c3.37 4.626 4.102 10.244 7.134 15.109"/>
        <linearGradient id="e" x1="99.998%" x2="0%" y1="50.001%" y2="50.001%">
            <stop offset="0%" stop-color="#4BBA7E"/>
            <stop offset="100%" stop-color="#23E877"/>
        </linearGradient>
        <path id="g" d="M14.167 1.794l-3.331 4.285c-.144.185-.288.37-.434.552C9.57 7.694 8.704 8.734 7.67 9.588c-.445.367-.93.713-1.377 1.09a6.96 6.96 0 0 0-.609.565v.003a3.926 3.926 0 0 0-.541.715 2.86 2.86 0 0 0-.244.523c-.424 1.202-.027 2.652-.714 3.72-.247.385-.6.665-.97.931-.301.215-.613.424-.886.67C1.062 18.95.732 20.797.48 22.499l-.005.028H12.54c1.277-.868 2.994-1.412 3.468-2.87.629-1.943-1.466-4.146-.534-5.96.64-1.248 2.454-1.62 2.869-2.962.421-1.358-.878-2.63-1.092-4.04-.178-1.173.414-2.309.654-3.471.233-1.115-.087-2.568-1.123-2.894a1.41 1.41 0 0 0-.429-.068c-.87 0-1.62.803-2.186 1.532"/>
        <linearGradient id="h" x1="100.001%" x2=".003%" y1="50.001%" y2="50.001%">
            <stop offset="0%" stop-color="#4BBA7E"/>
            <stop offset="100%" stop-color="#23E877"/>
        </linearGradient>
        <path id="j" d="M14.54 1.794l-3.419 4.285a79.8 79.8 0 0 1-.445.552C9.82 7.694 8.932 8.734 7.87 9.588c-.455.367-.954.713-1.413 1.09-.22.179-.43.365-.624.565v.003a3.938 3.938 0 0 0-.556.715c-.1.163-.184.338-.25.523-.436 1.202-.028 2.652-.732 3.72-.254.385-.617.665-.997.931-.308.215-.629.424-.909.67C1.09 18.95.752 20.797.492 22.499l-.005.028h8.311c.39-.895.768-1.797 1.14-2.7 1.256-3.059 2.421-6.156 3.582-9.243L17.355.38c-.041-.019-.088-.035-.131-.05a1.485 1.485 0 0 0-.44-.068c-.894 0-1.663.802-2.244 1.531"/>
        <linearGradient id="k" x1="100.001%" x2=".004%" y1="50.001%" y2="50.001%">
            <stop offset="0%" stop-color="#4BBA7E"/>
            <stop offset="100%" stop-color="#23E877"/>
        </linearGradient>
        <path id="m" d="M.505 9.491c-.048.318-.086.633-.122.95A25.317 25.317 0 0 0 .24 12.38c-.058 1.544.001 3.1.105 4.652v.004c.025.377.054.753.082 1.131l.091 1.138v.003l.01.105c.022.274.043.548.067.822.035.417.068.836.098 1.256.228 3.025.345 6.082-.2 9.04h.244c.084-.112.163-.225.242-.339a12.5 12.5 0 0 0 .258-.382c.001-.004.005-.008.009-.011.065-.101.13-.203.191-.304.104-.166.202-.33.298-.498.08-.14.159-.282.235-.424.038-.07.076-.14.112-.211l.108-.212c.036-.07.07-.14.105-.211l.121-.256c.058-.123.114-.246.17-.371a22.27 22.27 0 0 0 .527-1.321h-.001l.01-.029c.05-.139.098-.28.146-.421l.013-.037c.046-.14.091-.279.134-.42l.069-.227v-.004c.073-.241.141-.484.207-.728.654-2.469.95-5.102 1.072-7.743.026-.554.044-1.11.06-1.665.134-4.754-.043-9.494.514-14.218C2.605 2.433 1.05 5.951.505 9.491"/>
        <linearGradient id="n" x1="99.995%" x2="0%" y1="50.001%" y2="50.001%">
            <stop offset="0%" stop-color="#4BBA7E"/>
            <stop offset="100%" stop-color="#23E877"/>
        </linearGradient>
        <path id="p" d="M1.35.61a.78.78 0 0 0-.076.046C.229 1.335.259 2.832.406 4.06l.772 6.5c.225 1.894.452 3.804.252 5.7-.116 1.117-.375 2.284-.296 3.385v.003c.038.502.145.991.366 1.453.662 1.383 2.253 2.271 2.57 3.769.208.972-.185 1.963-.242 2.954-.122 2.06 1.175 3.908 2.415 5.57.538.72 1.088 1.453 1.69 2.128H21.005c.052-.102.098-.205.139-.313.279-.717.348-1.57.287-2.417a9.69 9.69 0 0 0-.49-2.387 4.178 4.178 0 0 0-.287-.648v-.005c-.778-1.457-2.209-2.194-3.175-3.415a4.621 4.621 0 0 1-.515-.797 2.787 2.787 0 0 1-.247-.7c-.203-.96.065-1.992.366-3.03v-.005c0-.002 0-.006.002-.007.417-1.447.89-2.902.241-4.176a2.968 2.968 0 0 0-.36-.54l-.002-.003c-1.403-1.678-4.537-1.924-5.215-4.053-.513-1.609.75-3.485-.04-4.98-.8-1.516-3.02-1.476-4.417-2.486-1.16-.841-1.621-2.314-2.406-3.506C4.295 1.157 3.232.375 2.23.375c-.305 0-.604.072-.881.236"/>
        <linearGradient id="q" x1="50%" x2="50%" y1="-.001%" y2="100.001%">
            <stop offset="0%" stop-color="#4BBA7E"/>
            <stop offset="100%" stop-color="#23E877"/>
        </linearGradient>
        <path id="s" d="M1.375.61a.799.799 0 0 0-.078.046C.233 1.335.264 2.832.413 4.06l.787 6.5c.23 1.894.46 3.804.257 5.7-.119 1.117-.382 2.284-.302 3.385v.003c.039.502.148.991.373 1.453.674 1.383 2.295 2.271 2.618 3.769.211.972-.189 1.963-.247 2.954-.124 2.06 1.197 3.908 2.46 5.57.548.72 1.109 1.453 1.721 2.128H16.887a103.661 103.661 0 0 0-1.898-5.45c-2.27-6.013-5.032-11.88-7.78-17.706C5.342 8.411 3.477 4.456 1.61.499c-.081.031-.16.067-.236.112"/>
        <linearGradient id="t" x1="99.998%" x2="-.002%" y1="50.001%" y2="50.001%">
            <stop offset="0%" stop-color="#4BBA7E"/>
            <stop offset="100%" stop-color="#23E877"/>
        </linearGradient>
        <path id="v" d="M7.723 15.632c1.509 2.418 3.353 4.888 5.49 6.956.003.005.008.008.011.012.208.2.418.399.63.588.177.163.355.32.536.475.071.061.14.121.212.18h4.258l-.071-.172c-.037-.092-.076-.18-.113-.272l-.012-.027a44.03 44.03 0 0 0-.287-.663 23.23 23.23 0 0 0-.269-.604 13.855 13.855 0 0 0-.16-.354c-.076-.167-.154-.332-.23-.498-.11-.227-.22-.454-.332-.681-.098-.202-.2-.403-.302-.604-.02-.04-.037-.08-.059-.12a55.11 55.11 0 0 0-.34-.653 42.94 42.94 0 0 0-.363-.682c-.108-.198-.217-.395-.326-.591l-.089-.156a61.536 61.536 0 0 0-.698-1.201l-.065-.107a42.62 42.62 0 0 0-.374-.615 39.03 39.03 0 0 0-.412-.653 32.252 32.252 0 0 0-.42-.646 53.52 53.52 0 0 0-1.31-1.904v-.003c-.147-.201-.293-.402-.442-.602a59.509 59.509 0 0 0-2.363-2.97v.001l-.48-.554a57.07 57.07 0 0 0-.487-.546c-.112-.126-.226-.248-.339-.373a73.718 73.718 0 0 1-.343-.367c-.05-.053-.099-.105-.146-.159l-.016-.016c-.099-.104-.198-.21-.299-.312a23.823 23.823 0 0 1-.302-.31c-.04-.04-.077-.081-.117-.122A52.475 52.475 0 0 0 .59.522c3.369 4.626 4.1 10.246 7.133 15.11"/>
        <linearGradient id="w" x1="100%" x2="-.002%" y1="50.002%" y2="50.002%">
            <stop offset="0%" stop-color="#4BBA7E"/>
            <stop offset="100%" stop-color="#23E877"/>
        </linearGradient>
        <path id="y" d="M13.688 2.11l-3.283 4.286c-.14.184-.283.369-.426.551C9.158 8.01 8.304 9.05 7.286 9.905c-.438.366-.917.713-1.358 1.088-.211.18-.412.367-.599.567v.002c-.203.22-.385.457-.533.715-.097.164-.177.339-.24.524-.419 1.202-.027 2.652-.703 3.72-.244.384-.593.664-.957.93-.297.216-.604.424-.872.67C.775 19.267.45 21.114.202 22.815l-.005.03h11.888c1.257-.869 2.95-1.413 3.416-2.87.62-1.944-1.444-4.147-.526-5.962.632-1.248 2.418-1.618 2.827-2.961.415-1.359-.864-2.631-1.075-4.04-.176-1.174.407-2.309.644-3.472.23-1.115-.086-2.567-1.107-2.894a1.42 1.42 0 0 0-.422-.067c-.858 0-1.597.802-2.154 1.532"/>
        <linearGradient id="z" x1="100.002%" x2=".001%" y1="50%" y2="50%">
            <stop offset="0%" stop-color="#4BBA7E"/>
            <stop offset="100%" stop-color="#23E877"/>
        </linearGradient>
        <path id="B" d="M14.052 2.11l-3.37 4.286c-.145.184-.29.369-.438.551C9.401 8.01 8.525 9.05 7.48 9.905c-.45.366-.94.713-1.393 1.088-.217.18-.424.367-.615.567v.002c-.208.22-.396.457-.548.715-.099.164-.181.339-.247.524-.429 1.202-.027 2.652-.72 3.72-.25.384-.61.664-.983.93-.305.216-.62.424-.895.67C.796 19.267.463 21.114.208 22.815l-.005.03h8.19c.383-.896.757-1.797 1.123-2.701 1.238-3.059 2.387-6.156 3.53-9.244 1.26-3.4 2.522-6.802 3.78-10.203-.041-.019-.087-.034-.13-.05a1.495 1.495 0 0 0-.433-.067c-.881 0-1.64.801-2.211 1.53"/>
        <linearGradient id="C" x1="99.999%" x2=".001%" y1="50%" y2="50%">
            <stop offset="0%" stop-color="#4BBA7E"/>
            <stop offset="100%" stop-color="#23E877"/>
        </linearGradient>
        <path id="E" d="M.922 8.99a23.54 23.54 0 0 0-.122.941 25.4 25.4 0 0 0-.143 1.921c-.059 1.532.001 3.073.105 4.613v.003c.025.373.053.748.082 1.12l.09 1.13v.002l.01.105.067.815c.036.414.068.829.098 1.245.228 2.999.346 6.029-.2 8.961h.244a14.11 14.11 0 0 0 .5-.714 15.104 15.104 0 0 0 .2-.313h.001c.103-.164.201-.326.297-.493.08-.14.159-.28.236-.42.037-.071.075-.14.11-.21a12.047 12.047 0 0 0 .213-.42 17.949 17.949 0 0 0 .29-.621h.001l.008-.02c.13-.287.25-.578.364-.872.053-.139.104-.278.155-.417l.01-.029c.05-.138.098-.277.145-.418l.014-.037c.046-.138.091-.275.134-.415l.07-.226v-.004c.073-.238.14-.479.206-.721.655-2.448.951-5.058 1.072-7.676.026-.55.045-1.1.061-1.651.133-4.713-.044-9.411.513-14.094C3.021 1.992 1.467 5.48.922 8.99"/>
        <linearGradient id="F" x1="100.002%" x2=".004%" y1="50%" y2="50%">
            <stop offset="0%" stop-color="#4BBA7E"/>
            <stop offset="100%" stop-color="#23E877"/>
        </linearGradient>
        <path id="H" d="M1.053.93a.735.735 0 0 0-.075.046C-.055 1.656-.026 3.153.119 4.38l.764 6.5c.223 1.893.447 3.803.249 5.7-.115 1.117-.37 2.285-.293 3.386v.002c.038.502.144.991.363 1.454.653 1.381 2.227 2.27 2.541 3.767.204.973-.184 1.963-.24 2.956-.12 2.06 1.162 3.906 2.388 5.57.53.718 1.076 1.451 1.67 2.127H20.484c.052-.102.097-.205.138-.313.275-.717.343-1.569.284-2.417a9.823 9.823 0 0 0-.485-2.387 4.328 4.328 0 0 0-.283-.649v-.003c-.77-1.458-2.183-2.195-3.14-3.416a4.75 4.75 0 0 1-.51-.797 2.801 2.801 0 0 1-.242-.7c-.201-.959.064-1.992.361-3.03v-.003c0-.004 0-.007.002-.009.412-1.446.881-2.9.239-4.176-.1-.196-.22-.375-.356-.54l-.003-.003c-1.387-1.678-4.485-1.924-5.156-4.053-.506-1.608.741-3.485-.04-4.98-.79-1.515-2.984-1.476-4.365-2.486-1.148-.84-1.603-2.314-2.38-3.507C3.965 1.477 2.914.695 1.925.695c-.302 0-.598.072-.872.236"/>
        <linearGradient id="I" x1="50.001%" x2="50.001%" y1="-.001%" y2="100.001%">
            <stop offset="0%" stop-color="#4BBA7E"/>
            <stop offset="100%" stop-color="#23E877"/>
        </linearGradient>
        <path id="K" d="M1.085.18a.763.763 0 0 0-.077.044C-.056.9-.026 2.386.123 3.604l.787 6.454c.23 1.88.46 3.777.256 5.66-.118 1.109-.38 2.268-.301 3.361v.003c.038.498.148.984.373 1.443.674 1.372 2.295 2.255 2.619 3.741.21.966-.19 1.949-.248 2.934-.124 2.046 1.197 3.88 2.46 5.531.547.713 1.109 1.44 1.72 2.113h8.808c-.58-1.82-1.216-3.623-1.898-5.413-2.27-5.97-5.032-11.795-7.78-17.58C5.052 7.924 3.187 3.997 1.321.069c-.08.03-.16.067-.236.11"/>
        <linearGradient id="L" x1="100.001%" x2="0%" y1="50%" y2="50%">
            <stop offset="0%" stop-color="#4BBA7E"/>
            <stop offset="100%" stop-color="#23E877"/>
        </linearGradient>
    </defs>
    <g fill="none" fill-rule="evenodd">
        <g>
            <mask id="c" fill="#fff">
                <use xlink:href="#a"/>
            </mask>
            <path fill="url(#b)" d="M817.461 336.085c-37.361 18.416-79.192 27.578-120.816 26.774-44.05-.852-84.668-21.667-128.858-21.618-43.3.047-84.233 17.128-127.04 21.178-48.619 4.598-95.05-12.177-142.351-20.115-34.33-5.76-67.856 3.696-101.886 6.541a6741417.1 6741417.1 0 0 1-116.897 9.774C46.232 361.41-3.064 366.98.15 319.443 2.859 279.381 15.28 238.99 38.586 206.06 72.033 158.796 118.6 123.244 160.64 84.22c28.536-26.492 84.64 1.347 108.163-30.316 8.959-12.063 18.802-22.378 29.765-30.647C317.191 9.216 339.068 1.08 365.414.291c31.908-.954 65.424 10.64 89.41 31.926 37.457 33.244 55.801 80.227 113.2 78.588 34.575-.988 101.595-22.84 112.59 28.51 3.795 17.72-3.13 34.149 5.532 50.93 7.98 15.46 68.591-.488 84.354 6.062 23.105 9.601 3.471 39.025 27.361 46.459 15.41 4.796 31.93 15.24 42.99 27.788 26.309 29.862 5.777 51.154-23.39 65.531z" mask="url(#c)" opacity=".1"/>
        </g>
        <path fill="#BACDEF" d="M525.662 235.33H505.05v-55.161c0-5.317 4.614-9.631 10.307-9.631 5.692 0 10.306 4.314 10.306 9.63v55.162zM436.427 91.595h-57.964v-.602c0-6.968 13.263-18.057 28.986-18.057 15.715 0 28.978 11.089 28.978 18.057v.602zm-12.158 19.011h12.158v-15.9h-12.158v15.9zm0 19.02h12.158v-15.909h-12.158v15.908zm0 46.63h12.158v-15.901h-12.158v15.9zm0 19.011h12.158v-15.9h-12.158v15.9zm-15.267-84.66h12.158V94.705h-12.158v15.9zm0 19.018h12.158v-15.908h-12.158v15.908zm0 46.63h12.158v-15.9h-12.158v15.9zm0 19.012h12.158v-15.9h-12.158v15.9zm-15.273-84.66h12.158V94.705h-12.158v15.9zm0 19.018h12.158v-15.908h-12.158v15.908zm0 46.63h12.158v-15.9h-12.158v15.9zm0 19.012h12.158v-15.9h-12.158v15.9zm-15.266-84.66h12.158V94.705h-12.158v15.9zm0 19.018h12.158v-15.908h-12.158v15.908zm0 46.63h12.158v-15.9h-12.158v15.9zm0 19.012h12.158v-15.9h-12.158v15.9zm237.07-1.106l-3.185-1.839-5.96 3.16-5.465-3.16-5.865 3.104-.476.256-5.81-3.36-3.294 1.742-2.667 1.417-2.12-1.224-3.345-1.935-4.994 2.647v-21.106l10.134 3.29.905.298 1.906.616 1.334-3.644 4.38-11.98-41.193-13.44V129.86h4.062v-12.845h-24.646v12.845h4.641v13.938l-67.723-22.096V94.955l4.662 4.134 11.046-12.444-75.78-67.136-79.46 70.841 11.087 12.41 4.635-4.135v95.965l-3.917-2.268-5.96 3.16-5.465-3.16-.946.498c-.685-26.955-7.275-68.29-15.3-68.29-8.222 0-14.936 43.305-15.35 70.177l-2.072-1.202-2.053-1.183-3.156 1.673-2.812 1.486-5.464-3.159-1.057.56-5.277 2.8v43.574h68.83v20.236h230.009v-20.236h33.683c.096-.255.194-.504.276-.76 4.795-12.845 7.958-26.23 9.223-39.89.13-1.417.241-2.834.33-4.252l-.33-.193z"/>
        <path fill="#BACDEF" d="M648.387 143.327h-32.854v-.338c0-3.948 7.516-10.24 16.427-10.24s16.427 6.292 16.427 10.24v.338zm-6.894 10.777h6.894v-9.014h-6.894v9.014zm0 10.779h6.894v-9.015h-6.894v9.015zm0 26.436h6.894v-9.015h-6.894v9.015zm0 10.771h6.894v-9.008h-6.894v9.008zm-8.65-47.986h6.888v-9.014h-6.887v9.014zm0 10.779h6.888v-9.015h-6.887v9.015zm0 26.436h6.888v-9.015h-6.887v9.015zm0 10.771h6.888v-9.008h-6.887v9.008zm-8.654-47.986h6.887v-9.014h-6.887v9.014zm0 10.779h6.887v-9.015h-6.887v9.015zm0 26.436h6.887v-9.015h-6.887v9.015zm0 10.771h6.887v-9.008h-6.887v9.008zm-8.656-47.986h6.887v-9.014h-6.887v9.014zm0 10.779h6.887v-9.015h-6.887v9.015zm0 26.436h6.887v-9.015h-6.887v9.015zm0 10.771h6.887v-9.008h-6.887v9.008zm94.389 15.783c-3.806-2.066-7.537-4.383-10.955-7.05V224.8h-11.682v-27.024c-5.802-10.115-5.996-21.031-5.678-32.044l-16.372-5.337v-15.161l2.646 2.344 6.259-7.058-32.64-28.919-7.758-6.872-2.556-2.26-2.383 2.122-21.856 19.489-12.648 11.275a166.458 166.458 0 0 0-4.4 11.47l2.535 2.834 2.624-2.344v54.394l-2.224-1.285-3.378 1.79-3.094-1.79-.54.283a139.23 139.23 0 0 0-.345-6.644c-.4-5.496-1.126-11.393-2.086-16.613-.159-.92-.339-1.825-.518-2.695a162.283 162.283 0 0 0-1.016 6.885 163.922 163.922 0 0 0-.462 4.017c-.035.283-.062.567-.09.843-.028.214-.049.429-.062.636-.097.975-.187 1.943-.263 2.917a144.221 144.221 0 0 0-.29 4.204 73.724 73.724 0 0 0-.104 1.763 203.657 203.657 0 0 0-.228 9.623c0 1.445.021 2.89.062 4.335.007.497.021.996.042 1.486.02.823.048 1.652.097 2.475.117 2.855.31 5.71.566 8.558.021.25.041.491.069.74.028.332.056.671.096 1.003.09.934.181 1.86.291 2.786h13.477v11.469h130.378v-11.469h3.952c-6.562-2.897-13.16-5.731-19.466-9.154zM258.315 139.18h-32.854v-.34c0-3.947 7.517-10.238 16.427-10.238 8.912 0 16.427 6.291 16.427 10.239v.338zm-6.887 10.776h6.887v-9.014h-6.887v9.014zm0 10.779h6.887v-9.015h-6.887v9.015zm0 26.436h6.887v-9.015h-6.887v9.015zm0 10.771h6.887v-9.008h-6.887v9.008zm-8.655-47.986h6.887v-9.014h-6.887v9.014zm0 10.779h6.887v-9.015h-6.887v9.015zm0 26.436h6.887v-9.015h-6.887v9.015zm0 10.771h6.887v-9.008h-6.887v9.008zm-8.656-47.986h6.888v-9.014h-6.888v9.014zm0 10.779h6.888v-9.015h-6.888v9.015zm0 26.436h6.888v-9.015h-6.888v9.015zm0 10.771h6.888v-9.008h-6.888v9.008zm-8.656-47.986h6.895v-9.014h-6.895v9.014zm0 10.779h6.895v-9.015h-6.895v9.015zm0 26.436h6.895v-9.015h-6.895v9.015zm0 10.771h6.895v-9.008h-6.895v9.008zm-38.897 22.711h-11.681v-31.262c0-3.015 2.61-5.462 5.836-5.462 3.226 0 5.845 2.447 5.845 5.462v31.262zm106.768-27.149a172.724 172.724 0 0 0-.463-7.598c-.077-.974-.167-1.943-.263-2.918a9.662 9.662 0 0 0-.063-.635c-.027-.276-.055-.56-.089-.843-.138-1.342-.29-2.676-.463-4.017-.29-2.302-.628-4.598-1.015-6.885-1.472 7.072-2.515 15.92-2.853 23.387-.042.878-.076 1.735-.098 2.565l-.537-.283-3.096 1.79-3.378-1.79-2.224 1.285v-54.394l2.626 2.344 2.535-2.835a167.226 167.226 0 0 0-4.4-11.469l-12.65-11.276-24.24-21.61-10.312 9.132-32.64 28.919 6.258 7.058 2.646-2.344v15.161l-38.386 12.52v-7.895h2.631v-7.28h-13.974v7.28h2.3v10.847l-23.348 7.619 2.487 6.788.753 2.067 7.336-2.378v11.96l-2.826-1.5-3.102 1.79-3.377-1.79-3.296 1.902-3.592-1.901-1.512.878a179.735 179.735 0 0 0-.049 4.341c0 1.445.021 2.89.063 4.335.007.498.02.996.04 1.486.022.823.05 1.652.097 2.475a177.127 177.127 0 0 0 .636 9.298c.028.332.055.671.097 1.003.09.934.18 1.86.29 2.786h16.53v11.469H278.79v-11.469h13.477c.111-.927.201-1.852.29-2.786.042-.332.07-.671.097-1.003.028-.249.048-.49.07-.74.254-2.848.448-5.703.565-8.558.05-.823.077-1.652.097-2.475.021-.49.035-.988.042-1.486.042-1.446.062-2.89.062-4.335 0-2.662-.055-5.331-.158-7.992z"/>
        <g transform="translate(293 229)">
            <mask id="f" fill="#fff">
                <use xlink:href="#d"/>
            </mask>
            <path fill="url(#e)" d="M7.268 15.312c1.507 2.418 3.352 4.888 5.489 6.956.003.005.008.008.011.012.207.2.417.398.63.588.176.162.355.32.536.474.07.062.14.122.212.18h4.258c-.024-.055-.048-.114-.071-.171-.038-.091-.077-.18-.114-.271a51.224 51.224 0 0 0-.959-2.146c-.11-.228-.218-.455-.33-.683-.099-.2-.2-.402-.303-.604-.018-.038-.037-.079-.058-.118a61.524 61.524 0 0 0-.34-.654c-.118-.229-.24-.456-.364-.682a87.945 87.945 0 0 0-.326-.591c-.03-.052-.058-.105-.088-.156a80.502 80.502 0 0 0-.697-1.2v-.001l-.066-.108a42.395 42.395 0 0 0-.787-1.268 35.794 35.794 0 0 0-.418-.645 48.46 48.46 0 0 0-.866-1.277c-.146-.211-.295-.42-.445-.627v-.003c-.148-.201-.293-.402-.442-.602l-.033-.043c-.45-.611-.916-1.21-1.393-1.8-.308-.38-.62-.755-.937-1.126-.16-.186-.319-.37-.48-.554-.16-.184-.324-.365-.487-.547-.112-.125-.226-.248-.34-.371l-.014-.017-.33-.351-.144-.158-.017-.017c-.098-.104-.198-.209-.298-.312-.101-.103-.202-.205-.302-.31l-.117-.121A52.358 52.358 0 0 0 .134.203c3.37 4.626 4.102 10.244 7.134 15.109" mask="url(#f)"/>
        </g>
        <path fill="#000" d="M299.023 236.847c.015.209.037.413.071.616.05.303.125.597.232.882.072.19.16.376.263.555.147.251.323.48.516.7.129.146.266.286.405.423.104.101.21.202.315.301.285.27.572.539.83.823.354.393.654.818.81 1.33.037.122.064.245.085.367.02.122.033.246.04.372.024.372-.005.754-.035 1.137-.01.127-.021.255-.03.383-.016.254-.028.509-.019.762.015.395.077.777.178 1.147.169.618.445 1.204.784 1.765a11.926 11.926 0 0 0 .612.9 18.416 18.416 0 0 0 .809 1.013c.114.135.227.268.342.398l.011.013c.211.204.426.406.643.6.181.164.364.325.549.482.072.062.145.123.22.184H311a12.158 12.158 0 0 1-.07-.175l-.117-.276-.012-.03a48.431 48.431 0 0 0-.566-1.29c-.054-.12-.11-.24-.166-.36-.077-.17-.156-.34-.236-.509-.112-.231-.223-.463-.338-.695-.1-.205-.204-.41-.309-.616-.019-.039-.038-.08-.06-.12a40.248 40.248 0 0 0-.347-.668 58.48 58.48 0 0 0-.705-1.298l-.09-.158a82.221 82.221 0 0 0-.712-1.225l-.067-.109a48.144 48.144 0 0 0-.804-1.293 49.988 49.988 0 0 0-1.768-2.6v-.002c-.15-.206-.3-.41-.452-.614a57.846 57.846 0 0 0-1.458-1.879 58.41 58.41 0 0 0-.957-1.148c-.163-.19-.326-.378-.489-.565l-.498-.555a150.86 150.86 0 0 0-.363-.398l-.485-.52-.016-.016c-.1-.106-.202-.214-.306-.318-.14-.15-.283-.296-.428-.44-.038-.043-.08-.083-.119-.123-.008.937-.105 1.915-.039 2.847" opacity=".1"/>
        <g transform="translate(311 229)">
            <mask id="i" fill="#fff">
                <use xlink:href="#g"/>
            </mask>
            <path fill="url(#h)" d="M14.167 1.794l-3.331 4.285c-.144.185-.288.37-.434.552C9.57 7.694 8.704 8.734 7.67 9.588c-.445.367-.93.713-1.377 1.09a6.96 6.96 0 0 0-.609.565v.003a3.926 3.926 0 0 0-.541.715 2.86 2.86 0 0 0-.244.523c-.424 1.202-.027 2.652-.714 3.72-.247.385-.6.665-.97.931-.301.215-.613.424-.886.67C1.062 18.95.732 20.797.48 22.499l-.005.028H12.54c1.277-.868 2.994-1.412 3.468-2.87.629-1.943-1.466-4.146-.534-5.96.64-1.248 2.454-1.62 2.869-2.962.421-1.358-.878-2.63-1.092-4.04-.178-1.173.414-2.309.654-3.471.233-1.115-.087-2.568-1.123-2.894a1.41 1.41 0 0 0-.429-.068c-.87 0-1.62.803-2.186 1.532" mask="url(#i)"/>
        </g>
        <g transform="translate(311 229)">
            <mask id="l" fill="#fff">
                <use xlink:href="#j"/>
            </mask>
            <path fill="url(#k)" d="M14.54 1.794l-3.419 4.285a79.8 79.8 0 0 1-.445.552C9.82 7.694 8.932 8.734 7.87 9.588c-.455.367-.954.713-1.413 1.09-.22.179-.43.365-.624.565v.003a3.938 3.938 0 0 0-.556.715c-.1.163-.184.338-.25.523-.436 1.202-.028 2.652-.732 3.72-.254.385-.617.665-.997.931-.308.215-.629.424-.909.67C1.09 18.95.752 20.797.492 22.499l-.005.028h8.311c.39-.895.768-1.797 1.14-2.7 1.256-3.059 2.421-6.156 3.582-9.243L17.355.38c-.041-.019-.088-.035-.131-.05a1.485 1.485 0 0 0-.44-.068c-.894 0-1.663.802-2.244 1.531" mask="url(#l)"/>
        </g>
        <g transform="translate(317 221)">
            <mask id="o" fill="#fff">
                <use xlink:href="#m"/>
            </mask>
            <path fill="url(#n)" d="M.505 9.491c-.048.318-.086.633-.122.95A25.317 25.317 0 0 0 .24 12.38c-.058 1.544.001 3.1.105 4.652v.004c.025.377.054.753.082 1.131l.091 1.138v.003l.01.105c.022.274.043.548.067.822.035.417.068.836.098 1.256.228 3.025.345 6.082-.2 9.04h.244c.084-.112.163-.225.242-.339a12.5 12.5 0 0 0 .258-.382c.001-.004.005-.008.009-.011.065-.101.13-.203.191-.304.104-.166.202-.33.298-.498.08-.14.159-.282.235-.424.038-.07.076-.14.112-.211l.108-.212c.036-.07.07-.14.105-.211l.121-.256c.058-.123.114-.246.17-.371a22.27 22.27 0 0 0 .527-1.321h-.001l.01-.029c.05-.139.098-.28.146-.421l.013-.037c.046-.14.091-.279.134-.42l.069-.227v-.004c.073-.241.141-.484.207-.728.654-2.469.95-5.102 1.072-7.743.026-.554.044-1.11.06-1.665.134-4.754-.043-9.494.514-14.218C2.605 2.433 1.05 5.951.505 9.491" mask="url(#o)"/>
        </g>
        <path fill="#000" d="M317.147 238.553c.028.38.06.758.093 1.137s.07.756.104 1.134v.003l.011.104c.026.273.05.546.078.82.04.414.078.831.114 1.25.262 3.01.396 6.053-.232 8.999h.28c.098-.112.189-.224.28-.337a12.573 12.573 0 0 0 .308-.393c.074-.1.15-.201.22-.302a17.419 17.419 0 0 0 .615-.918c.043-.07.087-.14.128-.21a12.537 12.537 0 0 0 .246-.421l.14-.255c.066-.123.13-.245.194-.37l.01-.02a16.75 16.75 0 0 0 .597-1.295c.003-.01.009-.019.012-.028a14.622 14.622 0 0 0 .182-.457c.054-.138.106-.277.156-.416l.079-.228v-.004c.084-.24.163-.48.238-.724-.861-1.359-2.278-2.237-2.878-3.786-.202-.516-.223-1.042-.138-1.573.313-2.027 2.153-4.128 1.38-6.1-.372-.948-1.247-1.576-2.175-2.163a23.581 23.581 0 0 0-.161 1.933c-.07 1.535 0 3.078.119 4.62" opacity=".1"/>
        <g transform="translate(300 217)">
            <mask id="r" fill="#fff">
                <use xlink:href="#p"/>
            </mask>
            <path fill="url(#q)" d="M1.35.61a.78.78 0 0 0-.076.046C.229 1.335.259 2.832.406 4.06l.772 6.5c.225 1.894.452 3.804.252 5.7-.116 1.117-.375 2.284-.296 3.385v.003c.038.502.145.991.366 1.453.662 1.383 2.253 2.271 2.57 3.769.208.972-.185 1.963-.242 2.954-.122 2.06 1.175 3.908 2.415 5.57.538.72 1.088 1.453 1.69 2.128H21.005c.052-.102.098-.205.139-.313.279-.717.348-1.57.287-2.417a9.69 9.69 0 0 0-.49-2.387 4.178 4.178 0 0 0-.287-.648v-.005c-.778-1.457-2.209-2.194-3.175-3.415a4.621 4.621 0 0 1-.515-.797 2.787 2.787 0 0 1-.247-.7c-.203-.96.065-1.992.366-3.03v-.005c0-.002 0-.006.002-.007.417-1.447.89-2.902.241-4.176a2.968 2.968 0 0 0-.36-.54l-.002-.003c-1.403-1.678-4.537-1.924-5.215-4.053-.513-1.609.75-3.485-.04-4.98-.8-1.516-3.02-1.476-4.417-2.486-1.16-.841-1.621-2.314-2.406-3.506C4.295 1.157 3.232.375 2.23.375c-.305 0-.604.072-.881.236" mask="url(#r)"/>
        </g>
        <g transform="translate(300 217)">
            <mask id="u" fill="#fff">
                <use xlink:href="#s"/>
            </mask>
            <path fill="url(#t)" d="M1.375.61a.799.799 0 0 0-.078.046C.233 1.335.264 2.832.413 4.06l.787 6.5c.23 1.894.46 3.804.257 5.7-.119 1.117-.382 2.284-.302 3.385v.003c.039.502.148.991.373 1.453.674 1.383 2.295 2.271 2.618 3.769.211.972-.189 1.963-.247 2.954-.124 2.06 1.197 3.908 2.46 5.57.548.72 1.109 1.453 1.721 2.128H16.887a103.661 103.661 0 0 0-1.898-5.45c-2.27-6.013-5.032-11.88-7.78-17.706C5.342 8.411 3.477 4.456 1.61.499c-.081.031-.16.067-.236.112" mask="url(#u)"/>
        </g>
        <path fill="#BACDEF" d="M334.571 254.182c0 9.038-9.423 6.242-20.961 6.242-11.538 0-20.821 2.796-20.821-6.242 0-9.039 9.422-11.005 20.96-11.005 11.537 0 20.822 1.966 20.822 11.005"/>
        <path fill="#AFC1E7" d="M292.41 307.136c0 6.31-33.886 11.424-75.685 11.424-41.8 0-75.684-5.114-75.684-11.424s33.885-11.423 75.684-11.423c41.8 0 75.684 5.114 75.684 11.423" opacity=".3"/>
        <path fill="#EFB9B9" d="M190.958 218.193c0-.437 2.989-2.713 2.006-3.26-.934-.52-4.3 4.001-4.626 4.443.954-.524 2.62-1.183 2.62-1.183"/>
        <path fill="#FBBEBE" d="M196.024 214.283c-.543 1.177-3.337 2.7-4.213 3.127a139.16 139.16 0 0 1-3.474 1.966.787.787 0 0 0-.027.038c.437.073 1.818 2.587 1.818 2.587 2.4-.656 6.468-5.55 7.274-7.724.836-2.258-.505-1.888-1.378.006"/>
        <path fill="#3F3D56" d="M169.96 235.536c6.603 14.916 12.17 65.98 6.862 65.63 0 0-3.367 2.335-5.439-5.058 0 0-12.43-48.51-9.322-58.886l7.898-1.686z"/>
        <path fill="#2D2D49" d="M172.576 299.608s-1.61 4.92-.255 5.535c1.356.615 4.238.205 4.238.205s3.39-.512 4.237-.41c.848.102 4.322-.718 3.814-2.358-.509-1.64-3.136-1.23-3.136-1.23l-2.372-1.332s-.255-1.025-.849-.615c-.593.41-2.287 1.947-5.677.205"/>
        <path fill="#3F3D56" d="M156.363 235.536c-7.418 4.306-10.487 65.63-4.142 67.057 0 0 5.179 2.723 6.214-12.452 0 0 9.316-47.048 9.32-54.134 0 0-9.232-1.725-11.392-.47"/>
        <path fill="#2D2D49" d="M150.582 300.552s-1.61 4.92-.254 5.535c1.355.615 4.237.205 4.237.205s3.39-.512 4.237-.41c.848.103 4.322-.718 3.814-2.358-.509-1.64-3.136-1.23-3.136-1.23l-2.372-1.332s-.255-1.025-.848-.614c-.594.409-2.288 1.946-5.678.204"/>
        <path fill="#FBBEBE" d="M169.646 199.534c0 3.243-1.889 5.872-4.218 5.872-2.33 0-4.218-2.63-4.218-5.872 0-3.243 1.888-5.872 4.218-5.872s4.218 2.629 4.218 5.872"/>
        <path fill="#FBBEBE" d="M167.37 212.241c-.724 1.848-1.56 3.494-2.252 3.494-1.861 0-4.48-3.656-5.912-5.906l2.947-7.181 4.235.575s-.086.426-.175 1.102c-.02.145-.039.308-.057.478-.23 2.069-.35 5.646 1.214 7.438"/>
        <path fill="#FFF" d="M191.57 222.958s-6.55 9.613-14.214 7.526c0 0-2.463-.55-4.414-1.59a8.073 8.073 0 0 1-1.172-.749s.017.206.038.554c.104 1.703.296 6.787-1.053 7.38 0 0-9.316 3.618-15.9.995a10.307 10.307 0 0 1-.651-.283l-.064-.04h-.003c-.964-.6-12.218-7.73-9.884-13.185 0 0 11.939-15.066 14.953-13.737 3.014 1.33 4.05 5.906 5.912 5.906.693 0 1.528-1.646 2.252-3.494.106.12.217.237.338.341 2.742 2.34 8.63 9.254 11.983 10.679 3.35 1.424 6.5-5.899 8.224-5.797 1.726.102 3.757 4.678 3.655 5.494"/>
        <path fill="#28151D" d="M166.512 196.458c4.76 1.285 3.047-4.567-1.157-5.284-4.204-.718-6-.242-6.298 4.007-.297 4.25-5.305 2.563-4.56 6.05.745 3.486-5.16 2.88-5.808 8.99-.649 6.11.68 7.6 1.922 7.863 2.403.509 6.226-.774 6.972-3.516 2.356-8.663 5.838-8.842 5.595-13.18-.39-6.94 1.62-5.393 3.334-4.93"/>
        <path fill="#4285F4" d="M157.44 229.371l2.232-6.278 9.523 2.83-3.955 13.813-9.048-4.089s3.09-4.085 2.367-5.402c-.303-.554-1.118-.874-1.118-.874"/>
        <path fill="#E5AEAE" d="M166.213 204.64c-.02.145-.04.307-.057.478a4.191 4.191 0 0 1-1.924-.86c.665.315 1.417.386 1.981.381"/>
        <path fill="#000" d="M171.77 228.145s.017.206.038.554c-.64-2.025-1.578-4.716-2.572-6.652-1.418-2.762 1.898 2.983 3.706 6.847a8.114 8.114 0 0 1-1.172-.749" opacity=".1"/>
        <path fill="#313144" d="M165.519 243.94s-2.033 19.035-2.705 23.303c0 0 2.812-10.544 2.705-23.302"/>
        <path fill="#FBBEBE" d="M158.014 231.62s5.803-.339 5.943.21c0 0 .193.423-3.253 1.14-.032.005 5.162 1.376 5.05 1.97-.111.593-.527 1.114-1.398 1.198-.602.059-5.838-.017-7.505-1.424l1.163-3.094z"/>
        <path fill="#E5E5E5" d="M159.186 230.234s-.524 3.943-4.33 6.84a9.901 9.901 0 0 1-.652-.283l-.064-.04c1.775-1.892 4.194-4.807 4-6.468 0 0-8.569-2.906-6.966-5.175l2.87-3.108-2.284 4.04s6.93 3.011 7.426 4.194"/>
        <path fill="#D9E6FD" d="M167.127 227.873a.208.208 0 0 1-.066-.01l-6.181-1.92a.221.221 0 0 1 .13-.423l6.182 1.92a.221.221 0 0 1-.065.433M166.378 229.537a.225.225 0 0 1-.065-.01l-6.182-1.92a.221.221 0 0 1 .131-.423l6.182 1.92a.221.221 0 0 1-.066.433M165.905 231.258a.222.222 0 0 1-.065-.01l-6.182-1.922a.22.22 0 1 1 .131-.423l6.182 1.92a.222.222 0 0 1-.066.435"/>
        <path fill="#000" d="M165.152 218.282c-1.762 0-3.45-2.25-5.086-4.435-.247-.328-.492-.656-.738-.977a.221.221 0 0 1 .35-.27c.248.323.495.652.741.981 1.752 2.336 3.566 4.751 5.265 4.167 1.951-.668 2.393-3.395 2.397-3.423a.22.22 0 1 1 .437.067c-.019.123-.484 3.02-2.69 3.776a2.091 2.091 0 0 1-.676.114M153.495 235.31a.223.223 0 0 1-.201-.127.223.223 0 0 1 .107-.295c1.863-.868 3.006-4.833 3.018-4.873a.222.222 0 0 1 .273-.153.222.222 0 0 1 .152.274c-.049.171-1.213 4.2-3.257 5.154a.226.226 0 0 1-.092.02M190.163 223.664a.222.222 0 0 1-.22-.192c-.295-2.219-2.923-4.651-2.95-4.675a.221.221 0 0 1-.013-.313.22.22 0 0 1 .312-.015c.113.104 2.773 2.565 3.09 4.944a.22.22 0 0 1-.22.251" opacity=".1"/>
        <path fill="#FBBEBE" d="M240.957 268.443s-5.953 26.332-6.165 32.874c0 0 .334.595 2.858 0 0 0 12-13.405 7.612-25.525 0 0 1.04-3.8 5.938-7.697l-10.243.348z"/>
        <path fill="#FBBEBE" d="M258.424 267.17c-.421 4.822-2.62 6.11-2.768 8.158-.149 2.048 6.677 8.458-.3 28.085l-2.524 1.833s-4.157-27.337-2.968-35.848l8.56-2.229z"/>
        <path fill="#FC6681" d="M255.818 302.072s.992 5.411-.303 5.411c0 0-1.036-2.81-1.813-2.572 0 0-4.66 2.572-6.474 2.572 0 0 2.596-3.81 5.145-5.41h3.445zM237.65 301.317s.992 5.41-.303 5.41c0 0-1.036-2.809-1.812-2.571 0 0-4.661 2.571-6.475 2.571 0 0 3.184-3.81 5.731-5.41h2.858z"/>
        <path fill="#E5AEAE" d="M240.627 276.596a.545.545 0 0 1-.217-.043c-.452-.19-.423-.915-.419-.998a.22.22 0 1 1 .441.026c-.01.2.037.516.15.564.027.011.277.085 1.016-.725a.22.22 0 1 1 .326.298c-.54.592-.96.878-1.297.878M251.119 277.845a.558.558 0 0 1-.216-.043c-.452-.19-.424-.915-.42-.998a.221.221 0 1 1 .442.026c-.01.2.037.516.15.564.027.011.276.085 1.016-.725a.22.22 0 0 1 .312-.015c.09.083.096.223.014.313-.54.592-.96.878-1.298.878"/>
        <path fill="#3F3D56" d="M261.742 231.744c2.28-3.043 5.895 28.54.423 37.317 0 0-22.246 3.745-23.583-1.768 0 0 3.171-26.61 8.265-32.863 0 0 13.56-.903 14.895-2.686"/>
        <path fill="#FFD892" d="M238.582 267.293c.004.016.01.03.015.045l.1-.954c-.076.584-.115.91-.115.91"/>
        <path fill="#FC6681" d="M255.76 215.818c3.603.313 5.68-10.425 10.876 0 5.195 10.424-3.562 22.32-17.96 22.469 0 0-4.157-.447-1.188-4.461 0 0-1.248-9.669-1.07-15.169.178-5.5 5.35-8.257 7.589-7.473 2.237.784-1.85 4.32 1.753 4.634"/>
        <path fill="#FC6681" d="M244.944 216.299c-3.454-2.37-6.214 8.605-.425 11.876 5.789 3.272 4.218-9.274.425-11.876"/>
        <path fill="#F8F8F8" d="M244.247 219.123l9.045.375 2.327 21.809-9.745-.803z"/>
        <path fill="#FBBEBE" d="M243.48 215.77c.795-3.499 4.661 6.326 1.96 6.466-2.703.14-2.554-3.852-1.96-6.465M247.637 234.817s-4.603-2.614-5.345.353c-.742 2.968.948 2.675 5.373 1.185 4.424-1.489-.028-1.538-.028-1.538"/>
        <path fill="#FC6681" d="M247.665 232.752c-3.91-.617-3.562 7.198 6.443 4.88 10.005-2.32 12.078-8.253 12.6-9.457.524-1.203-5.561-5.007-5.561-5.007s-8.78 10.328-13.482 9.584"/>
        <path fill="#2F2E41" d="M261.451 197.195c-.4.654-.034 1.507.435 2.113.469.606 1.066 1.187 1.162 1.946.116.913-.533 1.778-.475 2.695.068 1.101 1.085 1.857 1.701 2.77 1.143 1.695.762 4.24-.826 5.523a24.876 24.876 0 0 1-7.079-2.295c.571-3.454 1.148-6.93 2.331-10.225a28.917 28.917 0 0 1 1.86-4.13"/>
        <path fill="#FBBEBE" d="M252.502 199.919c-.315 2.989 1.17 5.595 3.318 5.823 2.147.226 4.143-2.013 4.458-5.001.314-2.99-1.17-5.596-3.318-5.823-2.148-.227-4.144 2.012-4.458 5"/>
        <path fill="#FBBEBE" d="M252.775 213.157c.526 1.913 1.185 3.638 1.873 3.711 1.852.196 4.838-3.164 6.499-5.25l-2.179-7.452-4.272.126s.041.433.058 1.114c.005.148.008.31.008.482.012 2.081-.244 5.652-1.987 7.27"/>
        <path fill="#E5AEAE" d="M254.754 205.406c.006.147.008.31.008.482a4.19 4.19 0 0 0 2.003-.653c-.694.244-1.45.235-2.01.17"/>
        <path fill="#000" d="M255.073 229.187s5.324-4.26 5.327-8.584l.747 2.565s-1.311 3.907-6.074 6.019" opacity=".1"/>
        <path fill="#2F2E41" d="M252.588 197.9s-.702-3.821 3.886-4.442c4.588-.622 5.284 5.74 5.284 5.74l-2.587-.574-.72-1.642.065 1.57-1.912-.18.011-1.152-.461.9-3.566-.22z"/>
        <path fill="#D9E6FD" d="M246.13 223.545c.02.006.043.01.066.01l6.47.003a.222.222 0 0 0 .001-.443l-6.471-.003a.222.222 0 0 0-.066.433M246.351 225.357c.021.006.043.01.066.01l6.472.003a.221.221 0 0 0 0-.443l-6.47-.003a.221.221 0 0 0-.068.433M246.294 227.14c.02.007.043.01.066.01l6.471.003a.221.221 0 0 0 0-.443l-6.471-.003a.222.222 0 0 0-.066.433M246.351 228.926c.021.006.043.01.066.01l6.472.003a.221.221 0 0 0 0-.444l-6.47-.003a.221.221 0 0 0-.068.434"/>
        <path fill="#000" d="M254.915 219.056c-.144 0-.288-.023-.43-.07-1.025-.339-1.686-1.833-2.217-3.033-.114-.26-.22-.502-.323-.712-.084-.171-.174-.345-.264-.52-.484-.945-.986-1.921-.645-2.613.178-.363.548-.59 1.132-.695a.22.22 0 0 1 .256.178.222.222 0 0 1-.178.258c-.435.079-.701.228-.813.455-.243.492.227 1.406.642 2.213.091.179.183.357.268.53.105.215.214.463.33.727.47 1.06 1.112 2.514 1.951 2.791.28.094.57.05.886-.13 1.733-.985 5.714-3.905 6.25-6.157a.222.222 0 0 1 .432.102c-.576 2.416-4.603 5.383-6.463 6.442a1.64 1.64 0 0 1-.814.234" opacity=".1"/>
        <path fill="#3F3D56" d="M292.74 238.166s-.691 57.653-4.87 65.273h-3.42s-2.252-24.565-2.157-35.863l10.448-29.41z"/>
        <path fill="#3F3D56" d="M281.25 237.619s-12.99 42.183-16.911 66.068h3.658s23.764-44.075 24.254-58.786c0 0-1.59-12.955-11.001-7.282"/>
        <path fill="#FBBEBE" d="M286.366 244.27l-2.183 3.062 2.183 2.906 2.707-3.641zM279.96 214.3s-.696-6.313-1.298-6.359c0 0-.479-.125-.605 3.725-.002.035-2.38-5.291-2.983-5.055-.603.234-1.074.782-1.005 1.736.048.661 1.075 6.283 2.854 7.805l3.037-1.851z"/>
        <path fill="#3D94D6" d="M286.366 223.883s-4.728-12.648-6.59-11.085c0 0-1.985 1.317-3.38 1.964-3.005 1.39-.624 6.85 7.364 17.491l2.606-8.37z"/>
        <path fill="#FBBEBE" d="M286.563 197.435c-.14 3.263-1.207 6.343 3.604 6.326 2.346-.008 4.501-2.185 4.843-5.433.343-3.247-1.271-6.08-3.604-6.326-2.334-.247-4.548-1.47-4.843 5.433"/>
        <path fill="#FBBEBE" d="M295.954 210.144c-1.804 2.268-5.048 5.919-7.06 5.706-.749-.08-1.462-1.954-2.036-4.032 1.78-1.654 2.133-5.19 2.157-7.484.002-.141.002-.282.002-.414 0-.076 0-.15-.002-.222a19.833 19.833 0 0 0-.07-1.51l4.642-.14 2.367 8.096z"/>
        <path fill="#E5AEAE" d="M289.015 204.334c.002-.141.002-.282.002-.414 0-.076 0-.15-.002-.222.745.078 1.722.078 2.627-.237a5.637 5.637 0 0 1-2.627.873"/>
        <path fill="#28151D" d="M292.565 189.128c-2.07-.391-3.451.187-5.64-.556-2.189-.744-1.8 1.086-.54 1.908 0 0 .162 1.278-1.731-.21-1.894-1.489-.845 3.514 3.787 3.617 0 0 4.517-.04 4.634 1.818 0 0-1.946 7.535.927 6.439 0 0 3.757-.809 1.952-8.966 0 0-.626-3.527-3.39-4.05"/>
        <path fill="#3D94D6" d="M289.72 248.39l-4.51-4.519s1.435-2.552 1.746-5.308c.02-.19.038-.385.046-.578 0 0-.34.131-.862.277-2.087.59-7.063 1.411-4.542-5.07 0 0 1.217-16.611 5.26-21.373 0 0 5.995.328 8.554-3.524 1.674-2.519 9.785 27.759-5.692 40.095"/>
        <path fill="#000" d="M286.956 238.564c.02-.191.038-.386.046-.579 0 0-.341.13-.862.278 1.044-1.76 3.53-6.71 4.657-15.44 0 0-.104 10.214-3.841 15.74" opacity=".1"/>
        <path fill="#2F2E41" d="M267.997 303.687s1.159 3.139-.767 3.336c0 0-8.246.84-8.641.248 0 0-1.25-.612 5.744-3.768l3.664.184zM288.02 303.142s1.189 3.337-.737 3.535c0 0-8.246.84-8.641.247 0 0-1.25-.612 5.744-3.768l3.634-.014z"/>
        <path fill="#353549" d="M283.689 245.7s1.753 4.494 3.827 5.223l-.19 1.01s-4.365-1.861-4.567-6.03l.93-.202zM283.992 251.868l-.342.982.371.13.343-.983zM283.483 253.331l-.342.983.371.13.342-.983zM282.974 254.794l-.342.983.37.13.343-.983zM282.464 256.258l-.342.982.371.13.342-.982zM281.955 257.721l-.342.983.37.13.342-.982zM281.445 259.185l-.342.983.371.13.342-.983zM280.936 260.649l-.342.982.371.13.342-.983zM280.426 262.112l-.342.982.37.13.343-.982zM279.917 263.575l-.342.983.37.13.343-.982zM279.408 265.039l-.342.982.37.13.342-.982zM278.898 266.503l-.343.982.372.13.342-.983zM278.389 267.966l-.343.982.372.13.342-.983zM277.879 269.43l-.342.982.371.13.342-.983zM277.37 270.893l-.343.982.372.13.342-.983zM276.86 272.356l-.341.983.37.13.342-.983zM276.35 273.82l-.341.982.37.13.342-.983zM275.841 275.283l-.341.983.37.13.342-.983zM275.332 276.746l-.342.983.37.13.343-.982zM274.823 278.21l-.343.983.372.13.342-.983zM274.312 279.674l-.341.982.37.13.343-.982zM273.803 281.137l-.341.983.37.13.342-.983zM273.294 282.6l-.342.983.37.13.343-.982zM272.784 284.064l-.342.982.371.13.343-.982zM272.276 285.528l-.343.981.372.13.341-.982zM271.766 286.992l-.343.981.372.13.342-.982zM271.256 288.455l-.342.982.371.13.342-.983zM270.747 289.919l-.343.982.372.13.341-.983zM270.237 291.382l-.342.982.371.13.342-.983zM269.728 292.845l-.342.983.371.13.342-.983zM269.219 294.309l-.343.982.37.13.343-.983zM268.708 295.772l-.341.982.371.13.343-.982zM268.2 297.235l-.342.983.37.13.342-.982zM267.69 298.7l-.343.982.372.129.342-.983zM267.18 300.163l-.342.982.371.13.343-.983zM266.67 301.626l-.341.983.37.13.343-.983zM283.696 242.157c-2.535 0-2.787-.886-2.81-1.005a.22.22 0 0 1 .176-.259.22.22 0 0 1 .257.166c.013.038.393.963 4.018.553a.221.221 0 0 1 .05.44c-.654.073-1.213.105-1.691.105"/>
        <path fill="#000" d="M288.03 214.247c-.503 0-.814-.027-.828-.029a.22.22 0 0 1-.198-.241.223.223 0 0 1 .241-.2c.065.006 6.469.578 8.51-3.728a.221.221 0 0 1 .4.19c-1.716 3.619-6.25 4.008-8.125 4.008M282.005 229.408l-.025-.001a.221.221 0 0 1-.195-.245c.262-2.392 1.743-10.504 1.757-10.586a.223.223 0 0 1 .258-.178c.12.023.2.137.177.258-.014.082-1.491 8.178-1.753 10.555a.221.221 0 0 1-.22.197M275.697 217.519a.222.222 0 0 1-.028-.442c2.669-.335 4.885-3.33 4.907-3.36a.221.221 0 0 1 .357.262c-.094.13-2.35 3.179-5.209 3.538l-.027.002M290.677 247.107a.22.22 0 0 1-.21-.15c-.851-2.535-4.337-3.294-4.372-3.302a.222.222 0 0 1-.172-.262.222.222 0 0 1 .263-.172c.153.032 3.77.823 4.7 3.594a.22.22 0 0 1-.21.292" opacity=".1"/>
        <path fill="#AFC1E7" d="M530.174 308.521c0 6.31-36.515 11.424-81.558 11.424-45.045 0-81.56-5.115-81.56-11.424 0-6.31 36.515-11.424 81.56-11.424 45.043 0 81.558 5.115 81.558 11.424" opacity=".3"/>
        <path fill="#C49882" d="M382.055 253.177c-.293-.789-.605-4.275-.605-4.275s3.058-.919 2.667-4.054c-.394-3.135-1.924-10.25-1.924-10.25l-6.207-1.712-5.362 5.923-.706 3.69 3.677 7.59.885 4.04 7.575-.952z"/>
        <path fill="#00143A" d="M382.55 239.926a.403.403 0 1 1-.793.152.403.403 0 0 1 .792-.152M382.851 239.422c-.04.061-.38-.134-.81-.076-.432.051-.714.323-.769.275-.026-.022.01-.125.131-.248.12-.122.336-.254.605-.287.269-.035.51.04.656.128.148.088.208.181.187.208M377.725 240.496a.404.404 0 1 1-.531.206.403.403 0 0 1 .531-.206M378.124 240.312c-.041.061-.38-.133-.811-.076-.432.052-.713.324-.768.276-.026-.022.01-.127.131-.25.12-.12.336-.253.604-.286.27-.034.511.04.656.128.149.089.208.181.188.208M380.34 243.63c-.004-.02.257-.1.683-.211.107-.025.216-.061.226-.151.014-.095-.053-.214-.125-.34l-.458-.831a58.96 58.96 0 0 1-.803-1.525c-.197-.395-.311-.644-.292-.654.019-.01.166.219.389.6.223.382.52.913.842 1.505l.447.836c.063.125.154.261.126.433a.264.264 0 0 1-.149.183c-.064.03-.125.04-.18.05-.431.085-.7.126-.706.106"/>
        <path fill="#996D59" d="M378.39 243.561c.055.357-.44.712-1.095.852-.656.136-1.246.01-1.333-.34-.084-.345.393-.791 1.08-.935.685-.146 1.294.07 1.348.423"/>
        <path fill="#F3F0EB" d="M379.007 244.3c-.485-.205 1.326.487 2.195.323 0 0-.391.874-1.338.668-.982-.214-.857-.99-.857-.99"/>
        <path fill="#996D59" d="M381.45 248.902s-2.08.416-4.36-.615c0 0 1.356 2.1 4.436 1.389l-.076-.774z"/>
        <path fill="#00143A" d="M369.096 237.56c-.838.455-1.377 1.338-1.344 2.29.079 2.22 2.205 4.859 3.141 6.127 1.245 1.687 2.361 4.297 2.361 4.297.646.75.206-1.966.206-1.966s-.177-2.665-.756-3.591c0 0-1.453.855-2.428-1.882-.482-1.352 1.468-2.485 2.41-.928l1.336-.17s-1.04-5.421 2.174-4.98c5.675.778 7.445-2.182 7.757-5.607.312-3.425-12.156.516-13.96 1.49-1.804.976-1.525 3.417-1.525 3.417"/>
        <path fill="#996D59" d="M372.662 243.573c-.015-.002-.025.05-.077.12a.466.466 0 0 1-.305.175c-.298.044-.724-.238-.966-.658a1.545 1.545 0 0 1-.206-.652c-.021-.213.024-.394.138-.485a.239.239 0 0 1 .304-.019c.067.048.078.104.093.101.01.003.03-.067-.044-.155a.295.295 0 0 0-.172-.097.35.35 0 0 0-.26.064c-.175.112-.248.368-.23.6.007.238.077.499.215.737.273.468.759.781 1.154.693a.499.499 0 0 0 .341-.267c.042-.098.026-.158.015-.157"/>
        <path fill="#FBBEBE" d="M415.678 258.423l-.959-1.698s.665-.694.279-2.264a3.691 3.691 0 0 0-.504-1.143c-.28-.424-.675-.973-.984-1.206-.382-.289-.216-.893.22-.887.434.006 1.507.775 2.24 2.135.73 1.36 1.186-1.027 1.368-1.894.182-.867.87-3.524 1.18-3.679.456-.227.783.219.581 1.081-.204.873-.624 3.488-.163 3.563.455.073 1.32-4.355 1.32-4.355s.032-.975.569-.908c.968.122-.298 4.76-.43 5.2-.09.304.408.403.488.07.083-.342.762-4.435 1.748-4.32.756.087-1.006 3.825-.675 4.752.33.927 1.049-2.97 1.768-2.856.268.042.463.11-.273 2.29-.753 2.231-3.776 7.942-3.776 7.942l-4.039-1.901"/>
        <path fill="#FBBEBE" d="M384.631 251.196s4.404-2.17 10.411 6.203c9.662 13.462 20.101-1.224 20.101-1.224l5.81 1.384s-4.573 12.792-18.48 12.706c-13.909-.086-17.842-19.069-17.842-19.069"/>
        <path fill="#3D94D6" d="M389.147 258.972s4.16 14.316 3.71 27.822l-18.069 2.7.026-7.926a28.356 28.356 0 0 0-2.223-11.106l-2.328-5.53s20.165-5.365 18.884-5.96"/>
        <path fill="#FBBEBE" d="M382.055 253.177c-.293-.789-.605-4.275-.605-4.275s3.058-.919 2.667-4.054c-.394-3.135-1.924-10.25-1.924-10.25l-6.207-1.712-5.362 5.923-.706 3.69 3.677 7.59.885 4.04 7.575-.952z"/>
        <path fill="#E5AEAE" d="M381.45 248.902s-2.08.416-4.36-.615c0 0 1.356 2.1 4.436 1.389l-.076-.774z"/>
        <path fill="#2F2E41" d="M369.096 237.56c-.838.455-1.377 1.338-1.344 2.29.079 2.22 2.205 4.859 3.141 6.127 1.245 1.687 2.361 4.297 2.361 4.297.646.75.206-1.966.206-1.966s-.177-2.665-.756-3.591c0 0-1.453.855-2.428-1.882-.482-1.352 1.468-2.485 2.41-.928l1.336-.17s-1.04-5.421 2.174-4.98c5.675.778 7.445-2.182 7.757-5.607.312-3.425-12.156.516-13.96 1.49-1.804.976-1.525 3.417-1.525 3.417"/>
        <path fill="#996D59" d="M372.662 243.573c-.015-.002-.025.05-.077.12a.466.466 0 0 1-.305.175c-.298.044-.724-.238-.966-.658a1.545 1.545 0 0 1-.206-.652c-.021-.213.024-.394.138-.485a.239.239 0 0 1 .304-.019c.067.048.078.104.093.101.01.003.03-.067-.044-.155a.295.295 0 0 0-.172-.097.35.35 0 0 0-.26.064c-.175.112-.248.368-.23.6.007.238.077.499.215.737.273.468.759.781 1.154.693a.499.499 0 0 0 .341-.267c.042-.098.026-.158.015-.157"/>
        <path fill="#00143A" d="M417.768 263.229s-7.662-.185-12.373 7.037c0 0 8.967-1.369 12.373-7.037" opacity=".1"/>
        <path fill="#3D94D6" d="M384.919 250.904L378.59 252l-7.657 1.326s-6.892 2.137-7.475 7.22l5.291 6.2 22.588-6.141-6.418-9.701z"/>
        <path fill="#F8F8F8" d="M383.155 267.953v19.65l21.09-4.21 1.15-18.566z"/>
        <path fill="#FBBEBE" d="M365.107 257.097l5.901 9.014s-3.872 8.559-3.564 11.028c.31 2.468 14.96-.897 14.96-.897l.751 6.153s-18.484 10.002-22.964 2.119c-3.553-6.251.434-18.12 2.237-22.768a17.9 17.9 0 0 1 2.15-3.984c.204-.28.39-.522.529-.665"/>
        <path fill="#F3F0EB" d="M397.536 276.084a1.708 1.708 0 0 1 0 2.413 1.701 1.701 0 0 1-2.408 0 1.707 1.707 0 0 1 0-2.413 1.7 1.7 0 0 1 2.409 0"/>
        <path fill="#353549" d="M400.07 290.935c6.473-1.896 16.273-2.14 30.495-1.777 13.542.347 27.995 2.835 33.018 3.771.53-1.715 1.924-5.987 2.264-4.659.423 1.65-.987 13.051-.987 13.051l-35.48-2.96-38.942 3.865 9.632-11.29z"/>
        <path fill="#3F3D56" d="M385.376 287.198s29.957-28.073 37.902-23.457c7.944 4.617 26.926 38.034 26.926 38.034l-10.186-.297s-18.658-24.632-20.945-24.694c-2.287-.062-23.746 24.78-26.421 25.223-7.724 1.275-19.203-2.01-7.276-14.809"/>
        <path fill="#00143A" d="M447.288 301.69s7.072 1.703 5.448 2.208c-1.624.505-13.062-.34-13.062-.34l.344-2.08 7.27.212z"/>
        <path fill="#00143A" d="M405.253 289.83l-5.737 11.496-6.864.68c3.825-2.374 8.17-7.077 12.601-12.176M436.723 299.063l-4.984-.416-7.122-9.754 4.873.143z" opacity=".1"/>
        <path fill="#3D94D6" d="M360.58 264.827l9.338 4.899 1.09-3.615 5.358-13.3s-7.664-.53-11.118 3.772c-3.454 4.304-4.667 8.244-4.667 8.244M382.766 251.63s4.775-2.61 8.455 1.16c3.68 3.77 5.952 6.182 5.952 6.182l-7.203 3.948-7.204-11.29z"/>
        <path fill="#E2E2E2" d="M383.155 287.602l-5.757-1.112 5.704-1.976z"/>
        <path fill="#3F3D56" d="M374.788 289.493s-.243 15.979 17.864 12.514l-5.843-14.405-12.02 1.891z"/>
        <path fill="#00143A" d="M463.582 292.93v8.285l1.279.106s2.218-12.57.986-13.051c-1.231-.48-2.265 4.66-2.265 4.66"/>
        <path fill="#FFF" d="M424.62 255.214l-6.208 2.178a.744.744 0 0 1-.948-.456l-4.04-11.555a.746.746 0 0 1 .456-.95l6.207-2.179a.744.744 0 0 1 .949.458l4.04 11.555a.745.745 0 0 1-.457.95"/>
        <path fill="#F7F7F7" d="M424.294 254.473l-6.09 2.136-3.732-10.675 6.09-2.136z"/>
        <path stroke="#FFF" stroke-linecap="round" stroke-linejoin="round" stroke-width=".25" d="M418.392 243.703l-2.283.8 2.283-.8z"/>
        <path stroke="#4285F4" stroke-linejoin="round" stroke-width=".5" d="M421.666 249.402l-4.567 1.603 4.567-1.603zM422.067 250.546l-4.568 1.602 4.568-1.602z" opacity=".2"/>
        <path fill="#4285F4" d="M420.105 247.382a1.614 1.614 0 0 1-3.045 1.068 1.616 1.616 0 0 1 .99-2.058 1.612 1.612 0 0 1 2.055.99" opacity=".2"/>
        <path fill="#BACDEF" d="M472.736 284.162l-5.195 26.236h2.412l8.09-23.394z"/>
        <path fill="#FC6681" d="M446.097 294.894s-2.094 7.115-3.652 6.325c0 0 .46-4.012-.618-4.2 0 0-7.173.253-9.354-.851 0 0 6.145-2.644 10.184-3.017l3.44 1.743z"/>
        <path fill="#BACDEF" d="M511.695 284.402l6.855 25.543h2.337l-3.013-29.674z"/>
        <path fill="#BACDEF" d="M467.125 279.384c6.83 7.47 17.353 11.08 27.436 10.33 10.083-.749 19.64-5.594 26.944-12.597 7.304-7.003 12.454-16.057 15.746-25.632 1.122-3.266 2.047-6.663 1.96-10.116-.088-3.453-1.305-7-3.887-9.288-4.613-4.091-11.899-2.97-17.369-.13-7.474 3.883-13.467 10.547-16.546 18.397-1.527 3.898-2.357 8.056-4.054 11.882-1.696 3.829-4.51 7.459-8.493 8.73-2.797.893-5.825.524-8.72.031-2.893-.493-5.836-1.106-8.74-.673-2.903.432-9.719 1.723-4.277 9.066"/>
        <path fill="#EFBBBB" d="M495.045 266.957s-26.32-16.886-34.864-9.153c-8.544 7.733-20.144 35.349-20.144 35.349l5.749 3.987s19.139-29.115 22.923-29.125c3.783-.01 25.166 10.378 25.166 10.378l1.17-11.436z"/>
        <path fill="#3F3D56" d="M470.475 264.642l4.507-8.077 20.063 8.644z"/>
        <path fill="#2F2E41" d="M522.502 222.29c-.597.736-.285 1.845.192 2.665.477.82 1.116 1.63 1.111 2.58-.006 1.138-.944 2.096-1.021 3.231-.095 1.364 1.032 2.458 1.64 3.68 1.128 2.267.247 5.33-1.911 6.648a30.876 30.876 0 0 1-8.322-3.973c1.262-4.148 2.535-8.324 4.523-12.177a35.97 35.97 0 0 1 2.954-4.77"/>
        <path fill="#FBBEBE" d="M506.929 234.958s-5.026-2.602-9.952 5.927c-7.101 12.297-19.21-1.17-19.21-1.17l-5.887 1.403s4.704 12.147 17.996 12.064c13.292-.082 17.053-18.224 17.053-18.224"/>
        <path fill="#FC6681" d="M516.57 250.342l-2.163 6.987-3.783 13.158c-5.542.62-11.95-2.21-18.755-3.924 4.228-5.48 7.405-11.416 7.903-18.518 0 0-1.838-2.254-.11-3.3 2.16-1.307 3.155-2.815 3.155-2.815l13.894 6.216"/>
        <path fill="#FBBEBE" d="M509.175 235.466c.387-.704 1.178-3.955 1.178-3.955s-2.761-1.304-1.945-4.21c.816-2.909 3.273-9.414 3.273-9.414l6.109-.735 3.588 6.128-5.18 14.165-7.023-1.98z"/>
        <path fill="#E5AEAE" d="M510.353 231.511s1.907.69 4.209.04c0 0-1.581 1.793-4.39.68l.18-.72z"/>
        <path fill="#F6BA99" d="M519.804 227.548c.276.289.688.445 1.087.41.4-.033.778-.256 1.003-.588.14-.206.221-.462.173-.707-.065-.328-.356-.574-.672-.684-.316-.108-.658-.103-.992-.097"/>
        <path fill="#FC6681" d="M461.215 307.483s1.455 7.935-.444 7.935c0 0-1.52-4.121-2.66-3.772 0 0-6.836 3.772-9.496 3.772 0 0 4.67-5.587 8.407-7.935h4.193z"/>
        <path fill="#3F3D56" d="M510.728 267.954s.7 14.643-11.501 15.055l-.713-15.563 12.214.508z"/>
        <path fill="#FBBEBE" d="M496.885 267.159s-38.705-6.273-42.55 1.631c-3.846 7.905-.36 41.154-.36 41.154l7.533-.655s1.322-31.126 3.103-32.396c1.782-1.271 33.144 6.155 35.71 5.798 2.87-.401 12.838-11.749-3.436-15.532M507.669 235.6c-.425.54-.25 1.348.121 1.927.598.933 1.602 1.534 2.64 1.915 2.18.8 4.66.74 6.798-.165.216-.092.453-.22.51-.448.07-.274-.155-.528-.367-.715a12.285 12.285 0 0 0-4.795-2.592c-.88-.244-1.799-.413-2.711-.423-.712-.008-1.69-.14-2.196.5M478.042 240.05l-.731-1.232s-.564-.673-1.273-2.045a3.496 3.496 0 0 1-.358-1.14c-.067-.48-.128-1.124-.052-1.486.093-.449-.408-.778-.716-.5-.31.28-.596 1.511-.265 2.95.332 1.438-1.499.011-2.175-.497-.677-.508-2.844-1.982-3.164-1.897-.47.124-.425.651.263 1.143.695.497 2.645 2.112 2.36 2.456-.281.34-3.69-2.293-3.69-2.293s-.637-.682-.98-.293c-.618.699 3.21 3.23 3.581 3.463.258.16-.04.547-.306.359-.274-.194-3.338-2.706-3.975-2-.488.542 3.13 2.112 3.478 2.987.346.875-2.624-1.47-3.07-.934-.165.199-.26.372 1.638 1.471 1.946 1.127 7.713 3.322 7.713 3.322l1.704-3.918"/>
        <path fill="#FC6681" d="M502.505 242.64l3.492-7.955 2.389.259 3.126 3.303s8.217-.208 9.23 1.591-3.63 10.588-3.63 10.588l-14.607-7.786z"/>
        <path fill="#FBBEBE" d="M518.225 237.94s9.224 1.8 3.335 16.46c-5.998 14.929-30.445 11.944-30.445 11.944l-.411-5.37s20.597-1.887 23.983-7.791c3.386-5.904 3.538-15.244 3.538-15.244"/>
        <path fill="#3D94D6" d="M470.89 265.537l-9.207-19.798 1.188-.676 9.362 19.198 16.503-1.313.162 1.117z"/>
        <path fill="#2F2E41" d="M510.37 219.123s1.123-4.718 7.672-3.31c6.548 1.406 4.039 9.043 4.039 9.043l-3.192-1.857-.082-2.22-.765 1.835-2.49-1.091.64-1.32-1.114.823-4.707-1.903z"/>
        <path fill="#FBBEBE" d="M490.704 260.974s-2.697.055-4.155-1.892c-1.459-1.948-1.985.08-.389 1.892 1.595 1.814 2.366 2.22 2.366 2.22s-8.888 2.247-7.03 2.362c1.859.118 10.373 1.006 10.373 1.006l-1.165-5.588z"/>
        <path fill="#3F3D56" d="M470.023 278.671l-1.315-13.873s32.802-1.181 37.265 2.959c4.463 4.14 1.99 16.018-6.746 15.252-8.738-.767-29.204-4.338-29.204-4.338"/>
        <path fill="#FC6681" d="M501.995 235.415l1.67 4.583 4.721-5.054s-3.936-1.472-6.39.47M517.563 244.356l5.045-2.82s-.97-3.06-4.775-3.771c-3.805-.711-.3-.231-.27 0 .03.231 0 6.591 0 6.591"/>
        <path fill="#000102" d="M503.604 240.133c-.076.034-.6-.98-1.06-2.31-.462-1.327-.68-2.448-.599-2.47.085-.02.434 1.055.893 2.37.454 1.313.846 2.374.766 2.41M522.85 241.38c.055.058-1.024 1.073-2.62 1.935-1.59.87-3.027 1.222-3.046 1.146-.029-.088 1.34-.567 2.898-1.42 1.564-.843 2.71-1.733 2.768-1.661" opacity=".1"/>
        <path fill="#000" d="M511.695 284.402l.797 2.969 5.73-3.668-.348-3.432zM472.736 284.162l-.856 3.21 5.191 2.44.971-2.808zM526.125 240.906c.134.07-1.352 2.53-2.093 5.933-.777 3.398-.478 6.256-.628 6.261-.056.007-.204-.697-.252-1.856-.026-.58-.012-1.271.048-2.037a19.62 19.62 0 0 1 .376-2.47c.197-.865.446-1.674.71-2.395.272-.718.552-1.35.822-1.862.536-1.03.97-1.603 1.017-1.574" opacity=".1"/>
        <path fill="#000" d="M522.835 230.613c-.001-.008.092-.039.276-.091.187-.045.456-.146.828-.201.733-.152 1.849-.283 3.273-.14.71.083 1.497.216 2.328.48.83.266 1.708.638 2.58 1.17.87.529 1.725 1.234 2.473 2.123.751.889 1.365 1.973 1.804 3.184.875 2.43.982 5.355.32 8.296-.652 2.956-2.037 5.889-3.611 8.853-1.576 2.968-3.281 6.062-5.228 9.165-1.944 3.101-4.13 6.215-6.67 9.163-2.54 2.947-5.324 5.57-8.287 7.737-2.963 2.171-6.107 3.877-9.28 5.033-.787.308-1.595.518-2.379.768-.39.132-.793.203-1.186.304l-1.174.28c-.789.132-1.56.291-2.33.392-.384.046-.766.09-1.144.134-.378.046-.754.089-1.13.104a41.49 41.49 0 0 1-8.314-.25c-2.528-.314-4.777-.835-6.721-1.38-1.951-.529-3.585-1.135-4.913-1.636-1.318-.533-2.333-.964-3.004-1.297-.335-.16-.59-.284-.766-.37-.17-.086-.257-.133-.253-.14.003-.007.096.026.274.097l.783.328c.682.303 1.707.707 3.03 1.21 1.335.476 2.97 1.053 4.917 1.557 1.942.518 4.181 1.012 6.693 1.304 2.508.3 5.286.426 8.245.19.37-.015.743-.06 1.117-.108l1.132-.138c.759-.105 1.521-.265 2.3-.398l1.16-.283c.387-.1.785-.172 1.17-.304.773-.25 1.57-.46 2.346-.767 3.127-1.153 6.23-2.846 9.156-4.999 2.93-2.15 5.686-4.75 8.205-7.673 2.52-2.924 4.696-6.017 6.638-9.101 1.94-3.086 3.65-6.167 5.234-9.124 1.58-2.95 2.959-5.842 3.613-8.737.665-2.877.578-5.733-.253-8.1-.418-1.18-1.002-2.237-1.721-3.104a9.867 9.867 0 0 0-2.385-2.091c-.845-.53-1.7-.906-2.508-1.18a12.354 12.354 0 0 0-2.282-.511 11.426 11.426 0 0 0-3.235.051c-.372.04-.643.126-.833.155-.187.037-.285.053-.288.045" opacity=".1"/>
        <path fill="#FFF" d="M474.27 243.65h-6.577a.745.745 0 0 1-.744-.745V230.66c0-.412.332-.745.744-.745h6.576c.412 0 .744.333.744.745v12.244a.745.745 0 0 1-.744.745"/>
        <path fill="#F7F7F7" d="M467.756 242.842h6.452v-11.31h-6.452z"/>
        <path stroke="#FFF" stroke-linecap="round" stroke-linejoin="round" stroke-width=".25" d="M472.191 230.724h-2.42 2.42z"/>
        <path stroke="#4285F4" stroke-linejoin="round" stroke-width=".5" d="M473.4 237.187h-4.839 4.84zM473.4 238.4h-4.839 4.84z" opacity=".2"/>
        <path fill="#4285F4" d="M472.594 234.763c0 .893-.722 1.616-1.613 1.616-.89 0-1.613-.723-1.613-1.616 0-.892.722-1.616 1.613-1.616.89 0 1.613.724 1.613 1.616" opacity=".2"/>
        <path fill="#F2B8B8" d="M684.809 222.62c-1.926 1.653-4.054 3.12-6.446 3.964-2.391.846-5.073 1.031-7.456.158-.634-.231-1.259-.54-1.933-.574-.675-.033-1.432.309-1.608.962-.231.857.61 1.61 1.4 2.016.788.406 1.73.833 1.93 1.697.293 1.265-1.165 2.142-1.943 3.179-.838 1.115-.885 2.765-.11 3.926.774 1.16 2.313 1.75 3.663 1.402.833-.215 1.549-.735 2.242-1.245l6.875-5.05c5.686-4.176 11.402-8.377 16.323-13.436 2.08-2.14 4.083-4.57 4.64-7.505.4-2.105-.107-4.317-1.215-6.13-.666-1.09-.454-6.052-1.658-4.432-.595.801-3.623 4.19-3.958 5.167a37.075 37.075 0 0 1-5.047 9.704 36.228 36.228 0 0 1-5.7 6.197"/>
        <path fill="#FBBEBE" d="M638.982 183.601l-7.47.372-.425-5.608a6216.6 6216.6 0 0 1 3.713-.26c.849-.06 2.206-.46 3.026-.15 1.625.61 1.246 4.098 1.156 5.646"/>
        <path fill="#FFF" d="M637.277 183.01c.474-.101.948-.222 1.432-.21.482.013.987.181 1.287.56.302.38.323.994-.036 1.318l-7.436.429c-1.682.097-3.505-1.497-1.043-1.83 1.91-.256 3.836.152 5.796-.267"/>
        <path fill="#2F2E41" d="M646.024 166.328l-3.07-.149c.723-.348.546-1.54-.126-1.977-.672-.436-1.544-.346-2.338-.242l-4.64.613c-.838.111-1.68.223-2.482.49-2.507.836-4.39 3.29-4.55 5.932-.111 1.85.543 3.65 1.189 5.39l1.97 5.313c1.718.104 3.744.07 4.748-1.33.654-.911.642-2.126.604-3.248-.043-1.238.508-2.402.67-3.954.126-1.22-.351-2.955.91-3.276 2.868-.727 5.417-.592 7.115-3.562"/>
        <path fill="#AFC1E7" d="M745.821 311.29c0 6.31-33.884 11.424-75.683 11.424-41.8 0-75.684-5.114-75.684-11.424s33.885-11.423 75.684-11.423c41.8 0 75.683 5.114 75.683 11.423" opacity=".3"/>
        <path fill="#FBBEBE" d="M643.814 173.171c.313 1.797.27 3.635.225 5.46-.027 1.121-.148 2.422-1.08 3.043-.677.45-1.599.373-2.327.015-.73-.359-1.308-.956-1.871-1.543l-3.024-3.144c-.838-.87-1.74-2.063-1.245-3.165.273-.61.981-.99 1.639-.879.658.11 1.204.701 1.263 1.366.172-1.048-.014-2.12-.03-3.182-.016-1.063.182-2.213.95-2.948 2.96-2.833 5.175 3.107 5.5 4.977"/>
        <path fill="#3F3D56" d="M653.853 266.327c.364 4.47.453 8.959.543 13.443.203 10.236.405 20.47.61 30.704l-14.325-.917.005-19.612c.002-8.031.001-16.104-1.276-24.032-1.278-7.929-3.901-15.777-8.696-22.214-1.83-2.458-3.97-4.704-5.467-7.378-2.407-4.297-2.972-9.588-1.528-14.298-.177.58 10.93 1.905 11.935 1.93 2.06.053 4.123-.036 6.171-.268 2.7-.306 2.6-.143 3.37 2.477 2.464 8.382 4.852 16.8 6.546 25.378.965 4.887 1.708 9.82 2.112 14.787"/>
        <path fill="#3F3D56" d="M626.555 254.036c.1 4.126.199 8.262-.175 12.372-1.21 13.313-7.277 25.628-13.24 37.589l10.106 4.763 9.333-21.298c1.962-4.48 3.944-9.02 4.725-13.849.962-5.95.057-12.026-.847-17.985l-4.702-30.95c-2.207.039-4.936-.713-5.784 1.687-.821 2.319.07 6.257.128 8.712.152 6.313.456 12.643.456 18.959"/>
        <path fill="#3F3D56" d="M612.919 307.141l9.625 5.228c.635.346 1.36.701 2.05.49.691-.212 1.033-1.323.388-1.647-.977-.225-1.689-1.08-2.128-1.982-.441-.901-.686-1.89-1.158-2.777-.826-1.55-3.072-3.391-4.982-3.165-1.89.223-2.75 2.412-3.795 3.853M642.939 313.095l12.876.815c.984.062 2.02.114 2.906-.32.884-.437 1.523-1.544 1.097-2.435-.321-.673-1.11-.987-1.85-1.072-.74-.085-1.498-.004-2.223-.17-1.335-.303-2.338-1.374-3.516-2.072-2.034-1.205-5.661-1.634-7.904-.731-1.304.524-1.147.342-1.538 1.632-.114.374.19 4.355.152 4.353"/>
        <path fill="#FFF" d="M624.866 186.17c-1.263 1.358-1.907 3.18-2.314 4.992-1 4.447-.754 9.069-.503 13.62l.957 17.369c.048.876.155 1.869.856 2.397.526.396 1.24.407 1.898.4l16.94-.17c.723-.007 1.534-.051 2.028-.581.439-.473.482-1.179.5-1.824l.903-31.198c.06-2.082-.035-4.505-1.702-5.75-.952-.712-2.204-.847-3.39-.92-3.275-.204-6.462.204-9.716.216-2.51.01-4.443-.718-6.457 1.448"/>
        <path fill="#2F2E41" d="M719.312 172.04c-.174.933.626 1.76 1.435 2.253.81.494 1.757.9 2.204 1.738.536 1.004.167 2.294.638 3.33.566 1.243 2.075 1.668 3.192 2.452 2.07 1.455 2.751 4.57 1.48 6.759-3.021.618-6.137.78-9.206.475-.862-4.25-1.728-8.529-1.812-12.866a35.987 35.987 0 0 1 .33-5.603"/>
        <path fill="#FFF" d="M645.475 211.521c.489 1.01 1.235 2.172 2.355 2.117.335-.018.652-.148.961-.278l3.624-1.517c1.17-.49 2.47-1.117 2.847-2.33.32-1.027-.146-2.116-.6-3.09-2.872-6.145-5.743-12.291-8.613-18.436-.172-.367-.346-.738-.6-1.052-2.578-3.179-7.011 1.496-7.688 4.085-.485 1.85.77 4.048 1.4 5.731a170.696 170.696 0 0 0 6.314 14.77"/>
        <path fill="#FC6681" d="M698.962 308.175s1.504 6.956-.46 6.956c0 0-1.57-3.613-2.75-3.307 0 0-7.072 3.307-9.823 3.307 0 0 4.831-4.898 8.696-6.956h4.337z"/>
        <path fill="#FBBEBE" d="M724.037 205.33a195.56 195.56 0 0 1 5.673 43.054c.013.655.012 1.353-.338 1.907-.728 1.153-2.761 1.419-2.794 2.782-.023.981 1.219 1.583 2.158 1.307.94-.277 1.602-1.097 2.2-1.872-.097 1.617-.174 3.333.6 4.754.776 1.422 2.743 2.317 4.068 1.388 1.165-.817 1.245-2.485 1.208-3.91-.278-10.91-.558-21.841-1.937-32.667a161.633 161.633 0 0 0-3.117-17.094c-.374-1.566-.927-3.324-2.386-4-1.298-.601-2.9-.064-3.92.94s-1.57 2.384-2.022 3.742M698.822 308.175c1.538-2.341 2.108-5.408 2.666-8.534 1.9-10.661 3.338-21.483 4.775-32.294.15-1.139.294-2.37-.053-3.413-.633-1.897-2.432-2.089-3.88-1.86-1.121.178-2.058.024-3.154-.159-1.253-.208-1.248-.254-1.665 1.68-.776 3.612-1.248 7.444-1.77 11.146-1.032 7.326.162 14.92-.376 22.356-.31 4.302-.548 6.758-.69 11.078"/>
        <path fill="#FBBEBE" d="M722.937 307.695c.272-2.789-.65-5.769-1.611-8.795-3.28-10.32-7.042-20.565-10.802-30.802-.395-1.077-.84-2.233-1.634-2.995-1.442-1.383-3.123-.713-4.297.167-.91.68-1.81.98-2.866 1.332-1.204.4-1.222.357-.69 2.262.993 3.559 2.359 7.169 3.62 10.688 2.494 6.964 7.085 13.126 10.07 19.955 1.725 3.95 2.658 6.235 4.541 10.125"/>
        <path fill="#3F3D56" d="M695.512 265.919a58.514 58.514 0 0 0 20.5 2.715c2.578-6.884 5.156-13.767 7.732-20.65 1.515-4.042 3.036-8.114 3.787-12.367.75-4.252.693-8.744-.894-12.759-1.295-3.282-3.755-6.262-7.09-7.401-2.44-.834-5.096-.626-7.664-.408-2.486.21-7.663.283-9.31 2.584-.68.949-.385 2.313-.421 3.422-.068 2.06-.28 4.129-.455 6.182a266.485 266.485 0 0 1-6.185 38.682"/>
        <path fill="#FC6681" d="M723.131 307.213s4.341 5.635 2.567 6.48c0 0-2.968-2.587-3.902-1.805 0 0-4.97 6.028-7.455 7.211 0 0 2.265-6.5 4.873-10.021l3.917-1.865z"/>
        <path fill="#FBBEBE" d="M710.506 190.206a5.008 5.008 0 0 0-3.96.161c.148 2.227 1.953 2.184 4.026 3.57 2.596.976 6.22 0 7.603-.693 2.48-1.243 1.629.32 3.79-1.422.533-.43 2.833-.033 3.121-.655.288-.622-1.522-2.314-2.076-2.718-1.137-.83-2.804.857-4.058.22-.97-.492-.872-1.893-1.354-2.867-.556-1.125-1.94-1.635-3.19-1.535-.946.076-3.126.571-3.667 1.467-.198.331-.383 4.415-.235 4.472"/>
        <path fill="#E5AEAE" d="M711.755 185l-.755 2.085 3 1.415 3.236-3z"/>
        <path fill="#FBBEBE" d="M706.616 181.103c.236 1.871.79 3.869 2.3 4.996.902.673 2.049.95 3.172.983 3.65.11 7.22-2.44 8.304-5.933 1.084-3.493-.413-7.621-3.48-9.604-2.572-1.661-6.334-1.777-8.944-.107-2.344 1.5-1.658 7.255-1.352 9.665"/>
        <path fill="#FC6681" d="M706.23 190.424c-2.558 1.82-3.558 4.578-5.725 6.85-1.08 1.135-2.178 2.54-1.96 4.093.211 1.492.163 1.82 1.187 2.924a10.77 10.77 0 0 1 2.82 7.86c-.056.943-.237 1.879-.206 2.822.03.943.31 1.931 1.013 2.56.98.875 2.452.813 3.76.7l11.537-.997c1.18-.102 2.505-.28 3.222-1.225.54-.711.582-1.67.6-2.562l.228-10.387c-.081.5.303.984.774 1.168.47.185.998.13 1.492.026 2.843-.605 5.26-2.942 5.903-5.78.642-2.84-5.469-8.428-7.862-10.079-2.723-1.877-5.53 5.54-9.676 5.54-3.525 0-1.384-4.527-5.53-4.154"/>
        <path fill="#FBBEBE" d="M648.23 212.289c-.527 1.437-.078 3.088.79 4.347.87 1.26 2.11 2.205 3.33 3.128l18.658 14.128c1.16.878 2.361 1.777 3.771 2.132 1.41.355 3.097.03 3.935-1.16.976-1.384.427-3.413-.767-4.613-1.196-1.2-2.864-1.77-4.47-2.304 1.943-.494 3.552-2.128 4.02-4.08-1.9.793-4.045.98-6.053.523-2.742-.621-5.104-2.375-7.092-4.369-1.989-1.993-3.689-4.259-5.679-6.251-1.514-1.517-3.272-2.911-5.359-3.392-2.087-.48-4.554.174-5.67 2.004"/>
        <path fill="#2F2E41" d="M705.941 175.384s-.258-4.88 7.25-5.868c7.509-.988 7.178 7.158 7.178 7.158l-4.024-.631-.78-2.081-.255 2.015-3.028-.152.279-1.481-.944 1.178-5.676-.138z"/>
        <path fill="#BACDEF" d="M572.939 75.348s3.365-4.428 5.427-6.458c3.714-3.655 7.975-10.115 21.596-5.354 1.06.37 2.085.862 3.105 1.356 1.201.582 4.921.596 8.731-2.865 6.054-5.5 8.422-9.65 16.716-9.778 9.651-.15 11.169 13.615 18.67 17.138 4.773 2.242 17.367 4.47 19.972 5.465l-94.217.496zM294.483 58.068s-3.56-4.684-5.74-6.83c-3.929-3.866-8.434-10.699-22.842-5.663-1.12.392-2.204.911-3.283 1.434-1.27.615-5.204.632-9.234-3.03-6.404-5.817-8.907-10.206-17.68-10.342-10.207-.158-11.812 14.4-19.745 18.126-5.049 2.372-18.37 4.729-21.124 5.78l99.648.525z"/>
        <path fill="#AFC1E7" d="M485.317 13.192a6.036 6.036 0 0 1-5.603-6.439 6.032 6.032 0 0 1 6.427-5.612 6.037 6.037 0 0 1 5.603 6.438 6.033 6.033 0 0 1-6.427 5.613M473.71 10.58a2.112 2.112 0 0 1-1.96-2.253 2.11 2.11 0 1 1 4.21.288 2.11 2.11 0 0 1-2.25 1.964M710.466 124.16a6.045 6.045 0 0 1-3.188 7.923 6.027 6.027 0 0 1-7.91-3.195 6.044 6.044 0 0 1 3.19-7.922 6.026 6.026 0 0 1 7.908 3.194M713.403 135.708a2.116 2.116 0 0 1-1.116 2.772 2.11 2.11 0 0 1-2.768-1.117 2.11 2.11 0 1 1 3.884-1.655M116.602 88.314a6.023 6.023 0 0 1 8.405-1.444 6.046 6.046 0 0 1 1.441 8.418 6.023 6.023 0 0 1-8.404 1.445 6.047 6.047 0 0 1-1.442-8.419M124.868 79.744a2.109 2.109 0 0 1 2.942-.506 2.117 2.117 0 0 1 .504 2.947 2.108 2.108 0 0 1-2.941.505 2.116 2.116 0 0 1-.505-2.946"/>
        <g transform="translate(578 224)">
            <mask id="x" fill="#fff">
                <use xlink:href="#v"/>
            </mask>
            <path fill="url(#w)" d="M7.723 15.632c1.509 2.418 3.353 4.888 5.49 6.956.003.005.008.008.011.012.208.2.418.399.63.588.177.163.355.32.536.475.071.061.14.121.212.18h4.258l-.071-.172c-.037-.092-.076-.18-.113-.272l-.012-.027a44.03 44.03 0 0 0-.287-.663 23.23 23.23 0 0 0-.269-.604 13.855 13.855 0 0 0-.16-.354c-.076-.167-.154-.332-.23-.498-.11-.227-.22-.454-.332-.681-.098-.202-.2-.403-.302-.604-.02-.04-.037-.08-.059-.12a55.11 55.11 0 0 0-.34-.653 42.94 42.94 0 0 0-.363-.682c-.108-.198-.217-.395-.326-.591l-.089-.156a61.536 61.536 0 0 0-.698-1.201l-.065-.107a42.62 42.62 0 0 0-.374-.615 39.03 39.03 0 0 0-.412-.653 32.252 32.252 0 0 0-.42-.646 53.52 53.52 0 0 0-1.31-1.904v-.003c-.147-.201-.293-.402-.442-.602a59.509 59.509 0 0 0-2.363-2.97v.001l-.48-.554a57.07 57.07 0 0 0-.487-.546c-.112-.126-.226-.248-.339-.373a73.718 73.718 0 0 1-.343-.367c-.05-.053-.099-.105-.146-.159l-.016-.016c-.099-.104-.198-.21-.299-.312a23.823 23.823 0 0 1-.302-.31c-.04-.04-.077-.081-.117-.122A52.475 52.475 0 0 0 .59.522c3.369 4.626 4.1 10.246 7.133 15.11" mask="url(#x)"/>
        </g>
        <path fill="#000" d="M585.023 232.847c.015.209.037.413.072.616.05.303.124.597.232.882.072.19.158.376.262.555.147.251.323.48.515.7a8.6 8.6 0 0 0 .407.423c.103.101.208.202.315.301.284.27.57.539.829.823.354.393.655.818.81 1.33a3.027 3.027 0 0 1 .126.74c.023.371-.006.753-.036 1.136l-.029.383c-.018.254-.029.509-.02.762.016.395.077.777.179 1.147a6.93 6.93 0 0 0 .784 1.765 11.926 11.926 0 0 0 .61.9l.11.148c.13.17.264.34.4.506.098.121.2.24.3.36.114.134.227.267.342.397.002.004.008.008.01.013.213.204.428.406.644.6.182.164.364.325.548.482l.22.184H597a12.163 12.163 0 0 1-.072-.175l-.115-.276-.012-.03a48.454 48.454 0 0 0-.567-1.29 19.32 19.32 0 0 0-.165-.36c-.077-.17-.157-.34-.235-.509-.112-.231-.224-.463-.34-.695-.099-.205-.203-.41-.308-.616-.02-.039-.038-.08-.06-.12-.114-.224-.229-.446-.348-.668a58.516 58.516 0 0 0-.704-1.298l-.09-.158a62.696 62.696 0 0 0-.713-1.225l-.067-.109a48.153 48.153 0 0 0-.803-1.293 41.09 41.09 0 0 0-.428-.658 49.961 49.961 0 0 0-1.34-1.942v-.002c-.15-.206-.3-.41-.452-.614-.01-.015-.022-.03-.033-.044a57.87 57.87 0 0 0-2.381-2.983l-.49-.565-.498-.555-.347-.382a.059.059 0 0 1-.015-.016l-.485-.52-.016-.016c-.1-.106-.202-.214-.306-.318-.14-.15-.283-.296-.429-.44a3.042 3.042 0 0 0-.119-.123c-.008.937-.105 1.915-.039 2.847" opacity=".1"/>
        <g transform="translate(597 225)">
            <mask id="A" fill="#fff">
                <use xlink:href="#y"/>
            </mask>
            <path fill="url(#z)" d="M13.688 2.11l-3.283 4.286c-.14.184-.283.369-.426.551C9.158 8.01 8.304 9.05 7.286 9.905c-.438.366-.917.713-1.358 1.088-.211.18-.412.367-.599.567v.002c-.203.22-.385.457-.533.715-.097.164-.177.339-.24.524-.419 1.202-.027 2.652-.703 3.72-.244.384-.593.664-.957.93-.297.216-.604.424-.872.67C.775 19.267.45 21.114.202 22.815l-.005.03h11.888c1.257-.869 2.95-1.413 3.416-2.87.62-1.944-1.444-4.147-.526-5.962.632-1.248 2.418-1.618 2.827-2.961.415-1.359-.864-2.631-1.075-4.04-.176-1.174.407-2.309.644-3.472.23-1.115-.086-2.567-1.107-2.894a1.42 1.42 0 0 0-.422-.067c-.858 0-1.597.802-2.154 1.532" mask="url(#A)"/>
        </g>
        <g transform="translate(597 225)">
            <mask id="D" fill="#fff">
                <use xlink:href="#B"/>
            </mask>
            <path fill="url(#C)" d="M14.052 2.11l-3.37 4.286c-.145.184-.29.369-.438.551C9.401 8.01 8.525 9.05 7.48 9.905c-.45.366-.94.713-1.393 1.088-.217.18-.424.367-.615.567v.002c-.208.22-.396.457-.548.715-.099.164-.181.339-.247.524-.429 1.202-.027 2.652-.72 3.72-.25.384-.61.664-.983.93-.305.216-.62.424-.895.67C.796 19.267.463 21.114.208 22.815l-.005.03h8.19c.383-.896.757-1.797 1.123-2.701 1.238-3.059 2.387-6.156 3.53-9.244 1.26-3.4 2.522-6.802 3.78-10.203-.041-.019-.087-.034-.13-.05a1.495 1.495 0 0 0-.433-.067c-.881 0-1.64.801-2.211 1.53" mask="url(#D)"/>
        </g>
        <g transform="translate(602 218)">
            <mask id="G" fill="#fff">
                <use xlink:href="#E"/>
            </mask>
            <path fill="url(#F)" d="M.922 8.99a23.54 23.54 0 0 0-.122.941 25.4 25.4 0 0 0-.143 1.921c-.059 1.532.001 3.073.105 4.613v.003c.025.373.053.748.082 1.12l.09 1.13v.002l.01.105.067.815c.036.414.068.829.098 1.245.228 2.999.346 6.029-.2 8.961h.244a14.11 14.11 0 0 0 .5-.714 15.104 15.104 0 0 0 .2-.313h.001c.103-.164.201-.326.297-.493.08-.14.159-.28.236-.42.037-.071.075-.14.11-.21a12.047 12.047 0 0 0 .213-.42 17.949 17.949 0 0 0 .29-.621h.001l.008-.02c.13-.287.25-.578.364-.872.053-.139.104-.278.155-.417l.01-.029c.05-.138.098-.277.145-.418l.014-.037c.046-.138.091-.275.134-.415l.07-.226v-.004c.073-.238.14-.479.206-.721.655-2.448.951-5.058 1.072-7.676.026-.55.045-1.1.061-1.651.133-4.713-.044-9.411.513-14.094C3.021 1.992 1.467 5.48.922 8.99" mask="url(#G)"/>
        </g>
        <path fill="#000" d="M602.146 233.553c.029.38.06.758.093 1.137.034.379.07.756.105 1.134v.003l.01.104c.027.273.052.546.078.82.04.414.08.831.114 1.25.262 3.01.397 6.053-.231 8.999h.28c.097-.112.188-.224.28-.337a15.62 15.62 0 0 0 .308-.393c.074-.1.15-.201.221-.302a19.132 19.132 0 0 0 .614-.918c.042-.07.086-.14.127-.21a12.488 12.488 0 0 0 .246-.421c.047-.085.094-.169.14-.255.066-.123.131-.245.194-.37l.01-.02a16.761 16.761 0 0 0 .597-1.295l.013-.028c.057-.138.113-.279.167-.42.006-.012.01-.024.015-.037.054-.138.105-.277.156-.416l.079-.228v-.004c.084-.24.163-.48.238-.724-.861-1.359-2.279-2.237-2.879-3.786-.201-.516-.223-1.042-.138-1.573.314-2.027 2.154-4.128 1.38-6.1-.37-.948-1.247-1.576-2.174-2.163-.021.16-.039.322-.057.481-.05.485-.084.967-.105 1.452-.068 1.535 0 3.078.12 4.62" opacity=".1"/>
        <g transform="translate(586 212)">
            <mask id="J" fill="#fff">
                <use xlink:href="#H"/>
            </mask>
            <path fill="url(#I)" d="M1.053.93a.735.735 0 0 0-.075.046C-.055 1.656-.026 3.153.119 4.38l.764 6.5c.223 1.893.447 3.803.249 5.7-.115 1.117-.37 2.285-.293 3.386v.002c.038.502.144.991.363 1.454.653 1.381 2.227 2.27 2.541 3.767.204.973-.184 1.963-.24 2.956-.12 2.06 1.162 3.906 2.388 5.57.53.718 1.076 1.451 1.67 2.127H20.484c.052-.102.097-.205.138-.313.275-.717.343-1.569.284-2.417a9.823 9.823 0 0 0-.485-2.387 4.328 4.328 0 0 0-.283-.649v-.003c-.77-1.458-2.183-2.195-3.14-3.416a4.75 4.75 0 0 1-.51-.797 2.801 2.801 0 0 1-.242-.7c-.201-.959.064-1.992.361-3.03v-.003c0-.004 0-.007.002-.009.412-1.446.881-2.9.239-4.176-.1-.196-.22-.375-.356-.54l-.003-.003c-1.387-1.678-4.485-1.924-5.156-4.053-.506-1.608.741-3.485-.04-4.98-.79-1.515-2.984-1.476-4.365-2.486-1.148-.84-1.603-2.314-2.38-3.507C3.965 1.477 2.914.695 1.925.695c-.302 0-.598.072-.872.236" mask="url(#J)"/>
        </g>
        <g transform="translate(586 213)">
            <mask id="M" fill="#fff">
                <use xlink:href="#K"/>
            </mask>
            <path fill="url(#L)" d="M1.085.18a.763.763 0 0 0-.077.044C-.056.9-.026 2.386.123 3.604l.787 6.454c.23 1.88.46 3.777.256 5.66-.118 1.109-.38 2.268-.301 3.361v.003c.038.498.148.984.373 1.443.674 1.372 2.295 2.255 2.619 3.741.21.966-.19 1.949-.248 2.934-.124 2.046 1.197 3.88 2.46 5.531.547.713 1.109 1.44 1.72 2.113h8.808c-.58-1.82-1.216-3.623-1.898-5.413-2.27-5.97-5.032-11.795-7.78-17.58C5.052 7.924 3.187 3.997 1.321.069c-.08.03-.16.067-.236.11" mask="url(#M)"/>
        </g>
        <path fill="#BACDEF" d="M619 250.22c0 9.214-9.246 6.364-20.569 6.364-11.322 0-20.431 2.85-20.431-6.365 0-9.214 9.246-11.219 20.568-11.219 11.32 0 20.432 2.005 20.432 11.22"/>
    </g>
</svg>
