<svg xmlns="http://www.w3.org/2000/svg" xmlns:xlink="http://www.w3.org/1999/xlink" width="299" height="180" viewBox="0 0 299 180">
    <defs>
        <path id="a" d="M0 .374h298.067V150.6H0z"/>
        <path id="c" d="M.22.12h8.792v8.781H.221z"/>
        <path id="e" d="M7.424 15.996c1.557 2.528 3.46 5.108 5.667 7.27l.013.014c.212.208.43.415.65.615.182.168.367.334.553.493.073.066.144.13.22.19h4.394c-.022-.06-.048-.121-.072-.18l-.118-.284-.01-.028c-.097-.233-.197-.462-.296-.695-.09-.21-.182-.419-.279-.63-.053-.122-.107-.248-.166-.369a48.469 48.469 0 0 0-.238-.52 72.986 72.986 0 0 0-.34-.713 29.25 29.25 0 0 0-.315-.631 38.03 38.03 0 0 0-.41-.808c-.122-.24-.248-.475-.376-.713a94.46 94.46 0 0 0-.336-.618c-.032-.053-.06-.107-.091-.163a80.414 80.414 0 0 0-.72-1.255c-.024-.037-.045-.075-.067-.112l-.387-.643a55 55 0 0 0-.859-1.358 59.655 59.655 0 0 0-1.353-1.99l-.457-.631c-.01-.016-.022-.03-.033-.045a60.326 60.326 0 0 0-2.407-3.06c-.166-.19-.33-.385-.495-.577-.166-.192-.334-.381-.503-.572-.115-.13-.233-.26-.35-.388a.088.088 0 0 1-.016-.017l-.34-.366c-.05-.058-.1-.11-.15-.166l-.015-.018a24.448 24.448 0 0 0-.31-.325c-.105-.11-.21-.216-.312-.324a5.56 5.56 0 0 0-.12-.126A54.605 54.605 0 0 0 .057.206H.056c3.478 4.833 4.236 10.706 7.367 15.79"/>
        <linearGradient id="f" x1="100.007%" x2="0%" y1="50.001%" y2="50.001%">
            <stop offset="0%" stop-color="#4BBA7E"/>
            <stop offset="100%" stop-color="#23E877"/>
        </linearGradient>
        <path id="h" d="M14.412 1.674L10.972 6.2c-.148.195-.297.39-.446.583-.861 1.122-1.756 2.222-2.823 3.125-.459.385-.962.753-1.423 1.149-.223.19-.432.388-.626.6v.002a4.04 4.04 0 0 0-.56.754 2.967 2.967 0 0 0-.253.553c-.438 1.27-.028 2.802-.737 3.931-.255.406-.62.702-1.003.983-.31.228-.631.448-.913.708C.879 19.798.54 21.75.278 23.548l-.004.03H12.73c1.319-.917 3.092-1.494 3.581-3.033.65-2.053-1.512-4.38-.55-6.298.662-1.318 2.534-1.71 2.962-3.129.436-1.435-.907-2.779-1.126-4.267-.185-1.24.425-2.44.675-3.668.24-1.176-.09-2.713-1.16-3.058-.047-.014-.093-.029-.142-.038a1.397 1.397 0 0 0-.302-.032c-.898 0-1.673.848-2.257 1.619"/>
        <linearGradient id="i" x1="100.003%" x2=".002%" y1="49.999%" y2="49.999%">
            <stop offset="0%" stop-color="#4BBA7E"/>
            <stop offset="100%" stop-color="#23E877"/>
        </linearGradient>
        <path id="k" d="M14.629 1.674L11.137 6.2c-.15.195-.301.39-.453.583-.874 1.122-1.782 2.222-2.866 3.125-.465.385-.975.753-1.443 1.149-.227.19-.439.388-.636.6v.002a4.045 4.045 0 0 0-.57.754 2.946 2.946 0 0 0-.255.553c-.445 1.27-.028 2.802-.748 3.931-.259.406-.63.702-1.019.983-.313.228-.64.448-.927.708C.892 19.798.548 21.75.283 23.548l-.005.03h8.488c.399-.948.783-1.9 1.162-2.854 1.285-3.23 2.475-6.504 3.66-9.763C14.891 7.366 16.2 3.772 17.504.18a2.428 2.428 0 0 0-.135-.056c-.048-.014-.094-.029-.144-.038a1.439 1.439 0 0 0-.306-.032c-.912 0-1.698.848-2.291 1.619"/>
        <linearGradient id="l" x1="99.995%" x2=".002%" y1="49.999%" y2="49.999%">
            <stop offset="0%" stop-color="#4BBA7E"/>
            <stop offset="100%" stop-color="#23E877"/>
        </linearGradient>
        <path id="n" d="M.631 10.163c-.058.336-.107.673-.154 1.01-.02.172-.042.344-.058.517-.058.516-.097 1.03-.12 1.548-.072 1.645.002 3.303.132 4.957v.003c.031.402.066.803.102 1.206l.117 1.213v.003c.001.035.005.074.008.11.03.294.056.585.085.877.044.445.086.891.122 1.339.287 3.222.433 6.478-.25 9.63H.92c.106-.119.204-.24.304-.36.109-.135.22-.272.322-.407.001-.005.007-.009.01-.014a20.358 20.358 0 0 0 .613-.853h.001c.098-.15.199-.3.294-.453l.139-.224c.046-.073.09-.148.137-.224l.13-.226.151-.273c.073-.131.143-.263.212-.395.004-.008.008-.013.01-.023.162-.307.312-.621.454-.937.066-.149.13-.3.194-.449l.014-.029c.063-.149.121-.3.182-.45l.015-.04c.059-.147.115-.295.17-.445l.085-.243v-.004c.092-.256.178-.515.259-.776.819-2.63 1.188-5.435 1.341-8.25.034-.59.056-1.182.077-1.773.167-5.065-.055-10.113.643-15.149C3.257 2.641 1.312 6.39.63 10.163"/>
        <linearGradient id="o" x1="99.986%" x2="0%" y1="50.002%" y2="50.002%">
            <stop offset="0%" stop-color="#4BBA7E"/>
            <stop offset="100%" stop-color="#23E877"/>
        </linearGradient>
        <path id="q" d="M1.235 1.208c-.028.016-.053.03-.078.046C.094 1.944.126 3.461.273 4.705l.786 6.588c.229 1.919.459 3.854.256 5.777-.118 1.131-.38 2.314-.3 3.43v.002c.038.51.147 1.005.371 1.473.673 1.401 2.29 2.302 2.613 3.82.21.985-.19 1.99-.249 2.994-.121 2.088 1.197 3.961 2.457 5.645.544.727 1.106 1.47 1.716 2.156H21.207c.054-.103.1-.209.142-.317.283-.726.355-1.591.291-2.45a9.77 9.77 0 0 0-.498-2.418 4.203 4.203 0 0 0-.291-.658v-.004c-.79-1.477-2.244-2.224-3.228-3.461a4.868 4.868 0 0 1-.523-.81c-.117-.229-.199-.466-.25-.707-.206-.972.065-2.019.372-3.073v-.002l.001-.009c.425-1.466.906-2.94.246-4.23a2.964 2.964 0 0 0-.366-.548c-.001-.001-.001-.004-.003-.004-1.424-1.7-4.608-1.95-5.299-4.107-.52-1.63.761-3.533-.041-5.047-.812-1.535-3.069-1.496-4.488-2.519-1.18-.853-1.648-2.344-2.445-3.554C4.225 1.763 3.146.97 2.13.97c-.31 0-.612.073-.894.237"/>
        <linearGradient id="r" x1="50%" x2="50%" y1="0%" y2="100%">
            <stop offset="0%" stop-color="#4BBA7E"/>
            <stop offset="100%" stop-color="#23E877"/>
        </linearGradient>
        <path id="t" d="M1.248.208c-.028.016-.054.03-.079.046C.095.944.127 2.461.276 3.705l.794 6.588c.231 1.919.464 3.854.259 5.777-.12 1.131-.385 2.314-.304 3.43v.002c.04.51.15 1.005.376 1.473.68 1.401 2.314 2.302 2.64 3.82.212.985-.192 1.99-.251 2.994-.123 2.088 1.21 3.961 2.482 5.645.55.727 1.118 1.47 1.734 2.156H16.886a104.699 104.699 0 0 0-1.916-5.524c-2.287-6.092-5.072-12.038-7.842-17.942L1.484.099c-.082.03-.16.066-.236.11"/>
        <linearGradient id="u" x1="99.992%" x2=".001%" y1="49.999%" y2="49.999%">
            <stop offset="0%" stop-color="#4BBA7E"/>
            <stop offset="100%" stop-color="#23E877"/>
        </linearGradient>
        <path id="w" d="M.446.3h175.962v20.317H.446z"/>
    </defs>
    <g fill="none" fill-rule="evenodd">
        <g transform="translate(0 11.634)">
            <mask id="b" fill="#fff">
                <use xlink:href="#a"/>
            </mask>
            <path fill="#4285F4" d="M149.534 2.232c-3.655-1.215-7.41-1.88-11.174-1.857-26.038.165-60.235 18.202-81.974 31.5C33.214 46.049 14.21 67.087 4.275 92.476c-5.015 12.817-7.219 29.117 2.503 38.866 9.09 9.117 23.924 7.965 36.672 6.109 42.63-6.206 90.286-16.254 132.057-1.046 12.761 4.646 24.817 11.745 38.263 13.665 16.524 2.358 33.216-3.449 47.805-11.545 12.724-7.063 24.812-16.36 31.545-29.246 8.661-16.578 6.589-36.992-11.318-44.939-20.68-9.18-42.752-4.841-64.544-4.263-5.951.158-12.036-.065-17.633-2.094-10.188-3.696-12.747-11.691-15.884-21.036-4.801-14.3-18.593-29.52-34.207-34.715" mask="url(#b)" opacity=".1"/>
        </g>
        <path fill="#BACDEF" d="M206.527 35.51s1.84-2.412 2.967-3.519c2.03-1.992 4.358-5.512 11.805-2.918.578.202 1.139.47 1.696.739.655.318 2.69.325 4.773-1.56 3.308-2.998 4.603-5.26 9.137-5.33 5.274-.082 6.105 7.42 10.205 9.34 2.61 1.222 9.494 2.436 10.916 2.978l-51.499.27zM48.614 36.802s1.84-2.412 2.966-3.518c2.03-1.992 4.359-5.512 11.805-2.918.579.202 1.14.47 1.697.738.655.318 2.69.326 4.772-1.56 3.309-2.998 4.603-5.26 9.137-5.33 5.275-.081 6.106 7.42 10.205 9.34 2.61 1.223 9.494 2.437 10.917 2.978l-51.5.27z"/>
        <g transform="translate(154.03)">
            <mask id="d" fill="#fff">
                <use xlink:href="#c"/>
            </mask>
            <path fill="#AFC1E7" d="M4.21 8.882A4.392 4.392 0 0 1 .24 4.106 4.395 4.395 0 0 1 5.022.139a4.394 4.394 0 0 1 3.971 4.778 4.396 4.396 0 0 1-4.782 3.965" mask="url(#d)"/>
        </g>
        <path fill="#AFC1E7" d="M149.828 6.78a1.537 1.537 0 1 1 .283-3.06 1.537 1.537 0 0 1-.283 3.06M293.09 40.898a4.392 4.392 0 0 1-3.76 4.944 4.394 4.394 0 0 1-4.95-3.753 4.396 4.396 0 0 1 8.71-1.192M292.947 49.557a1.537 1.537 0 0 1-1.317 1.731 1.537 1.537 0 1 1-.418-3.045 1.542 1.542 0 0 1 1.735 1.314M21.17 47.836a4.4 4.4 0 0 1-6.215.188 4.387 4.387 0 0 1-.188-6.204 4.397 4.397 0 0 1 6.213-.19 4.385 4.385 0 0 1 .19 6.206M14.334 53.168a1.542 1.542 0 0 1-2.175.066 1.536 1.536 0 0 1-.065-2.173 1.54 1.54 0 0 1 2.173-.066c.62.583.649 1.554.067 2.173"/>
        <g transform="translate(10 115)">
            <mask id="g" fill="#fff">
                <use xlink:href="#e"/>
            </mask>
            <path fill="url(#f)" d="M7.424 15.996c1.557 2.528 3.46 5.108 5.667 7.27l.013.014c.212.208.43.415.65.615.182.168.367.334.553.493.073.066.144.13.22.19h4.394c-.022-.06-.048-.121-.072-.18l-.118-.284-.01-.028c-.097-.233-.197-.462-.296-.695-.09-.21-.182-.419-.279-.63-.053-.122-.107-.248-.166-.369a48.469 48.469 0 0 0-.238-.52 72.986 72.986 0 0 0-.34-.713 29.25 29.25 0 0 0-.315-.631 38.03 38.03 0 0 0-.41-.808c-.122-.24-.248-.475-.376-.713a94.46 94.46 0 0 0-.336-.618c-.032-.053-.06-.107-.091-.163a80.414 80.414 0 0 0-.72-1.255c-.024-.037-.045-.075-.067-.112l-.387-.643a55 55 0 0 0-.859-1.358 59.655 59.655 0 0 0-1.353-1.99l-.457-.631c-.01-.016-.022-.03-.033-.045a60.326 60.326 0 0 0-2.407-3.06c-.166-.19-.33-.385-.495-.577-.166-.192-.334-.381-.503-.572-.115-.13-.233-.26-.35-.388a.088.088 0 0 1-.016-.017l-.34-.366c-.05-.058-.1-.11-.15-.166l-.015-.018a24.448 24.448 0 0 0-.31-.325c-.105-.11-.21-.216-.312-.324a5.56 5.56 0 0 0-.12-.126A54.605 54.605 0 0 0 .057.206H.056c3.478 4.833 4.236 10.706 7.367 15.79" mask="url(#g)"/>
        </g>
        <path fill="#000" d="M17.023 123.847c.015.209.037.413.072.615.05.304.123.598.232.883.071.19.158.376.262.555.146.25.323.482.515.7.13.145.267.286.406.424l.315.3c.284.27.571.539.83.824.354.391.654.816.81 1.33.036.12.065.242.085.365.02.124.032.247.04.373.022.372-.005.754-.035 1.137l-.03.382c-.017.256-.028.51-.02.763.016.395.077.778.18 1.147.168.618.444 1.203.783 1.765a12.135 12.135 0 0 0 .61.9c.037.05.075.097.111.147.13.171.264.34.399.507l.3.358c.115.135.228.267.342.398.003.005.009.008.012.013.21.204.426.406.643.6a19.257 19.257 0 0 0 .768.667H29a5.17 5.17 0 0 1-.071-.176l-.117-.276-.01-.028c-.097-.227-.196-.452-.293-.678-.09-.205-.18-.41-.276-.613a11.67 11.67 0 0 0-.164-.36c-.078-.172-.157-.34-.236-.51l-.337-.695a56.97 56.97 0 0 0-.311-.615 1.77 1.77 0 0 0-.058-.12 47.19 47.19 0 0 0-.348-.668c-.12-.233-.246-.464-.373-.695-.11-.202-.22-.402-.332-.602l-.091-.16a112.08 112.08 0 0 0-.712-1.226c-.023-.035-.044-.071-.067-.108-.125-.21-.254-.419-.382-.627a53.562 53.562 0 0 0-1.734-2.625c-.15-.215-.302-.428-.455-.641v-.002c-.152-.205-.3-.409-.453-.613a54.203 54.203 0 0 0-1.458-1.878 59.03 59.03 0 0 0-.956-1.15c-.163-.187-.326-.377-.49-.563l-.498-.556-.347-.383a.086.086 0 0 1-.015-.015c-.162-.173-.322-.348-.484-.52l-.016-.017a23.99 23.99 0 0 0-.306-.317c-.142-.15-.283-.296-.429-.44-.039-.043-.08-.083-.12-.123-.008.937-.104 1.915-.038 2.847" opacity=".1"/>
        <g transform="translate(30 116)">
            <mask id="j" fill="#fff">
                <use xlink:href="#h"/>
            </mask>
            <path fill="url(#i)" d="M14.412 1.674L10.972 6.2c-.148.195-.297.39-.446.583-.861 1.122-1.756 2.222-2.823 3.125-.459.385-.962.753-1.423 1.149-.223.19-.432.388-.626.6v.002a4.04 4.04 0 0 0-.56.754 2.967 2.967 0 0 0-.253.553c-.438 1.27-.028 2.802-.737 3.931-.255.406-.62.702-1.003.983-.31.228-.631.448-.913.708C.879 19.798.54 21.75.278 23.548l-.004.03H12.73c1.319-.917 3.092-1.494 3.581-3.033.65-2.053-1.512-4.38-.55-6.298.662-1.318 2.534-1.71 2.962-3.129.436-1.435-.907-2.779-1.126-4.267-.185-1.24.425-2.44.675-3.668.24-1.176-.09-2.713-1.16-3.058-.047-.014-.093-.029-.142-.038a1.397 1.397 0 0 0-.302-.032c-.898 0-1.673.848-2.257 1.619" mask="url(#j)"/>
        </g>
        <g transform="translate(30 116)">
            <mask id="m" fill="#fff">
                <use xlink:href="#k"/>
            </mask>
            <path fill="url(#l)" d="M14.629 1.674L11.137 6.2c-.15.195-.301.39-.453.583-.874 1.122-1.782 2.222-2.866 3.125-.465.385-.975.753-1.443 1.149-.227.19-.439.388-.636.6v.002a4.045 4.045 0 0 0-.57.754 2.946 2.946 0 0 0-.255.553c-.445 1.27-.028 2.802-.748 3.931-.259.406-.63.702-1.019.983-.313.228-.64.448-.927.708C.892 19.798.548 21.75.283 23.548l-.005.03h8.488c.399-.948.783-1.9 1.162-2.854 1.285-3.23 2.475-6.504 3.66-9.763C14.891 7.366 16.2 3.772 17.504.18a2.428 2.428 0 0 0-.135-.056c-.048-.014-.094-.029-.144-.038a1.439 1.439 0 0 0-.306-.032c-.912 0-1.698.848-2.291 1.619" mask="url(#m)"/>
        </g>
        <g transform="translate(35 107)">
            <mask id="p" fill="#fff">
                <use xlink:href="#n"/>
            </mask>
            <path fill="url(#o)" d="M.631 10.163c-.058.336-.107.673-.154 1.01-.02.172-.042.344-.058.517-.058.516-.097 1.03-.12 1.548-.072 1.645.002 3.303.132 4.957v.003c.031.402.066.803.102 1.206l.117 1.213v.003c.001.035.005.074.008.11.03.294.056.585.085.877.044.445.086.891.122 1.339.287 3.222.433 6.478-.25 9.63H.92c.106-.119.204-.24.304-.36.109-.135.22-.272.322-.407.001-.005.007-.009.01-.014a20.358 20.358 0 0 0 .613-.853h.001c.098-.15.199-.3.294-.453l.139-.224c.046-.073.09-.148.137-.224l.13-.226.151-.273c.073-.131.143-.263.212-.395.004-.008.008-.013.01-.023.162-.307.312-.621.454-.937.066-.149.13-.3.194-.449l.014-.029c.063-.149.121-.3.182-.45l.015-.04c.059-.147.115-.295.17-.445l.085-.243v-.004c.092-.256.178-.515.259-.776.819-2.63 1.188-5.435 1.341-8.25.034-.59.056-1.182.077-1.773.167-5.065-.055-10.113.643-15.149C3.257 2.641 1.312 6.39.63 10.163" mask="url(#p)"/>
        </g>
        <path fill="#000" d="M35.147 124.881c.028.398.06.797.093 1.194l.106 1.19v.003c.002.037.006.073.009.11.028.287.051.573.08.86.038.437.077.875.112 1.312.263 3.162.397 6.358-.231 9.45h.281c.097-.115.187-.234.279-.354a13.908 13.908 0 0 0 .53-.73 16.943 16.943 0 0 0 .612-.964c.043-.072.088-.146.129-.22.041-.071.083-.145.124-.22.042-.074.081-.148.121-.222l.14-.266c.066-.13.13-.26.194-.389a18.408 18.408 0 0 0 .607-1.382c.004-.009.01-.02.012-.028.058-.145.112-.294.168-.442l.015-.038c.053-.146.105-.29.155-.437l.08-.24v-.004c.084-.251.164-.505.237-.761-.861-1.426-2.277-2.349-2.878-3.975-.201-.543-.223-1.095-.138-1.652.315-2.128 2.153-4.333 1.381-6.406-.371-.994-1.248-1.653-2.177-2.27-.018.168-.037.337-.054.506a27.292 27.292 0 0 0-.107 1.524c-.068 1.61 0 3.232.12 4.851" opacity=".1"/>
        <g transform="translate(18 102)">
            <mask id="s" fill="#fff">
                <use xlink:href="#q"/>
            </mask>
            <path fill="url(#r)" d="M1.235 1.208c-.028.016-.053.03-.078.046C.094 1.944.126 3.461.273 4.705l.786 6.588c.229 1.919.459 3.854.256 5.777-.118 1.131-.38 2.314-.3 3.43v.002c.038.51.147 1.005.371 1.473.673 1.401 2.29 2.302 2.613 3.82.21.985-.19 1.99-.249 2.994-.121 2.088 1.197 3.961 2.457 5.645.544.727 1.106 1.47 1.716 2.156H21.207c.054-.103.1-.209.142-.317.283-.726.355-1.591.291-2.45a9.77 9.77 0 0 0-.498-2.418 4.203 4.203 0 0 0-.291-.658v-.004c-.79-1.477-2.244-2.224-3.228-3.461a4.868 4.868 0 0 1-.523-.81c-.117-.229-.199-.466-.25-.707-.206-.972.065-2.019.372-3.073v-.002l.001-.009c.425-1.466.906-2.94.246-4.23a2.964 2.964 0 0 0-.366-.548c-.001-.001-.001-.004-.003-.004-1.424-1.7-4.608-1.95-5.299-4.107-.52-1.63.761-3.533-.041-5.047-.812-1.535-3.069-1.496-4.488-2.519-1.18-.853-1.648-2.344-2.445-3.554C4.225 1.763 3.146.97 2.13.97c-.31 0-.612.073-.894.237" mask="url(#s)"/>
        </g>
        <g transform="translate(18 103)">
            <mask id="v" fill="#fff">
                <use xlink:href="#t"/>
            </mask>
            <path fill="url(#u)" d="M1.248.208c-.028.016-.054.03-.079.046C.095.944.127 2.461.276 3.705l.794 6.588c.231 1.919.464 3.854.259 5.777-.12 1.131-.385 2.314-.304 3.43v.002c.04.51.15 1.005.376 1.473.68 1.401 2.314 2.302 2.64 3.82.212.985-.192 1.99-.251 2.994-.123 2.088 1.21 3.961 2.482 5.645.55.727 1.118 1.47 1.734 2.156H16.886a104.699 104.699 0 0 0-1.916-5.524c-2.287-6.092-5.072-12.038-7.842-17.942L1.484.099c-.082.03-.16.066-.236.11" mask="url(#v)"/>
        </g>
        <g>
            <path fill="#BACDEF" d="M53.313 142.059c0 9.308-9.76 6.428-21.711 6.428-11.953 0-21.567 2.88-21.567-6.428 0-9.31 9.759-11.334 21.71-11.334 11.95 0 21.568 2.025 21.568 11.334"/>
            <g transform="translate(56.749 159.262)">
                <mask id="x" fill="#fff">
                    <use xlink:href="#w"/>
                </mask>
                <path fill="#AFC1E7" d="M176.408 10.459c0 5.61-39.39 10.16-87.98 10.16-48.592 0-87.982-4.55-87.982-10.16S39.836.299 88.427.299c48.592 0 87.981 4.55 87.981 10.16" mask="url(#x)" opacity=".1"/>
            </g>
            <path fill="#BACDEF" d="M222.336 118.007c-3.635 1.31-7.443 2.642-11.277 2.14-3.833-.5-7.639-3.474-7.667-7.323-.03-4.353 4.545-7.383 8.851-8.13 4.305-.748 8.816-.096 13.02-1.288 6.561-1.857 11.086-7.8 14.266-13.81 3.179-6.01 5.602-12.57 10.21-17.577 1.02-1.11 2.49-2.21 3.906-1.687 2.017.745 1.662 3.668.927 5.682l-6.09 16.684c-2.441 6.688-4.98 13.543-9.684 18.896-4.707 5.355-12.138 8.946-19.043 7.122"/>
            <path fill="#3F3D56" d="M186.39 125.307a88.464 88.464 0 0 0-27.214 25.982l6.472 4.283c5.473-5.407 12.722-8.555 19.473-12.26a119.398 119.398 0 0 0 29.641-23c1.18-1.26 2.348-2.568 3.08-4.13.73-1.56.975-3.427.272-5-1.178-2.632-4.497-3.56-7.389-3.479-5.39.151-10.492 2.695-14.64 6.123-4.152 3.429-7.48 7.72-10.773 11.973"/>
            <path fill="#BACDEF" d="M222.696 150.28h-.768a2.59 2.59 0 0 1-2.588-2.576v-28.887a2.59 2.59 0 0 1 2.588-2.577h.768a2.588 2.588 0 0 1 2.588 2.577v28.887a2.588 2.588 0 0 1-2.588 2.577"/>
            <path fill="#FBBEBE" d="M211.086 154.512c-.481.993-.155 2.184.806 2.95.963.768 2.515 1.074 3.85.76.96-1.077.68-2.683-.615-3.534-1.295-.852-3.433-.834-4.703.039"/>
            <path fill="#353549" d="M145.692 154.543c-.135 1.74-.254 3.55-1.01 5.06-.757 1.512-4.924 2.612-6.345 2.02-1.767-.734-2.168-3.369-2.268-5.539-.861-18.634 2.398-39.423 13.404-54.364 3.53-4.792 8.083-8.657 13.195-10.859 1.682-.724 4.994-2.671 5.985-.006.914 2.46-2.335 5.077-3.5 6.645-7.475 10.07-12.695 22.197-15.893 34.9-1.818 7.22-2.997 14.654-3.568 22.143"/>
            <path fill="#BACDEF" d="M232.452 153.242h-20.28c-1.779 0-3.234-1.45-3.234-3.222v-.957c0-1.772 1.455-3.222 3.234-3.222h20.28c1.78 0 3.235 1.45 3.235 3.222v.957c0 1.772-1.456 3.222-3.235 3.222"/>
            <path fill="#353549" d="M140.878 115.431h-.263c-14.081 8.683-27.375 20.249-36.907 33.74-1.023 1.449-2.026 3.415-1.01 4.869.693.988 2.106 1.248 3.274.935 1.17-.314 2.153-1.08 3.1-1.83l20.874-16.522c3.407-2.696 6.884-5.472 9.138-9.178 2.254-3.706 3.953-8.253 1.794-12.014M230.887 108.45c-2.675 3.042-6.472 4.877-10.308 6.199-3.838 1.32-7.827 2.212-11.563 3.79-1.747.734-3.65 1.918-3.832 3.797-.144 1.478.845 2.794 1.706 4.006 5.923 8.346 7.752 18.816 9.428 28.9-2.795 1.395-6.304.476-8.763-1.444-2.462-1.918-4.1-4.67-5.68-7.356l-7.392-12.559c-1.703-2.894-3.457-5.957-3.511-9.311-.05-3.005 1.305-5.9 3.189-8.246 1.884-2.348 4.279-4.226 6.65-6.085 4.733-3.706 9.488-7.427 14.709-10.415 2.885-1.65 5.912-3.07 9.077-4.102 2.153-.702 5.654-2.087 7.948-1.216 5.026 1.908.59 11.486-1.658 14.043"/>
            <path fill="#BACDEF" d="M214.882 136.96l-158.774.505 45.02-47.155 113.754-.711"/>
            <path fill="#BACDEF" d="M60.977 171.072l.423.046a1.293 1.293 0 0 0 1.427-1.143l3.55-32.556A1.29 1.29 0 0 0 65.23 136l-.423-.046a1.294 1.294 0 0 0-1.425 1.143l-3.55 32.556a1.29 1.29 0 0 0 1.146 1.42M101.106 151.649h.426c.714 0 1.293-.578 1.293-1.289v-13.14c0-.712-.58-1.29-1.293-1.29h-.426a1.29 1.29 0 0 0-1.294 1.29v13.14a1.29 1.29 0 0 0 1.294 1.289"/>
            <path fill="#FBBEBE" d="M158.442 154.948c1.119.733 2.24 1.47 3.36 2.202l2.496-3.163c.098-.124-2.931-2.018-3.461-1.925-1.06.183-1.873 2.108-2.395 2.886M215.516 66.495l5.021-.723c.65 2.613.658 5.381.02 7.998-.184.76-.438 1.534-.97 2.108-.532.575-1.408.899-2.126.582-.954-.42-1.174-1.646-1.263-2.682l-.435-5.036c-.066-.77-.176-1.627-.78-2.112"/>
            <path fill="#E5AEAE" d="M217.28 69.654c.654-.05 1.32-.102 1.928-.35.606-.247 1.155-.726 1.314-1.36.102-.406-.011-.911-.392-1.09-.27-.127-.589-.053-.878.026-.607.167-1.21.347-1.81.546-.408.134-1.051.23-1.311.617-.659.984.194 1.684 1.149 1.61"/>
            <path fill="#FBBEBE" d="M222.312 60.738c0 4.496-2.661 8.14-5.945 8.14-3.282 0-5.942-3.644-5.942-8.14s2.66-8.14 5.942-8.14c3.284 0 5.945 3.644 5.945 8.14"/>
            <path fill="#3D94D6" d="M215.746 73.59c-1.374 2.463-1.795 5.37-1.606 8.18.19 2.811.956 5.552 1.843 8.227.715 2.165 1.589 4.414 3.371 5.844 1.932 1.55 4.58 1.847 7.06 1.818a35.025 35.025 0 0 0 7.976-1.02c.317-.079.654-.174.864-.42.346-.405.213-1.013.061-1.521-.865-2.912-1.732-5.824-2.598-8.735l-2.384-8.014c-.637-2.14-1.294-4.323-2.587-6.147-1.376-1.943-3.826-3.71-6.279-2.922-2.458.787-4.466 2.458-5.721 4.71"/>
            <path fill="#BACDEF" d="M143.919 90.131l-.967-32.16c-.104-3.513-.125-7.317 1.955-10.157 2.758-3.765 8.05-4.393 12.72-4.697 3.72-.243 7.914-.323 10.61 2.24 2.667 2.54 2.807 6.666 2.766 10.34l-.377 33.723M203.462 171.07l.422-.057a1.29 1.29 0 0 0 1.11-1.449l-4.381-32.455a1.293 1.293 0 0 0-1.454-1.107l-.423.056a1.29 1.29 0 0 0-1.11 1.449l4.38 32.457c.096.705.747 1.2 1.456 1.105"/>
            <path fill="#FC6681" d="M172.075 59.739c1.21-.512 2.53-1.035 3.803-.71 1.214.309 2.132 1.358 2.585 2.52.454 1.164.512 2.438.52 3.685A51.887 51.887 0 0 1 175.5 84.2c-.533 1.381-1.175 2.802-2.365 3.689-1.358 1.011-3.164 1.132-4.857 1.216l-11.636.574c-1.471.073-2.97.143-4.394-.234s-2.785-1.28-3.335-2.64c-.611-1.51-.128-3.207.229-4.797.357-1.588.519-3.438-.554-4.666-.444 5.345-3.514 10.212-7.485 13.834-3.972 3.62-8.807 6.148-13.655 8.482-2.006.965-4.144 1.926-6.363 1.735-2.22-.188-4.461-1.983-4.306-4.195.142-2.042 2.09-3.414 3.841-4.48 3.887-2.37 7.772-4.739 11.66-7.107 2.499-1.524 5.105-3.156 6.537-5.702.948-1.688 1.295-3.638 1.91-5.474 1.608-4.8 5.192-8.91 9.74-11.166 3.567-1.77 7.651-2.36 11.585-1.789 1.458.212 2.919.725 4.4.475 1.921-.325 3.844-1.462 5.623-2.215"/>
            <path fill="#3D94D6" d="M193.14 91.733c-.826.415-1.683.827-2.31 1.505-.627.678-.975 1.701-.594 2.541.513 1.134 2.001 1.397 3.251 1.373 6.547-.119 12.446-3.735 17.972-7.233 2.238-1.418 4.589-2.961 5.704-5.357.942-2.02 1.965-9.12.071-10.744-2.274-1.952-5.429 3.66-6.726 5.025a63.418 63.418 0 0 1-8.203 7.249c-.938.693-9.166 5.106-9.166 5.641"/>
            <path fill="#EAEAEA" d="M206.218 105.997c-3.7-2.921-7.439-5.866-11.686-7.917-4.25-2.05-9.11-3.161-13.733-2.201-1.538.32-3.022.862-4.448 1.523a28.08 28.08 0 0 0-9.406 7.099l16.81 6.734c2.802 1.124 5.601 2.25 8.405 3.368 2.906 1.159 3.697-.252 5.995-2.104 2.687-2.167 5.375-4.333 8.063-6.502"/>
            <path fill="#FFF" d="M163.618 84.914c.113 5.32.597 10.635 1.446 15.89.25 1.543.575 3.172 1.639 4.321.924.996 2.263 1.478 3.549 1.924l22.113 7.679c.928.322 2.117.581 2.757-.159.422-.487.396-1.203.348-1.843-.307-4.114-.613-8.228-.922-12.341-.176-2.375-.395-4.872-1.74-6.843-1.962-2.87-5.71-3.815-9.118-4.542"/>
            <path fill="#46A5E0" d="M220.22 69.114l-.824 15.303c-.184 3.443-.383 6.95-1.602 10.175-1.219 3.227-3.645 6.19-6.96 7.18-1.696.507-3.542.484-5.163 1.19-1.623.706-2.977 2.61-2.192 4.192.785 1.585 3.006 1.682 4.754 1.379 7.067-1.224 13.575-5.376 17.648-11.256 4.071-5.879 5.656-13.413 4.295-20.425-.476-2.46-1.371-4.964-3.25-6.629-1.879-1.665-4.945-2.192-6.91-.629"/>
            <path fill="#FBBEBE" d="M203.924 102.798c-1.049-.447-2.162-.903-3.292-.755-1.131.15-2.232 1.157-2.038 2.277.185 1.082 1.393 1.66 2.48 1.844 1.044.176 2.235.112 2.991-.625.757-.736.65-2.294-.364-2.598"/>
            <path fill="#2F2E41" d="M159.239 154.646c.788.163 1.595.333 2.277.76.68.428 1.219 1.176 1.165 1.975-.064.95-.948 1.684-1.88 1.899-.93.214-1.902.026-2.84-.162l-8.047-1.614c-.337-.068-.687-.141-.964-.345-.278-.205-.46-.58-.33-.898.147-.367.6-.486.991-.557 3.143-.563 6.485-1.706 9.628-1.058M213.614 156.852c.805-.02 1.63-.036 2.391.227.761.263 1.456.87 1.584 1.661.154.938-.54 1.853-1.399 2.272-.857.419-1.847.455-2.803.483l-8.205.242c-.344.012-.702.02-1.018-.118-.317-.136-.578-.46-.526-.8.06-.392.476-.61.84-.766 2.932-1.258 5.929-3.123 9.136-3.2"/>
            <path fill="#FBBEBE" d="M157.379 61.113c-.103 2.648 1.2 5.31 3.359 6.859.5.36 1.058.667 1.67.742.612.077 1.286-.117 1.658-.607.295-.386.364-.89.428-1.37l.59-4.547c.065-.492.127-1.006-.05-1.472-.162-.43-.51-.761-.843-1.078-.43-.405-1.512-1.858-2.082-1.938-.684-.098-.776.49-1.145 1.005-.445.625-.936 1.171-1.583 1.6-.163.106-2.002.897-2.002.806"/>
            <path fill="#28151D" d="M221.43 62.654c-.236-1.117-1.515-1.897-2.62-1.596.429-.436.865-.884 1.114-1.44.251-.555.282-1.25-.081-1.742-.444-.6-1.29-.705-2.037-.759l-6.455-.464c-.454-.033-.864-.384-.861-.836a.92.92 0 0 0-.214-.617c-.39-.437-1.022-.541-1.585-.712-.563-.168-1.173-.53-1.225-1.112-.067-.762.82-1.217 1.56-1.42a24.14 24.14 0 0 1 7.879-.801c1.995.127 4.205.65 5.272 2.335.84 1.32.744 3.011.52 4.559-.222 1.547-.54 3.156-.063 4.645"/>
            <path fill="#E5AEAE" d="M161.92 58.912c0 .426.196.83.42 1.194.224.366.531.741.96.79.358.041.694-.16.998-.353.139-.089.291-.196.319-.358.022-.128-.043-.254-.11-.366a5.924 5.924 0 0 0-1.402-1.629c-.293-.236-.487-.49-.803-.232-.255.208-.38.642-.382.954"/>
            <path fill="#FBBEBE" d="M161.012 51.584c-.221 1.508.032 3.046.43 4.518.302 1.121.688 2.219 1.459 3.103.758.871 1.942 1.452 3.075 1.222 1.398-.284 2.29-1.646 2.826-2.964.854-2.104 1.184-4.553.245-6.622-.867-1.911-2.712-2.932-4.755-2.97-2.067-.04-3.002 1.811-3.28 3.713"/>
            <path fill="#28151D" d="M172.228 51.964c.995-1.335.635-3.268-.215-4.698-1.578-2.657-4.74-4.295-7.829-4.055-3.09.24-5.958 2.344-7.104 5.212-.79 1.98-.85 4.316-2.234 5.94-2.118 2.494-6.127 2.042-8.977 3.659-2.633 1.493-3.979 4.921-3.062 7.797.16.5.378.98.595 1.456.226.494.448.986.673 1.48.408.895.827 1.807 1.501 2.521 1.285 1.361 3.466 1.782 5.169 1 1.7-.783 2.792-2.712 2.584-4.566-.158-1.396-.964-2.808-.474-4.124.4-1.073 1.48-1.988 2.628-2.041 1.441-.067 3.323-1.184 4.413-1.548 4.459-1.479-.705-8.107 3.065-8.873 3.033-.617 6.521 4.523 9.267.84"/>
            <path fill="#FBBEBE" d="M111.035 98.98c-2.651.928-4.516 3.533-4.93 6.303-.105.7-.05 1.563.572 1.908.404.227.928.135 1.32-.11.394-.242.688-.615.971-.981l2.817-3.624c.453-.581.933-1.187 1.61-1.482.676-.294 1.605-.152 1.948.5.29.552.066 1.233-.257 1.766-.324.532-.75 1.023-.897 1.628-.145.606.138 1.382.754 1.483.568.095 1.048-.407 1.356-.891 1.304-2.053 1.552-4.713.734-6.99-.612-1.706-1.069-1.038-2.385-.488-1.154.482-2.435.566-3.613.978"/>
            <path fill="#2F2E41" d="M134.316 164.47c-.472.433-.985.967-.92 1.605.044.452.397.837.823 1 .426.163.908.129 1.34-.014.882-.293 1.556-.99 2.2-1.654.644-.666 1.338-1.349 2.23-1.604.893-.254 2.03.098 2.323.974.12.364.083.76.136 1.14.052.38.244.79.613.901.392.119.814-.175.983-.549.167-.372.148-.799.125-1.206l-.236-4.153c0-.02-5.08-.308-5.568-.103-1.45.613-2.897 2.602-4.049 3.662M99.877 152.061l-5.515 2.088c-.423.16-.908.393-.98.839-.061.376.234.74.588.888.353.148.753.132 1.136.116 1.363-.063 5.697-.127 7.06-.19.893-.041-1.056-.032-.461.636.706.79.402 2.017.058 3.019a3.273 3.273 0 0 0 2.78-1.55 3.25 3.25 0 0 0 .065-3.173c-.21-.383-.495-.716-.777-1.048-1.578-1.849-1.649-2.2-3.954-1.625"/>
            <path fill="#FFF" d="M141.738 121.6c.043.973.097 1.99.597 2.827 1.032 1.736 3.417 1.968 5.44 2.001 1.998.035 4.02.067 5.958-.41 1.941-.476 3.817-1.53 4.86-3.225 1.26-2.048 1.118-4.622.931-7.016l-.668-8.67c-.077-1.001-.176-2.066-.79-2.865-1.054-1.373-3.096-1.374-4.83-1.247l-8.288.616c-3.35.247-3.665-.329-3.871 2.843-.325 4.993.661 10.138.661 15.146M108.153 122.27c2.673 2 5.391 4.022 8.508 5.228 3.117 1.204 6.74 1.507 9.748.053 3.509-1.696 5.533-5.362 7.333-8.806 1.373-2.624 2.73-5.886 1.115-8.368-.777-1.192-2.096-1.911-3.4-2.491-1.704-.759-5.091-2.558-6.992-1.89-1.717.607-2.97 3.557-4.05 4.91a56.256 56.256 0 0 1-12.262 11.363"/>
            <path stroke="#EAEAEA" d="M144.754 121.703c.21-.557.802-.893 1.392-.983.59-.09 1.19.022 1.78.108a23 23 0 0 0 7.892-.197M144.687 116.165c1.262-1.125 3.129-1.2 4.82-1.102 1.69.097 3.481.283 4.993-.48M144.606 109.616c.414-.77 1.338-1.14 2.214-1.184.875-.045 1.738.174 2.606.29 2.303.305 4.699-.134 6.742-1.236"/>
            <path fill="#FFF" d="M129.619 41.218c.308-.923.623-1.893.456-2.853-.342-1.99-2.485-3.062-4.362-3.818-1.853-.748-3.73-1.503-5.71-1.753-1.982-.25-4.111.062-5.692 1.27-1.91 1.46-2.7 3.915-3.384 6.216l-2.483 8.334c-.287.962-.576 1.991-.29 2.957.493 1.66 2.398 2.393 4.063 2.895l7.958 2.396c3.216.97 3.304 1.62 4.633-1.267 2.093-4.545 3.016-9.702 4.81-14.377"/>
            <path stroke="#EAEAEA" d="M126.84 40.041c-.396.444-1.069.546-1.652.42-.583-.128-1.102-.447-1.622-.74a23 23 0 0 0-7.439-2.644M124.918 45.235c-1.581.598-3.35 0-4.895-.698-1.542-.696-3.148-1.513-4.833-1.342M122.646 51.378c-.662.57-1.657.585-2.49.312-.833-.271-1.56-.785-2.33-1.204a11.213 11.213 0 0 0-6.737-1.263"/>
            <path fill="#FFF" d="M95.727 60.905c-.325-.625-.67-1.277-1.241-1.678-1.184-.833-2.762-.282-4.052.292-1.274.567-2.562 1.142-3.642 2.026-1.081.884-1.945 2.129-2.087 3.547-.17 1.714.707 3.36 1.556 4.874l3.073 5.486c.355.634.743 1.302 1.375 1.645 1.087.59 2.378-.011 3.435-.606l5.052-2.848c2.042-1.15 2.418-.865 1.579-3.004-1.321-3.37-3.517-6.452-5.048-9.734"/>
            <path stroke="#EAEAEA" d="M94.356 60.897c.044.456-.233.873-.59 1.117-.357.243-.787.348-1.202.467a15.516 15.516 0 0 0-5.107 2.55M95.367 65.032c-.515 1.025-1.702 1.63-2.821 2.085-1.119.454-2.327.887-3.1 1.78M97.109 68.868a1.75 1.75 0 0 1-.918 1.655c-.531.294-1.16.36-1.75.515-1.565.413-2.893 1.488-3.737 3.023M113.688 121.77c-.206-.272.062-.692.399-.765.333-.07.672.084.98.235l8.867 4.33M119.576 116.026a31.76 31.76 0 0 1 8.962 4.423M125.071 110.903c2.482 1.11 4.964 2.222 7.447 3.331"/>
        </g>
    </g>
</svg>
