<svg xmlns="http://www.w3.org/2000/svg" width="103" height="79" viewBox="0 0 103 79">
    <g fill="none" fill-rule="evenodd" transform="translate(0 -1)">
        <rect width="75" height="77" x="14" y="2" stroke="#3D94D6" stroke-width="2" rx="37.5"/>
        <rect width="63.956" height="64" x="19.044" y="8" fill="#E5F0FF" rx="31.978"/>
        <path fill="#3E4246" fill-rule="nonzero" d="M49.08 55V30.04l-6.336 4.896-4.176-5.712 11.184-8.208h7.392V55z"/>
        <path fill="#BACDEF" d="M97 16s-1.357-1.726-2.19-2.516c-1.497-1.424-3.215-3.94-8.71-2.086-.427.144-.84.336-1.252.528-.483.227-1.984.233-3.52-1.116C78.884 8.668 77.93 7.05 74.584 7c-3.892-.058-4.505 5.305-7.53 6.678-1.925.873-7.005 1.742-8.055 2.129L97 16zM0 70s1.429-1.917 2.304-2.796c1.577-1.582 3.386-4.378 9.17-2.317.449.16.884.373 1.317.587.51.251 2.09.258 3.707-1.24 2.57-2.381 3.575-4.178 7.096-4.233 4.098-.066 4.742 5.893 7.927 7.419 2.026.97 7.373 1.935 8.479 2.365L0 70z"/>
        <g fill="#AFC1E7">
            <path d="M14.605 10.136a6 6 0 1 1-11.21-4.274 6 6 0 0 1 11.21 4.274M8.868 20.712a2 2 0 1 1-3.738-1.426 2 2 0 0 1 3.738 1.426"/>
        </g>
        <g fill="#AFC1E7">
            <path d="M90.557 66.871a6.499 6.499 0 1 1 11.885 5.26 6.499 6.499 0 0 1-11.885-5.26M97.214 56.49a2.5 2.5 0 0 1 4.572 2.022 2.498 2.498 0 0 1-3.297 1.273 2.497 2.497 0 0 1-1.275-3.296"/>
        </g>
    </g>
</svg>
