<svg xmlns="http://www.w3.org/2000/svg" width="74" height="111" viewBox="0 0 74 111">
    <defs>
        <linearGradient id="a" x1="28.168%" x2="71.832%" y1="100%" y2="0%">
            <stop offset="0%" stop-color="#F9FAFC"/>
            <stop offset="50.711%" stop-color="#E1E4FF"/>
            <stop offset="100%" stop-color="#C5E2FF"/>
        </linearGradient>
    </defs>
    <path fill="url(#a)" fill-rule="nonzero" d="M1208.05 52c0 3.3-.4 6.2-1.2 8.7-.8 2.5-1.925 4.8-3.375 6.9-1.45 2.1-3.2 4.075-5.25 5.925-2.05 1.85-4.375 3.775-6.975 5.775-1.6 1.3-2.925 2.45-3.975 3.45-1.05 1-1.875 2.025-2.475 3.075-.6 1.05-1.025 2.15-1.275 3.3s-.375 2.525-.375 4.125v3.9h-23.4v-5.7c0-2.6.25-4.925.75-6.975s1.25-3.925 2.25-5.625c1-1.7 2.225-3.35 3.675-4.95 1.45-1.6 3.175-3.25 5.175-4.95l4.95-4.65c1.7-1.5 3.15-3.075 4.35-4.725 1.2-1.65 1.8-3.625 1.8-5.925 0-3.2-.975-5.75-2.925-7.65-1.95-1.9-4.625-2.85-8.025-2.85-4.2 0-7.35 1.425-9.45 4.275-2.1 2.85-3.25 6.075-3.45 9.675L1135 54.55c.6-5.4 1.975-10.15 4.125-14.25s4.925-7.5 8.325-10.2c3.4-2.7 7.25-4.725 11.55-6.075 4.3-1.35 8.85-2.025 13.65-2.025 4.5 0 8.875.575 13.125 1.725 4.25 1.15 8.025 2.95 11.325 5.4 3.3 2.45 5.95 5.575 7.95 9.375s3 8.3 3 13.5zm-21.9 66.3c0 4-1.4 7.375-4.2 10.125-2.8 2.75-6.25 4.125-10.35 4.125-2 0-3.875-.35-5.625-1.05-1.75-.7-3.3-1.7-4.65-3a15.15 15.15 0 0 1-3.225-4.5c-.8-1.7-1.2-3.55-1.2-5.55 0-1.9.375-3.725 1.125-5.475.75-1.75 1.8-3.275 3.15-4.575a15.127 15.127 0 0 1 4.725-3.075c1.8-.75 3.7-1.125 5.7-1.125s3.875.375 5.625 1.125 3.3 1.75 4.65 3c1.35 1.25 2.4 2.75 3.15 4.5a13.759 13.759 0 0 1 1.125 5.475z" transform="translate(-1135 -22)"/>
</svg>
