<svg xmlns="http://www.w3.org/2000/svg" width="114" height="96" viewBox="0 0 114 96">
    <defs>
        <linearGradient id="a" x1="100%" x2="0%" y1="14.543%" y2="85.457%">
            <stop offset="0%" stop-color="#F9FAFC"/>
            <stop offset="50.711%" stop-color="#E1E4FF"/>
            <stop offset="100%" stop-color="#C5E2FF"/>
        </linearGradient>
    </defs>
    <path fill="url(#a)" fill-rule="nonzero" d="M1139 16v19.276c-5.983.336-10.512 1.448-13.587 3.338-3.075 1.89-5.236 4.956-6.482 9.197-1.247 4.242-1.87 10.31-1.87 18.205H1139V112h-45V68.283c0-18.057 3.802-31.286 11.406-39.685C1113.01 20.2 1124.208 16 1139 16zm69 0v19.276c-6.083.336-10.687 1.406-13.813 3.212-3.125 1.806-5.385 4.872-6.78 9.197-1.393 4.326-2.09 10.436-2.09 18.33H1208V112h-46V68.283c0-18.057 3.844-31.286 11.532-39.685C1181.22 20.2 1192.709 16 1208 16z" opacity=".5" transform="rotate(180 604 56)"/>
</svg>
