<svg xmlns="http://www.w3.org/2000/svg" width="103" height="79" viewBox="0 0 103 79">
    <g fill="none" fill-rule="evenodd" transform="translate(0 -1)">
        <rect width="75" height="77" x="14" y="2" stroke="#3D94D6" stroke-width="2" rx="37.5"/>
        <rect width="63.956" height="64" x="19.044" y="8" fill="#E5F0FF" rx="31.978"/>
        <path fill="#3E4246" fill-rule="nonzero" d="M63.48 45.112c0 1.856-.376 3.464-1.128 4.824a10.145 10.145 0 0 1-2.952 3.36 12.995 12.995 0 0 1-4.104 1.968c-1.52.432-3.064.648-4.632.648a19.03 19.03 0 0 1-4.488-.528 14.155 14.155 0 0 1-3.984-1.608 11.555 11.555 0 0 1-3.144-2.784c-.896-1.136-1.568-2.504-2.016-4.104l7.488-1.968c.32 1.12.976 2.104 1.968 2.952.992.848 2.256 1.272 3.792 1.272.576 0 1.16-.08 1.752-.24a4.815 4.815 0 0 0 1.584-.744 4.023 4.023 0 0 0 1.152-1.32c.304-.544.456-1.216.456-2.016 0-.864-.2-1.584-.6-2.16a4.249 4.249 0 0 0-1.584-1.368 7.779 7.779 0 0 0-2.232-.72 14.61 14.61 0 0 0-2.496-.216h-2.16v-5.904h2.352c.768 0 1.504-.056 2.208-.168a5.878 5.878 0 0 0 1.896-.624 3.673 3.673 0 0 0 1.344-1.224c.336-.512.504-1.184.504-2.016 0-1.216-.432-2.144-1.296-2.784-.864-.64-1.856-.96-2.976-.96-1.152 0-2.152.344-3 1.032-.848.688-1.4 1.608-1.656 2.76l-7.488-1.728c.416-1.44 1.04-2.696 1.872-3.768a11.515 11.515 0 0 1 2.952-2.688 13.626 13.626 0 0 1 3.72-1.632 15.56 15.56 0 0 1 4.128-.552c1.504 0 2.968.192 4.392.576 1.424.384 2.696.976 3.816 1.776a9.37 9.37 0 0 1 2.712 3c.688 1.2 1.032 2.616 1.032 4.248 0 1.888-.536 3.48-1.608 4.776-1.072 1.296-2.44 2.168-4.104 2.616v.144a8.74 8.74 0 0 1 2.64 1.08 8.528 8.528 0 0 1 2.064 1.776A7.916 7.916 0 0 1 63 42.4c.32.848.48 1.752.48 2.712z"/>
        <path fill="#BACDEF" d="M97 16s-1.357-1.726-2.19-2.516c-1.497-1.424-3.215-3.94-8.71-2.086-.427.144-.84.336-1.252.528-.483.227-1.984.233-3.52-1.116C78.884 8.668 77.93 7.05 74.584 7c-3.892-.058-4.505 5.305-7.53 6.678-1.925.873-7.005 1.742-8.055 2.129L97 16zM0 70s1.429-1.917 2.304-2.796c1.577-1.582 3.386-4.378 9.17-2.317.449.16.884.373 1.317.587.51.251 2.09.258 3.707-1.24 2.57-2.381 3.575-4.178 7.096-4.233 4.098-.066 4.742 5.893 7.927 7.419 2.026.97 7.373 1.935 8.479 2.365L0 70z"/>
        <g fill="#AFC1E7">
            <path d="M14.605 10.136a6 6 0 1 1-11.21-4.274 6 6 0 0 1 11.21 4.274M8.868 20.712a2 2 0 1 1-3.738-1.426 2 2 0 0 1 3.738 1.426"/>
        </g>
        <g fill="#AFC1E7">
            <path d="M90.557 66.871a6.499 6.499 0 1 1 11.885 5.26 6.499 6.499 0 0 1-11.885-5.26M97.214 56.49a2.5 2.5 0 0 1 4.572 2.022 2.498 2.498 0 0 1-3.297 1.273 2.497 2.497 0 0 1-1.275-3.296"/>
        </g>
    </g>
</svg>
