<svg xmlns="http://www.w3.org/2000/svg" width="103" height="79" viewBox="0 0 103 79">
    <g fill="none" fill-rule="evenodd" transform="translate(0 -1)">
        <rect width="75" height="77" x="14" y="2" stroke="#3D94D6" stroke-width="2" rx="37.5"/>
        <rect width="63.956" height="64" x="19.044" y="8" fill="#E5F0FF" rx="31.978"/>
        <path fill="#3E4246" fill-rule="nonzero" d="M38.76 55v-6.72l13.248-12c.832-.8 1.504-1.616 2.016-2.448.512-.832.768-1.76.768-2.784 0-1.216-.384-2.2-1.152-2.952-.768-.752-1.792-1.128-3.072-1.128-1.344 0-2.44.472-3.288 1.416-.848.944-1.352 2.184-1.512 3.72l-7.728-1.056c.192-1.728.664-3.264 1.416-4.608a11.9 11.9 0 0 1 2.856-3.432 12.34 12.34 0 0 1 3.96-2.16A14.854 14.854 0 0 1 51 20.104c1.568 0 3.088.208 4.56.624 1.472.416 2.784 1.056 3.936 1.92a9.583 9.583 0 0 1 2.76 3.264c.688 1.312 1.032 2.848 1.032 4.608 0 1.216-.16 2.312-.48 3.288-.32.976-.76 1.88-1.32 2.712-.56.832-1.2 1.608-1.92 2.328-.72.72-1.464 1.432-2.232 2.136l-7.872 7.008h13.872V55H38.76z"/>
        <path fill="#BACDEF" d="M97 16s-1.357-1.726-2.19-2.516c-1.497-1.424-3.215-3.94-8.71-2.086-.427.144-.84.336-1.252.528-.483.227-1.984.233-3.52-1.116C78.884 8.668 77.93 7.05 74.584 7c-3.892-.058-4.505 5.305-7.53 6.678-1.925.873-7.005 1.742-8.055 2.129L97 16zM0 70s1.429-1.917 2.304-2.796c1.577-1.582 3.386-4.378 9.17-2.317.449.16.884.373 1.317.587.51.251 2.09.258 3.707-1.24 2.57-2.381 3.575-4.178 7.096-4.233 4.098-.066 4.742 5.893 7.927 7.419 2.026.97 7.373 1.935 8.479 2.365L0 70z"/>
        <g fill="#AFC1E7">
            <path d="M14.605 10.136a6 6 0 1 1-11.21-4.274 6 6 0 0 1 11.21 4.274M8.868 20.712a2 2 0 1 1-3.738-1.426 2 2 0 0 1 3.738 1.426"/>
        </g>
        <g fill="#AFC1E7">
            <path d="M90.557 66.871a6.499 6.499 0 1 1 11.885 5.26 6.499 6.499 0 0 1-11.885-5.26M97.214 56.49a2.5 2.5 0 0 1 4.572 2.022 2.498 2.498 0 0 1-3.297 1.273 2.497 2.497 0 0 1-1.275-3.296"/>
        </g>
    </g>
</svg>
